G04 #@! TF.FileFunction,Legend,Bot*
%FSLAX46Y46*%
G04 Gerber Fmt 4.6, Leading zero omitted, Abs format (unit mm)*
G04 Created by KiCad (PCBNEW 4.0.5) date 12/27/16 09:40:05*
%MOMM*%
%LPD*%
G01*
G04 APERTURE LIST*
%ADD10C,0.100000*%
%ADD11C,0.300000*%
%ADD12C,0.150000*%
%ADD13C,0.010000*%
%ADD14C,3.400000*%
%ADD15R,2.127200X2.127200*%
%ADD16O,2.127200X2.127200*%
%ADD17R,2.432000X2.127200*%
%ADD18O,2.432000X2.127200*%
%ADD19C,1.299160*%
%ADD20R,1.600000X2.600000*%
%ADD21R,2.000000X1.800000*%
%ADD22R,1.600000X1.800000*%
%ADD23R,1.100000X2.000000*%
G04 APERTURE END LIST*
D10*
D11*
X109385714Y-82332143D02*
X109171428Y-82403571D01*
X108814285Y-82403571D01*
X108671428Y-82332143D01*
X108599999Y-82260714D01*
X108528571Y-82117857D01*
X108528571Y-81975000D01*
X108599999Y-81832143D01*
X108671428Y-81760714D01*
X108814285Y-81689286D01*
X109099999Y-81617857D01*
X109242857Y-81546429D01*
X109314285Y-81475000D01*
X109385714Y-81332143D01*
X109385714Y-81189286D01*
X109314285Y-81046429D01*
X109242857Y-80975000D01*
X109099999Y-80903571D01*
X108742857Y-80903571D01*
X108528571Y-80975000D01*
X108028571Y-80903571D02*
X107671428Y-82403571D01*
X107385714Y-81332143D01*
X107100000Y-82403571D01*
X106742857Y-80903571D01*
X106242857Y-81975000D02*
X105528571Y-81975000D01*
X106385714Y-82403571D02*
X105885714Y-80903571D01*
X105385714Y-82403571D01*
X104028571Y-82403571D02*
X104528571Y-81689286D01*
X104885714Y-82403571D02*
X104885714Y-80903571D01*
X104314286Y-80903571D01*
X104171428Y-80975000D01*
X104100000Y-81046429D01*
X104028571Y-81189286D01*
X104028571Y-81403571D01*
X104100000Y-81546429D01*
X104171428Y-81617857D01*
X104314286Y-81689286D01*
X104885714Y-81689286D01*
X103385714Y-82403571D02*
X103385714Y-80903571D01*
X102885714Y-81975000D01*
X102385714Y-80903571D01*
X102385714Y-82403571D01*
X106492857Y-84953571D02*
X107350000Y-84953571D01*
X106921428Y-84953571D02*
X106921428Y-83453571D01*
X107064285Y-83667857D01*
X107207143Y-83810714D01*
X107350000Y-83882143D01*
X105850000Y-84810714D02*
X105778572Y-84882143D01*
X105850000Y-84953571D01*
X105921429Y-84882143D01*
X105850000Y-84810714D01*
X105850000Y-84953571D01*
X104850000Y-83453571D02*
X104707143Y-83453571D01*
X104564286Y-83525000D01*
X104492857Y-83596429D01*
X104421428Y-83739286D01*
X104350000Y-84025000D01*
X104350000Y-84382143D01*
X104421428Y-84667857D01*
X104492857Y-84810714D01*
X104564286Y-84882143D01*
X104707143Y-84953571D01*
X104850000Y-84953571D01*
X104992857Y-84882143D01*
X105064286Y-84810714D01*
X105135714Y-84667857D01*
X105207143Y-84382143D01*
X105207143Y-84025000D01*
X105135714Y-83739286D01*
X105064286Y-83596429D01*
X104992857Y-83525000D01*
X104850000Y-83453571D01*
D12*
X136400000Y-98300000D02*
X129050000Y-98300000D01*
X129050000Y-98300000D02*
X127700000Y-98350000D01*
X127700000Y-98350000D02*
X126550000Y-98500000D01*
X126550000Y-98500000D02*
X125450000Y-98700000D01*
X125450000Y-98700000D02*
X124400000Y-99000000D01*
X126250000Y-85000000D02*
X126250000Y-83700000D01*
X136400000Y-93200000D02*
X136400000Y-86000000D01*
X136400000Y-96000000D02*
X136400000Y-98300000D01*
X124400000Y-99000000D02*
X121700000Y-99000000D01*
X121700000Y-99000000D02*
X121700000Y-96000000D01*
X121700000Y-86000000D02*
X121700000Y-93200000D01*
X126700000Y-85600000D02*
X127000000Y-85600000D01*
X127000000Y-85600000D02*
X127000000Y-85900000D01*
X127000000Y-85900000D02*
X126700000Y-85900000D01*
X126700000Y-85900000D02*
X126700000Y-85600000D01*
X126250000Y-85000000D02*
X123250000Y-85000000D01*
D13*
G36*
X114060256Y-91739918D02*
X114004799Y-91767568D01*
X113955852Y-91818480D01*
X113942371Y-91837338D01*
X113927686Y-91862015D01*
X113918158Y-91888816D01*
X113912707Y-91924587D01*
X113910253Y-91976169D01*
X113909714Y-92044267D01*
X113912148Y-92137588D01*
X113920606Y-92207657D01*
X113936826Y-92259931D01*
X113962546Y-92299869D01*
X113999503Y-92332929D01*
X114002218Y-92334886D01*
X114038640Y-92354908D01*
X114082498Y-92364815D01*
X114138276Y-92367257D01*
X114228952Y-92367257D01*
X114228990Y-92455283D01*
X114229834Y-92504308D01*
X114234976Y-92533065D01*
X114248413Y-92550311D01*
X114274142Y-92564808D01*
X114280321Y-92567769D01*
X114309236Y-92581648D01*
X114331624Y-92590414D01*
X114348271Y-92591171D01*
X114359964Y-92581023D01*
X114367490Y-92557073D01*
X114371634Y-92516426D01*
X114373185Y-92456186D01*
X114372929Y-92373455D01*
X114371651Y-92265339D01*
X114371252Y-92233000D01*
X114369815Y-92121524D01*
X114368528Y-92048603D01*
X114229029Y-92048603D01*
X114228245Y-92110499D01*
X114224760Y-92150997D01*
X114216876Y-92177708D01*
X114202895Y-92198244D01*
X114193403Y-92208260D01*
X114154596Y-92237567D01*
X114120237Y-92239952D01*
X114084784Y-92215750D01*
X114083886Y-92214857D01*
X114069461Y-92196153D01*
X114060687Y-92170732D01*
X114056261Y-92131584D01*
X114054882Y-92071697D01*
X114054857Y-92058430D01*
X114058188Y-91975901D01*
X114069031Y-91918691D01*
X114088660Y-91883766D01*
X114118350Y-91868094D01*
X114135509Y-91866514D01*
X114176234Y-91873926D01*
X114204168Y-91898330D01*
X114220983Y-91942980D01*
X114228350Y-92011130D01*
X114229029Y-92048603D01*
X114368528Y-92048603D01*
X114368292Y-92035245D01*
X114366323Y-91970333D01*
X114363550Y-91922958D01*
X114359612Y-91889290D01*
X114354151Y-91865498D01*
X114346808Y-91847753D01*
X114337223Y-91832224D01*
X114333113Y-91826381D01*
X114278595Y-91771185D01*
X114209664Y-91739890D01*
X114129928Y-91731165D01*
X114060256Y-91739918D01*
X114060256Y-91739918D01*
G37*
X114060256Y-91739918D02*
X114004799Y-91767568D01*
X113955852Y-91818480D01*
X113942371Y-91837338D01*
X113927686Y-91862015D01*
X113918158Y-91888816D01*
X113912707Y-91924587D01*
X113910253Y-91976169D01*
X113909714Y-92044267D01*
X113912148Y-92137588D01*
X113920606Y-92207657D01*
X113936826Y-92259931D01*
X113962546Y-92299869D01*
X113999503Y-92332929D01*
X114002218Y-92334886D01*
X114038640Y-92354908D01*
X114082498Y-92364815D01*
X114138276Y-92367257D01*
X114228952Y-92367257D01*
X114228990Y-92455283D01*
X114229834Y-92504308D01*
X114234976Y-92533065D01*
X114248413Y-92550311D01*
X114274142Y-92564808D01*
X114280321Y-92567769D01*
X114309236Y-92581648D01*
X114331624Y-92590414D01*
X114348271Y-92591171D01*
X114359964Y-92581023D01*
X114367490Y-92557073D01*
X114371634Y-92516426D01*
X114373185Y-92456186D01*
X114372929Y-92373455D01*
X114371651Y-92265339D01*
X114371252Y-92233000D01*
X114369815Y-92121524D01*
X114368528Y-92048603D01*
X114229029Y-92048603D01*
X114228245Y-92110499D01*
X114224760Y-92150997D01*
X114216876Y-92177708D01*
X114202895Y-92198244D01*
X114193403Y-92208260D01*
X114154596Y-92237567D01*
X114120237Y-92239952D01*
X114084784Y-92215750D01*
X114083886Y-92214857D01*
X114069461Y-92196153D01*
X114060687Y-92170732D01*
X114056261Y-92131584D01*
X114054882Y-92071697D01*
X114054857Y-92058430D01*
X114058188Y-91975901D01*
X114069031Y-91918691D01*
X114088660Y-91883766D01*
X114118350Y-91868094D01*
X114135509Y-91866514D01*
X114176234Y-91873926D01*
X114204168Y-91898330D01*
X114220983Y-91942980D01*
X114228350Y-92011130D01*
X114229029Y-92048603D01*
X114368528Y-92048603D01*
X114368292Y-92035245D01*
X114366323Y-91970333D01*
X114363550Y-91922958D01*
X114359612Y-91889290D01*
X114354151Y-91865498D01*
X114346808Y-91847753D01*
X114337223Y-91832224D01*
X114333113Y-91826381D01*
X114278595Y-91771185D01*
X114209664Y-91739890D01*
X114129928Y-91731165D01*
X114060256Y-91739918D01*
G36*
X112943907Y-91747780D02*
X112897328Y-91774723D01*
X112864943Y-91801466D01*
X112841258Y-91829484D01*
X112824941Y-91863748D01*
X112814661Y-91909227D01*
X112809086Y-91970892D01*
X112806884Y-92053711D01*
X112806629Y-92113246D01*
X112806629Y-92332391D01*
X112868314Y-92360044D01*
X112930000Y-92387697D01*
X112937257Y-92147670D01*
X112940256Y-92058028D01*
X112943402Y-91992962D01*
X112947299Y-91948026D01*
X112952553Y-91918770D01*
X112959769Y-91900748D01*
X112969550Y-91889511D01*
X112972688Y-91887079D01*
X113020239Y-91868083D01*
X113068303Y-91875600D01*
X113096914Y-91895543D01*
X113108553Y-91909675D01*
X113116609Y-91928220D01*
X113121729Y-91956334D01*
X113124559Y-91999173D01*
X113125744Y-92061895D01*
X113125943Y-92127261D01*
X113125982Y-92209268D01*
X113127386Y-92267316D01*
X113132086Y-92306465D01*
X113142013Y-92331780D01*
X113159097Y-92348323D01*
X113185268Y-92361156D01*
X113220225Y-92374491D01*
X113258404Y-92389007D01*
X113253859Y-92131389D01*
X113252029Y-92038519D01*
X113249888Y-91969889D01*
X113246819Y-91920711D01*
X113242206Y-91886198D01*
X113235432Y-91861562D01*
X113225881Y-91842016D01*
X113214366Y-91824770D01*
X113158810Y-91769680D01*
X113091020Y-91737822D01*
X113017287Y-91730191D01*
X112943907Y-91747780D01*
X112943907Y-91747780D01*
G37*
X112943907Y-91747780D02*
X112897328Y-91774723D01*
X112864943Y-91801466D01*
X112841258Y-91829484D01*
X112824941Y-91863748D01*
X112814661Y-91909227D01*
X112809086Y-91970892D01*
X112806884Y-92053711D01*
X112806629Y-92113246D01*
X112806629Y-92332391D01*
X112868314Y-92360044D01*
X112930000Y-92387697D01*
X112937257Y-92147670D01*
X112940256Y-92058028D01*
X112943402Y-91992962D01*
X112947299Y-91948026D01*
X112952553Y-91918770D01*
X112959769Y-91900748D01*
X112969550Y-91889511D01*
X112972688Y-91887079D01*
X113020239Y-91868083D01*
X113068303Y-91875600D01*
X113096914Y-91895543D01*
X113108553Y-91909675D01*
X113116609Y-91928220D01*
X113121729Y-91956334D01*
X113124559Y-91999173D01*
X113125744Y-92061895D01*
X113125943Y-92127261D01*
X113125982Y-92209268D01*
X113127386Y-92267316D01*
X113132086Y-92306465D01*
X113142013Y-92331780D01*
X113159097Y-92348323D01*
X113185268Y-92361156D01*
X113220225Y-92374491D01*
X113258404Y-92389007D01*
X113253859Y-92131389D01*
X113252029Y-92038519D01*
X113249888Y-91969889D01*
X113246819Y-91920711D01*
X113242206Y-91886198D01*
X113235432Y-91861562D01*
X113225881Y-91842016D01*
X113214366Y-91824770D01*
X113158810Y-91769680D01*
X113091020Y-91737822D01*
X113017287Y-91730191D01*
X112943907Y-91747780D01*
G36*
X114618885Y-91741962D02*
X114550855Y-91777733D01*
X114500649Y-91835301D01*
X114482815Y-91872312D01*
X114468937Y-91927882D01*
X114461833Y-91998096D01*
X114461160Y-92074727D01*
X114466573Y-92149552D01*
X114477730Y-92214342D01*
X114494286Y-92260873D01*
X114499374Y-92268887D01*
X114559645Y-92328707D01*
X114631231Y-92364535D01*
X114708908Y-92375020D01*
X114787452Y-92358810D01*
X114809311Y-92349092D01*
X114851878Y-92319143D01*
X114889237Y-92279433D01*
X114892768Y-92274397D01*
X114907119Y-92250124D01*
X114916606Y-92224178D01*
X114922210Y-92190022D01*
X114924914Y-92141119D01*
X114925701Y-92070935D01*
X114925714Y-92055200D01*
X114925678Y-92050192D01*
X114780571Y-92050192D01*
X114779727Y-92116430D01*
X114776404Y-92160386D01*
X114769417Y-92188779D01*
X114757584Y-92208325D01*
X114751543Y-92214857D01*
X114716814Y-92239680D01*
X114683097Y-92238548D01*
X114649005Y-92217016D01*
X114628671Y-92194029D01*
X114616629Y-92160478D01*
X114609866Y-92107569D01*
X114609402Y-92101399D01*
X114608248Y-92005513D01*
X114620312Y-91934299D01*
X114645430Y-91888194D01*
X114683440Y-91867635D01*
X114697008Y-91866514D01*
X114732636Y-91872152D01*
X114757006Y-91891686D01*
X114771907Y-91929042D01*
X114779125Y-91988150D01*
X114780571Y-92050192D01*
X114925678Y-92050192D01*
X114925174Y-91980413D01*
X114922904Y-91928159D01*
X114917932Y-91891949D01*
X114909287Y-91865299D01*
X114895995Y-91841722D01*
X114893057Y-91837338D01*
X114843687Y-91778249D01*
X114789891Y-91743947D01*
X114724398Y-91730331D01*
X114702158Y-91729665D01*
X114618885Y-91741962D01*
X114618885Y-91741962D01*
G37*
X114618885Y-91741962D02*
X114550855Y-91777733D01*
X114500649Y-91835301D01*
X114482815Y-91872312D01*
X114468937Y-91927882D01*
X114461833Y-91998096D01*
X114461160Y-92074727D01*
X114466573Y-92149552D01*
X114477730Y-92214342D01*
X114494286Y-92260873D01*
X114499374Y-92268887D01*
X114559645Y-92328707D01*
X114631231Y-92364535D01*
X114708908Y-92375020D01*
X114787452Y-92358810D01*
X114809311Y-92349092D01*
X114851878Y-92319143D01*
X114889237Y-92279433D01*
X114892768Y-92274397D01*
X114907119Y-92250124D01*
X114916606Y-92224178D01*
X114922210Y-92190022D01*
X114924914Y-92141119D01*
X114925701Y-92070935D01*
X114925714Y-92055200D01*
X114925678Y-92050192D01*
X114780571Y-92050192D01*
X114779727Y-92116430D01*
X114776404Y-92160386D01*
X114769417Y-92188779D01*
X114757584Y-92208325D01*
X114751543Y-92214857D01*
X114716814Y-92239680D01*
X114683097Y-92238548D01*
X114649005Y-92217016D01*
X114628671Y-92194029D01*
X114616629Y-92160478D01*
X114609866Y-92107569D01*
X114609402Y-92101399D01*
X114608248Y-92005513D01*
X114620312Y-91934299D01*
X114645430Y-91888194D01*
X114683440Y-91867635D01*
X114697008Y-91866514D01*
X114732636Y-91872152D01*
X114757006Y-91891686D01*
X114771907Y-91929042D01*
X114779125Y-91988150D01*
X114780571Y-92050192D01*
X114925678Y-92050192D01*
X114925174Y-91980413D01*
X114922904Y-91928159D01*
X114917932Y-91891949D01*
X114909287Y-91865299D01*
X114895995Y-91841722D01*
X114893057Y-91837338D01*
X114843687Y-91778249D01*
X114789891Y-91743947D01*
X114724398Y-91730331D01*
X114702158Y-91729665D01*
X114618885Y-91741962D01*
G36*
X113491697Y-91751239D02*
X113434473Y-91789735D01*
X113390251Y-91845335D01*
X113363833Y-91916086D01*
X113358490Y-91968162D01*
X113359097Y-91989893D01*
X113364178Y-92006531D01*
X113378145Y-92021437D01*
X113405411Y-92037973D01*
X113450388Y-92059498D01*
X113517489Y-92089374D01*
X113517829Y-92089524D01*
X113579593Y-92117813D01*
X113630241Y-92142933D01*
X113664596Y-92162179D01*
X113677482Y-92172848D01*
X113677486Y-92172934D01*
X113666128Y-92196166D01*
X113639569Y-92221774D01*
X113609077Y-92240221D01*
X113593630Y-92243886D01*
X113551485Y-92231212D01*
X113515192Y-92199471D01*
X113497483Y-92164572D01*
X113480448Y-92138845D01*
X113447078Y-92109546D01*
X113407851Y-92084235D01*
X113373244Y-92070471D01*
X113366007Y-92069714D01*
X113357861Y-92082160D01*
X113357370Y-92113972D01*
X113363357Y-92156866D01*
X113374643Y-92202558D01*
X113390050Y-92242761D01*
X113390829Y-92244322D01*
X113437196Y-92309062D01*
X113497289Y-92353097D01*
X113565535Y-92374711D01*
X113636362Y-92372185D01*
X113704196Y-92343804D01*
X113707212Y-92341808D01*
X113760573Y-92293448D01*
X113795660Y-92230352D01*
X113815078Y-92147387D01*
X113817684Y-92124078D01*
X113822299Y-92014055D01*
X113816767Y-91962748D01*
X113677486Y-91962748D01*
X113675676Y-91994753D01*
X113665778Y-92004093D01*
X113641102Y-91997105D01*
X113602205Y-91980587D01*
X113558725Y-91959881D01*
X113557644Y-91959333D01*
X113520791Y-91939949D01*
X113506000Y-91927013D01*
X113509647Y-91913451D01*
X113525005Y-91895632D01*
X113564077Y-91869845D01*
X113606154Y-91867950D01*
X113643897Y-91886717D01*
X113669966Y-91922915D01*
X113677486Y-91962748D01*
X113816767Y-91962748D01*
X113812806Y-91926027D01*
X113788450Y-91856212D01*
X113754544Y-91807302D01*
X113693347Y-91757878D01*
X113625937Y-91733359D01*
X113557120Y-91731797D01*
X113491697Y-91751239D01*
X113491697Y-91751239D01*
G37*
X113491697Y-91751239D02*
X113434473Y-91789735D01*
X113390251Y-91845335D01*
X113363833Y-91916086D01*
X113358490Y-91968162D01*
X113359097Y-91989893D01*
X113364178Y-92006531D01*
X113378145Y-92021437D01*
X113405411Y-92037973D01*
X113450388Y-92059498D01*
X113517489Y-92089374D01*
X113517829Y-92089524D01*
X113579593Y-92117813D01*
X113630241Y-92142933D01*
X113664596Y-92162179D01*
X113677482Y-92172848D01*
X113677486Y-92172934D01*
X113666128Y-92196166D01*
X113639569Y-92221774D01*
X113609077Y-92240221D01*
X113593630Y-92243886D01*
X113551485Y-92231212D01*
X113515192Y-92199471D01*
X113497483Y-92164572D01*
X113480448Y-92138845D01*
X113447078Y-92109546D01*
X113407851Y-92084235D01*
X113373244Y-92070471D01*
X113366007Y-92069714D01*
X113357861Y-92082160D01*
X113357370Y-92113972D01*
X113363357Y-92156866D01*
X113374643Y-92202558D01*
X113390050Y-92242761D01*
X113390829Y-92244322D01*
X113437196Y-92309062D01*
X113497289Y-92353097D01*
X113565535Y-92374711D01*
X113636362Y-92372185D01*
X113704196Y-92343804D01*
X113707212Y-92341808D01*
X113760573Y-92293448D01*
X113795660Y-92230352D01*
X113815078Y-92147387D01*
X113817684Y-92124078D01*
X113822299Y-92014055D01*
X113816767Y-91962748D01*
X113677486Y-91962748D01*
X113675676Y-91994753D01*
X113665778Y-92004093D01*
X113641102Y-91997105D01*
X113602205Y-91980587D01*
X113558725Y-91959881D01*
X113557644Y-91959333D01*
X113520791Y-91939949D01*
X113506000Y-91927013D01*
X113509647Y-91913451D01*
X113525005Y-91895632D01*
X113564077Y-91869845D01*
X113606154Y-91867950D01*
X113643897Y-91886717D01*
X113669966Y-91922915D01*
X113677486Y-91962748D01*
X113816767Y-91962748D01*
X113812806Y-91926027D01*
X113788450Y-91856212D01*
X113754544Y-91807302D01*
X113693347Y-91757878D01*
X113625937Y-91733359D01*
X113557120Y-91731797D01*
X113491697Y-91751239D01*
G36*
X112284114Y-91671289D02*
X112279861Y-91730613D01*
X112274975Y-91765572D01*
X112268205Y-91780820D01*
X112258298Y-91781015D01*
X112255086Y-91779195D01*
X112212356Y-91766015D01*
X112156773Y-91766785D01*
X112100263Y-91780333D01*
X112064918Y-91797861D01*
X112028679Y-91825861D01*
X112002187Y-91857549D01*
X111984001Y-91897813D01*
X111972678Y-91951543D01*
X111966778Y-92023626D01*
X111964857Y-92118951D01*
X111964823Y-92137237D01*
X111964800Y-92342646D01*
X112010509Y-92358580D01*
X112042973Y-92369420D01*
X112060785Y-92374468D01*
X112061309Y-92374514D01*
X112063063Y-92360828D01*
X112064556Y-92323076D01*
X112065674Y-92266224D01*
X112066303Y-92195234D01*
X112066400Y-92152073D01*
X112066602Y-92066973D01*
X112067642Y-92005981D01*
X112070169Y-91964177D01*
X112074836Y-91936642D01*
X112082293Y-91918456D01*
X112093189Y-91904698D01*
X112099993Y-91898073D01*
X112146728Y-91871375D01*
X112197728Y-91869375D01*
X112243999Y-91891955D01*
X112252556Y-91900107D01*
X112265107Y-91915436D01*
X112273812Y-91933618D01*
X112279369Y-91959909D01*
X112282474Y-91999562D01*
X112283824Y-92057832D01*
X112284114Y-92138173D01*
X112284114Y-92342646D01*
X112329823Y-92358580D01*
X112362287Y-92369420D01*
X112380099Y-92374468D01*
X112380623Y-92374514D01*
X112381963Y-92360623D01*
X112383172Y-92321439D01*
X112384199Y-92260700D01*
X112384998Y-92182141D01*
X112385519Y-92089498D01*
X112385714Y-91986509D01*
X112385714Y-91589342D01*
X112338543Y-91569444D01*
X112291371Y-91549547D01*
X112284114Y-91671289D01*
X112284114Y-91671289D01*
G37*
X112284114Y-91671289D02*
X112279861Y-91730613D01*
X112274975Y-91765572D01*
X112268205Y-91780820D01*
X112258298Y-91781015D01*
X112255086Y-91779195D01*
X112212356Y-91766015D01*
X112156773Y-91766785D01*
X112100263Y-91780333D01*
X112064918Y-91797861D01*
X112028679Y-91825861D01*
X112002187Y-91857549D01*
X111984001Y-91897813D01*
X111972678Y-91951543D01*
X111966778Y-92023626D01*
X111964857Y-92118951D01*
X111964823Y-92137237D01*
X111964800Y-92342646D01*
X112010509Y-92358580D01*
X112042973Y-92369420D01*
X112060785Y-92374468D01*
X112061309Y-92374514D01*
X112063063Y-92360828D01*
X112064556Y-92323076D01*
X112065674Y-92266224D01*
X112066303Y-92195234D01*
X112066400Y-92152073D01*
X112066602Y-92066973D01*
X112067642Y-92005981D01*
X112070169Y-91964177D01*
X112074836Y-91936642D01*
X112082293Y-91918456D01*
X112093189Y-91904698D01*
X112099993Y-91898073D01*
X112146728Y-91871375D01*
X112197728Y-91869375D01*
X112243999Y-91891955D01*
X112252556Y-91900107D01*
X112265107Y-91915436D01*
X112273812Y-91933618D01*
X112279369Y-91959909D01*
X112282474Y-91999562D01*
X112283824Y-92057832D01*
X112284114Y-92138173D01*
X112284114Y-92342646D01*
X112329823Y-92358580D01*
X112362287Y-92369420D01*
X112380099Y-92374468D01*
X112380623Y-92374514D01*
X112381963Y-92360623D01*
X112383172Y-92321439D01*
X112384199Y-92260700D01*
X112384998Y-92182141D01*
X112385519Y-92089498D01*
X112385714Y-91986509D01*
X112385714Y-91589342D01*
X112338543Y-91569444D01*
X112291371Y-91549547D01*
X112284114Y-91671289D01*
G36*
X111620256Y-91770968D02*
X111563384Y-91792087D01*
X111562733Y-91792493D01*
X111527560Y-91818380D01*
X111501593Y-91848633D01*
X111483330Y-91888058D01*
X111471268Y-91941462D01*
X111463904Y-92013651D01*
X111459736Y-92109432D01*
X111459371Y-92123078D01*
X111454124Y-92328842D01*
X111498284Y-92351678D01*
X111530237Y-92367110D01*
X111549530Y-92374423D01*
X111550422Y-92374514D01*
X111553761Y-92361022D01*
X111556413Y-92324626D01*
X111558044Y-92271452D01*
X111558400Y-92228393D01*
X111558408Y-92158641D01*
X111561597Y-92114837D01*
X111572712Y-92093944D01*
X111596499Y-92092925D01*
X111637704Y-92108741D01*
X111699914Y-92137815D01*
X111745659Y-92161963D01*
X111769187Y-92182913D01*
X111776104Y-92205747D01*
X111776114Y-92206877D01*
X111764701Y-92246212D01*
X111730908Y-92267462D01*
X111679191Y-92270539D01*
X111641939Y-92270006D01*
X111622297Y-92280735D01*
X111610048Y-92306505D01*
X111602998Y-92339337D01*
X111613158Y-92357966D01*
X111616983Y-92360632D01*
X111652999Y-92371340D01*
X111703434Y-92372856D01*
X111755374Y-92365759D01*
X111792178Y-92352788D01*
X111843062Y-92309585D01*
X111871986Y-92249446D01*
X111877714Y-92202462D01*
X111873343Y-92160082D01*
X111857525Y-92125488D01*
X111826203Y-92094763D01*
X111775322Y-92063990D01*
X111700824Y-92029252D01*
X111696286Y-92027288D01*
X111629179Y-91996287D01*
X111587768Y-91970862D01*
X111570019Y-91948014D01*
X111573893Y-91924745D01*
X111597357Y-91898056D01*
X111604373Y-91891914D01*
X111651370Y-91868100D01*
X111700067Y-91869103D01*
X111742478Y-91892451D01*
X111770616Y-91935675D01*
X111773231Y-91944160D01*
X111798692Y-91985308D01*
X111830999Y-92005128D01*
X111877714Y-92024770D01*
X111877714Y-91973950D01*
X111863504Y-91900082D01*
X111821325Y-91832327D01*
X111799376Y-91809661D01*
X111749483Y-91780569D01*
X111686033Y-91767400D01*
X111620256Y-91770968D01*
X111620256Y-91770968D01*
G37*
X111620256Y-91770968D02*
X111563384Y-91792087D01*
X111562733Y-91792493D01*
X111527560Y-91818380D01*
X111501593Y-91848633D01*
X111483330Y-91888058D01*
X111471268Y-91941462D01*
X111463904Y-92013651D01*
X111459736Y-92109432D01*
X111459371Y-92123078D01*
X111454124Y-92328842D01*
X111498284Y-92351678D01*
X111530237Y-92367110D01*
X111549530Y-92374423D01*
X111550422Y-92374514D01*
X111553761Y-92361022D01*
X111556413Y-92324626D01*
X111558044Y-92271452D01*
X111558400Y-92228393D01*
X111558408Y-92158641D01*
X111561597Y-92114837D01*
X111572712Y-92093944D01*
X111596499Y-92092925D01*
X111637704Y-92108741D01*
X111699914Y-92137815D01*
X111745659Y-92161963D01*
X111769187Y-92182913D01*
X111776104Y-92205747D01*
X111776114Y-92206877D01*
X111764701Y-92246212D01*
X111730908Y-92267462D01*
X111679191Y-92270539D01*
X111641939Y-92270006D01*
X111622297Y-92280735D01*
X111610048Y-92306505D01*
X111602998Y-92339337D01*
X111613158Y-92357966D01*
X111616983Y-92360632D01*
X111652999Y-92371340D01*
X111703434Y-92372856D01*
X111755374Y-92365759D01*
X111792178Y-92352788D01*
X111843062Y-92309585D01*
X111871986Y-92249446D01*
X111877714Y-92202462D01*
X111873343Y-92160082D01*
X111857525Y-92125488D01*
X111826203Y-92094763D01*
X111775322Y-92063990D01*
X111700824Y-92029252D01*
X111696286Y-92027288D01*
X111629179Y-91996287D01*
X111587768Y-91970862D01*
X111570019Y-91948014D01*
X111573893Y-91924745D01*
X111597357Y-91898056D01*
X111604373Y-91891914D01*
X111651370Y-91868100D01*
X111700067Y-91869103D01*
X111742478Y-91892451D01*
X111770616Y-91935675D01*
X111773231Y-91944160D01*
X111798692Y-91985308D01*
X111830999Y-92005128D01*
X111877714Y-92024770D01*
X111877714Y-91973950D01*
X111863504Y-91900082D01*
X111821325Y-91832327D01*
X111799376Y-91809661D01*
X111749483Y-91780569D01*
X111686033Y-91767400D01*
X111620256Y-91770968D01*
G36*
X111130074Y-91769755D02*
X111064142Y-91794084D01*
X111010727Y-91837117D01*
X110989836Y-91867409D01*
X110967061Y-91922994D01*
X110967534Y-91963186D01*
X110991438Y-91990217D01*
X111000283Y-91994813D01*
X111038470Y-92009144D01*
X111057972Y-92005472D01*
X111064578Y-91981407D01*
X111064914Y-91968114D01*
X111077008Y-91919210D01*
X111108529Y-91884999D01*
X111152341Y-91868476D01*
X111201305Y-91872634D01*
X111241106Y-91894227D01*
X111254550Y-91906544D01*
X111264079Y-91921487D01*
X111270515Y-91944075D01*
X111274683Y-91979328D01*
X111277403Y-92032266D01*
X111279498Y-92107907D01*
X111280040Y-92131857D01*
X111282019Y-92213790D01*
X111284269Y-92271455D01*
X111287643Y-92309608D01*
X111292994Y-92333004D01*
X111301176Y-92346398D01*
X111313041Y-92354545D01*
X111320638Y-92358144D01*
X111352898Y-92370452D01*
X111371889Y-92374514D01*
X111378164Y-92360948D01*
X111381994Y-92319934D01*
X111383400Y-92250999D01*
X111382402Y-92153669D01*
X111382092Y-92138657D01*
X111379899Y-92049859D01*
X111377307Y-91985019D01*
X111373618Y-91939067D01*
X111368136Y-91906935D01*
X111360165Y-91883553D01*
X111349007Y-91863852D01*
X111343170Y-91855410D01*
X111309704Y-91818057D01*
X111272273Y-91789003D01*
X111267691Y-91786467D01*
X111200574Y-91766443D01*
X111130074Y-91769755D01*
X111130074Y-91769755D01*
G37*
X111130074Y-91769755D02*
X111064142Y-91794084D01*
X111010727Y-91837117D01*
X110989836Y-91867409D01*
X110967061Y-91922994D01*
X110967534Y-91963186D01*
X110991438Y-91990217D01*
X111000283Y-91994813D01*
X111038470Y-92009144D01*
X111057972Y-92005472D01*
X111064578Y-91981407D01*
X111064914Y-91968114D01*
X111077008Y-91919210D01*
X111108529Y-91884999D01*
X111152341Y-91868476D01*
X111201305Y-91872634D01*
X111241106Y-91894227D01*
X111254550Y-91906544D01*
X111264079Y-91921487D01*
X111270515Y-91944075D01*
X111274683Y-91979328D01*
X111277403Y-92032266D01*
X111279498Y-92107907D01*
X111280040Y-92131857D01*
X111282019Y-92213790D01*
X111284269Y-92271455D01*
X111287643Y-92309608D01*
X111292994Y-92333004D01*
X111301176Y-92346398D01*
X111313041Y-92354545D01*
X111320638Y-92358144D01*
X111352898Y-92370452D01*
X111371889Y-92374514D01*
X111378164Y-92360948D01*
X111381994Y-92319934D01*
X111383400Y-92250999D01*
X111382402Y-92153669D01*
X111382092Y-92138657D01*
X111379899Y-92049859D01*
X111377307Y-91985019D01*
X111373618Y-91939067D01*
X111368136Y-91906935D01*
X111360165Y-91883553D01*
X111349007Y-91863852D01*
X111343170Y-91855410D01*
X111309704Y-91818057D01*
X111272273Y-91789003D01*
X111267691Y-91786467D01*
X111200574Y-91766443D01*
X111130074Y-91769755D01*
G36*
X110469883Y-91885358D02*
X110470067Y-91993837D01*
X110470781Y-92077287D01*
X110472325Y-92139704D01*
X110474999Y-92185085D01*
X110479106Y-92217429D01*
X110484945Y-92240733D01*
X110492818Y-92258995D01*
X110498779Y-92269418D01*
X110548145Y-92325945D01*
X110610736Y-92361377D01*
X110679987Y-92374090D01*
X110749332Y-92362463D01*
X110790625Y-92341568D01*
X110833975Y-92305422D01*
X110863519Y-92261276D01*
X110881345Y-92203462D01*
X110889537Y-92126313D01*
X110890698Y-92069714D01*
X110890542Y-92065647D01*
X110789143Y-92065647D01*
X110788524Y-92130550D01*
X110785686Y-92173514D01*
X110779160Y-92201622D01*
X110767477Y-92221953D01*
X110753517Y-92237288D01*
X110706635Y-92266890D01*
X110656299Y-92269419D01*
X110608724Y-92244705D01*
X110605021Y-92241356D01*
X110589217Y-92223935D01*
X110579307Y-92203209D01*
X110573942Y-92172362D01*
X110571772Y-92124577D01*
X110571429Y-92071748D01*
X110572173Y-92005381D01*
X110575252Y-91961106D01*
X110581939Y-91932009D01*
X110593504Y-91911173D01*
X110602987Y-91900107D01*
X110647040Y-91872198D01*
X110697776Y-91868843D01*
X110746204Y-91890159D01*
X110755550Y-91898073D01*
X110771460Y-91915647D01*
X110781390Y-91936587D01*
X110786722Y-91967782D01*
X110788837Y-92016122D01*
X110789143Y-92065647D01*
X110890542Y-92065647D01*
X110887190Y-91978568D01*
X110875274Y-91910086D01*
X110852865Y-91858600D01*
X110817876Y-91818443D01*
X110790625Y-91797861D01*
X110741093Y-91775625D01*
X110683684Y-91765304D01*
X110630318Y-91768067D01*
X110600457Y-91779212D01*
X110588739Y-91782383D01*
X110580963Y-91770557D01*
X110575535Y-91738866D01*
X110571429Y-91690593D01*
X110566933Y-91636829D01*
X110560687Y-91604482D01*
X110549324Y-91585985D01*
X110529472Y-91573770D01*
X110517000Y-91568362D01*
X110469829Y-91548601D01*
X110469883Y-91885358D01*
X110469883Y-91885358D01*
G37*
X110469883Y-91885358D02*
X110470067Y-91993837D01*
X110470781Y-92077287D01*
X110472325Y-92139704D01*
X110474999Y-92185085D01*
X110479106Y-92217429D01*
X110484945Y-92240733D01*
X110492818Y-92258995D01*
X110498779Y-92269418D01*
X110548145Y-92325945D01*
X110610736Y-92361377D01*
X110679987Y-92374090D01*
X110749332Y-92362463D01*
X110790625Y-92341568D01*
X110833975Y-92305422D01*
X110863519Y-92261276D01*
X110881345Y-92203462D01*
X110889537Y-92126313D01*
X110890698Y-92069714D01*
X110890542Y-92065647D01*
X110789143Y-92065647D01*
X110788524Y-92130550D01*
X110785686Y-92173514D01*
X110779160Y-92201622D01*
X110767477Y-92221953D01*
X110753517Y-92237288D01*
X110706635Y-92266890D01*
X110656299Y-92269419D01*
X110608724Y-92244705D01*
X110605021Y-92241356D01*
X110589217Y-92223935D01*
X110579307Y-92203209D01*
X110573942Y-92172362D01*
X110571772Y-92124577D01*
X110571429Y-92071748D01*
X110572173Y-92005381D01*
X110575252Y-91961106D01*
X110581939Y-91932009D01*
X110593504Y-91911173D01*
X110602987Y-91900107D01*
X110647040Y-91872198D01*
X110697776Y-91868843D01*
X110746204Y-91890159D01*
X110755550Y-91898073D01*
X110771460Y-91915647D01*
X110781390Y-91936587D01*
X110786722Y-91967782D01*
X110788837Y-92016122D01*
X110789143Y-92065647D01*
X110890542Y-92065647D01*
X110887190Y-91978568D01*
X110875274Y-91910086D01*
X110852865Y-91858600D01*
X110817876Y-91818443D01*
X110790625Y-91797861D01*
X110741093Y-91775625D01*
X110683684Y-91765304D01*
X110630318Y-91768067D01*
X110600457Y-91779212D01*
X110588739Y-91782383D01*
X110580963Y-91770557D01*
X110575535Y-91738866D01*
X110571429Y-91690593D01*
X110566933Y-91636829D01*
X110560687Y-91604482D01*
X110549324Y-91585985D01*
X110529472Y-91573770D01*
X110517000Y-91568362D01*
X110469829Y-91548601D01*
X110469883Y-91885358D01*
G36*
X109880167Y-91778663D02*
X109877952Y-91816850D01*
X109876216Y-91874886D01*
X109875101Y-91948180D01*
X109874743Y-92025055D01*
X109874743Y-92285196D01*
X109920674Y-92331127D01*
X109952325Y-92359429D01*
X109980110Y-92370893D01*
X110018085Y-92370168D01*
X110033160Y-92368321D01*
X110080274Y-92362948D01*
X110119244Y-92359869D01*
X110128743Y-92359585D01*
X110160767Y-92361445D01*
X110206568Y-92366114D01*
X110224326Y-92368321D01*
X110267943Y-92371735D01*
X110297255Y-92364320D01*
X110326320Y-92341427D01*
X110336812Y-92331127D01*
X110382743Y-92285196D01*
X110382743Y-91798602D01*
X110345774Y-91781758D01*
X110313941Y-91769282D01*
X110295317Y-91764914D01*
X110290542Y-91778718D01*
X110286079Y-91817286D01*
X110282225Y-91876356D01*
X110279278Y-91951663D01*
X110277857Y-92015286D01*
X110273886Y-92265657D01*
X110239241Y-92270556D01*
X110207732Y-92267131D01*
X110192292Y-92256041D01*
X110187977Y-92235308D01*
X110184292Y-92191145D01*
X110181531Y-92129146D01*
X110179988Y-92054909D01*
X110179765Y-92016706D01*
X110179543Y-91796783D01*
X110133834Y-91780849D01*
X110101482Y-91770015D01*
X110083885Y-91764962D01*
X110083377Y-91764914D01*
X110081612Y-91778648D01*
X110079671Y-91816730D01*
X110077718Y-91874482D01*
X110075916Y-91947227D01*
X110074657Y-92015286D01*
X110070686Y-92265657D01*
X109983600Y-92265657D01*
X109979604Y-92037240D01*
X109975608Y-91808822D01*
X109933153Y-91786868D01*
X109901808Y-91771793D01*
X109883256Y-91764951D01*
X109882721Y-91764914D01*
X109880167Y-91778663D01*
X109880167Y-91778663D01*
G37*
X109880167Y-91778663D02*
X109877952Y-91816850D01*
X109876216Y-91874886D01*
X109875101Y-91948180D01*
X109874743Y-92025055D01*
X109874743Y-92285196D01*
X109920674Y-92331127D01*
X109952325Y-92359429D01*
X109980110Y-92370893D01*
X110018085Y-92370168D01*
X110033160Y-92368321D01*
X110080274Y-92362948D01*
X110119244Y-92359869D01*
X110128743Y-92359585D01*
X110160767Y-92361445D01*
X110206568Y-92366114D01*
X110224326Y-92368321D01*
X110267943Y-92371735D01*
X110297255Y-92364320D01*
X110326320Y-92341427D01*
X110336812Y-92331127D01*
X110382743Y-92285196D01*
X110382743Y-91798602D01*
X110345774Y-91781758D01*
X110313941Y-91769282D01*
X110295317Y-91764914D01*
X110290542Y-91778718D01*
X110286079Y-91817286D01*
X110282225Y-91876356D01*
X110279278Y-91951663D01*
X110277857Y-92015286D01*
X110273886Y-92265657D01*
X110239241Y-92270556D01*
X110207732Y-92267131D01*
X110192292Y-92256041D01*
X110187977Y-92235308D01*
X110184292Y-92191145D01*
X110181531Y-92129146D01*
X110179988Y-92054909D01*
X110179765Y-92016706D01*
X110179543Y-91796783D01*
X110133834Y-91780849D01*
X110101482Y-91770015D01*
X110083885Y-91764962D01*
X110083377Y-91764914D01*
X110081612Y-91778648D01*
X110079671Y-91816730D01*
X110077718Y-91874482D01*
X110075916Y-91947227D01*
X110074657Y-92015286D01*
X110070686Y-92265657D01*
X109983600Y-92265657D01*
X109979604Y-92037240D01*
X109975608Y-91808822D01*
X109933153Y-91786868D01*
X109901808Y-91771793D01*
X109883256Y-91764951D01*
X109882721Y-91764914D01*
X109880167Y-91778663D01*
G36*
X109515124Y-91776335D02*
X109473333Y-91795344D01*
X109440531Y-91818378D01*
X109416497Y-91844133D01*
X109399903Y-91877358D01*
X109389423Y-91922800D01*
X109383729Y-91985207D01*
X109381493Y-92069327D01*
X109381257Y-92124721D01*
X109381257Y-92340826D01*
X109418226Y-92357670D01*
X109447344Y-92369981D01*
X109461769Y-92374514D01*
X109464528Y-92361025D01*
X109466718Y-92324653D01*
X109468058Y-92271542D01*
X109468343Y-92229372D01*
X109469566Y-92168447D01*
X109472864Y-92120115D01*
X109477679Y-92090518D01*
X109481504Y-92084229D01*
X109507217Y-92090652D01*
X109547582Y-92107125D01*
X109594321Y-92129458D01*
X109639155Y-92153457D01*
X109673807Y-92174930D01*
X109689998Y-92189685D01*
X109690062Y-92189845D01*
X109688670Y-92217152D01*
X109676182Y-92243219D01*
X109654257Y-92264392D01*
X109622257Y-92271474D01*
X109594908Y-92270649D01*
X109556174Y-92270042D01*
X109535842Y-92279116D01*
X109523631Y-92303092D01*
X109522091Y-92307613D01*
X109516797Y-92341806D01*
X109530953Y-92362568D01*
X109567852Y-92372462D01*
X109607711Y-92374292D01*
X109679438Y-92360727D01*
X109716568Y-92341355D01*
X109762424Y-92295845D01*
X109786744Y-92239983D01*
X109788927Y-92180957D01*
X109768371Y-92125953D01*
X109737451Y-92091486D01*
X109706580Y-92072189D01*
X109658058Y-92047759D01*
X109601515Y-92022985D01*
X109592090Y-92019199D01*
X109529981Y-91991791D01*
X109494178Y-91967634D01*
X109482663Y-91943619D01*
X109493420Y-91916635D01*
X109511886Y-91895543D01*
X109555531Y-91869572D01*
X109603554Y-91867624D01*
X109647594Y-91887637D01*
X109679291Y-91927551D01*
X109683451Y-91937848D01*
X109707673Y-91975724D01*
X109743035Y-92003842D01*
X109787657Y-92026917D01*
X109787657Y-91961485D01*
X109785031Y-91921506D01*
X109773770Y-91889997D01*
X109748801Y-91856378D01*
X109724831Y-91830484D01*
X109687559Y-91793817D01*
X109658599Y-91774121D01*
X109627495Y-91766220D01*
X109592287Y-91764914D01*
X109515124Y-91776335D01*
X109515124Y-91776335D01*
G37*
X109515124Y-91776335D02*
X109473333Y-91795344D01*
X109440531Y-91818378D01*
X109416497Y-91844133D01*
X109399903Y-91877358D01*
X109389423Y-91922800D01*
X109383729Y-91985207D01*
X109381493Y-92069327D01*
X109381257Y-92124721D01*
X109381257Y-92340826D01*
X109418226Y-92357670D01*
X109447344Y-92369981D01*
X109461769Y-92374514D01*
X109464528Y-92361025D01*
X109466718Y-92324653D01*
X109468058Y-92271542D01*
X109468343Y-92229372D01*
X109469566Y-92168447D01*
X109472864Y-92120115D01*
X109477679Y-92090518D01*
X109481504Y-92084229D01*
X109507217Y-92090652D01*
X109547582Y-92107125D01*
X109594321Y-92129458D01*
X109639155Y-92153457D01*
X109673807Y-92174930D01*
X109689998Y-92189685D01*
X109690062Y-92189845D01*
X109688670Y-92217152D01*
X109676182Y-92243219D01*
X109654257Y-92264392D01*
X109622257Y-92271474D01*
X109594908Y-92270649D01*
X109556174Y-92270042D01*
X109535842Y-92279116D01*
X109523631Y-92303092D01*
X109522091Y-92307613D01*
X109516797Y-92341806D01*
X109530953Y-92362568D01*
X109567852Y-92372462D01*
X109607711Y-92374292D01*
X109679438Y-92360727D01*
X109716568Y-92341355D01*
X109762424Y-92295845D01*
X109786744Y-92239983D01*
X109788927Y-92180957D01*
X109768371Y-92125953D01*
X109737451Y-92091486D01*
X109706580Y-92072189D01*
X109658058Y-92047759D01*
X109601515Y-92022985D01*
X109592090Y-92019199D01*
X109529981Y-91991791D01*
X109494178Y-91967634D01*
X109482663Y-91943619D01*
X109493420Y-91916635D01*
X109511886Y-91895543D01*
X109555531Y-91869572D01*
X109603554Y-91867624D01*
X109647594Y-91887637D01*
X109679291Y-91927551D01*
X109683451Y-91937848D01*
X109707673Y-91975724D01*
X109743035Y-92003842D01*
X109787657Y-92026917D01*
X109787657Y-91961485D01*
X109785031Y-91921506D01*
X109773770Y-91889997D01*
X109748801Y-91856378D01*
X109724831Y-91830484D01*
X109687559Y-91793817D01*
X109658599Y-91774121D01*
X109627495Y-91766220D01*
X109592287Y-91764914D01*
X109515124Y-91776335D01*
G36*
X109007400Y-91778752D02*
X108990052Y-91786334D01*
X108948644Y-91819128D01*
X108913235Y-91866547D01*
X108891336Y-91917151D01*
X108887771Y-91942098D01*
X108899721Y-91976927D01*
X108925933Y-91995357D01*
X108954036Y-92006516D01*
X108966905Y-92008572D01*
X108973171Y-91993649D01*
X108985544Y-91961175D01*
X108990972Y-91946502D01*
X109021410Y-91895744D01*
X109065480Y-91870427D01*
X109121990Y-91871206D01*
X109126175Y-91872203D01*
X109156345Y-91886507D01*
X109178524Y-91914393D01*
X109193673Y-91959287D01*
X109202750Y-92024615D01*
X109206714Y-92113804D01*
X109207086Y-92161261D01*
X109207270Y-92236071D01*
X109208478Y-92287069D01*
X109211691Y-92319471D01*
X109217891Y-92338495D01*
X109228060Y-92349356D01*
X109243181Y-92357272D01*
X109244054Y-92357670D01*
X109273172Y-92369981D01*
X109287597Y-92374514D01*
X109289814Y-92360809D01*
X109291711Y-92322925D01*
X109293153Y-92265715D01*
X109294002Y-92194027D01*
X109294171Y-92141565D01*
X109293308Y-92040047D01*
X109289930Y-91963032D01*
X109282858Y-91906023D01*
X109270912Y-91864526D01*
X109252910Y-91834043D01*
X109227673Y-91810080D01*
X109202753Y-91793355D01*
X109142829Y-91771097D01*
X109073089Y-91766076D01*
X109007400Y-91778752D01*
X109007400Y-91778752D01*
G37*
X109007400Y-91778752D02*
X108990052Y-91786334D01*
X108948644Y-91819128D01*
X108913235Y-91866547D01*
X108891336Y-91917151D01*
X108887771Y-91942098D01*
X108899721Y-91976927D01*
X108925933Y-91995357D01*
X108954036Y-92006516D01*
X108966905Y-92008572D01*
X108973171Y-91993649D01*
X108985544Y-91961175D01*
X108990972Y-91946502D01*
X109021410Y-91895744D01*
X109065480Y-91870427D01*
X109121990Y-91871206D01*
X109126175Y-91872203D01*
X109156345Y-91886507D01*
X109178524Y-91914393D01*
X109193673Y-91959287D01*
X109202750Y-92024615D01*
X109206714Y-92113804D01*
X109207086Y-92161261D01*
X109207270Y-92236071D01*
X109208478Y-92287069D01*
X109211691Y-92319471D01*
X109217891Y-92338495D01*
X109228060Y-92349356D01*
X109243181Y-92357272D01*
X109244054Y-92357670D01*
X109273172Y-92369981D01*
X109287597Y-92374514D01*
X109289814Y-92360809D01*
X109291711Y-92322925D01*
X109293153Y-92265715D01*
X109294002Y-92194027D01*
X109294171Y-92141565D01*
X109293308Y-92040047D01*
X109289930Y-91963032D01*
X109282858Y-91906023D01*
X109270912Y-91864526D01*
X109252910Y-91834043D01*
X109227673Y-91810080D01*
X109202753Y-91793355D01*
X109142829Y-91771097D01*
X109073089Y-91766076D01*
X109007400Y-91778752D01*
G36*
X108506405Y-91786966D02*
X108448979Y-91824497D01*
X108421281Y-91858096D01*
X108399338Y-91919064D01*
X108397595Y-91967308D01*
X108401543Y-92031816D01*
X108550314Y-92096934D01*
X108622651Y-92130202D01*
X108669916Y-92156964D01*
X108694493Y-92180144D01*
X108698763Y-92202667D01*
X108685111Y-92227455D01*
X108670057Y-92243886D01*
X108626254Y-92270235D01*
X108578611Y-92272081D01*
X108534855Y-92251546D01*
X108502711Y-92210752D01*
X108496962Y-92196347D01*
X108469424Y-92151356D01*
X108437742Y-92132182D01*
X108394286Y-92115779D01*
X108394286Y-92177966D01*
X108398128Y-92220283D01*
X108413177Y-92255969D01*
X108444720Y-92296943D01*
X108449408Y-92302267D01*
X108484494Y-92338720D01*
X108514653Y-92358283D01*
X108552385Y-92367283D01*
X108583665Y-92370230D01*
X108639615Y-92370965D01*
X108679445Y-92361660D01*
X108704292Y-92347846D01*
X108743344Y-92317467D01*
X108770375Y-92284613D01*
X108787483Y-92243294D01*
X108796762Y-92187521D01*
X108800307Y-92111305D01*
X108800590Y-92072622D01*
X108799628Y-92026247D01*
X108711993Y-92026247D01*
X108710977Y-92051126D01*
X108708444Y-92055200D01*
X108691726Y-92049665D01*
X108655751Y-92035017D01*
X108607669Y-92014190D01*
X108597614Y-92009714D01*
X108536848Y-91978814D01*
X108503368Y-91951657D01*
X108496010Y-91926220D01*
X108513609Y-91900481D01*
X108528144Y-91889109D01*
X108580590Y-91866364D01*
X108629678Y-91870122D01*
X108670773Y-91897884D01*
X108699242Y-91947152D01*
X108708369Y-91986257D01*
X108711993Y-92026247D01*
X108799628Y-92026247D01*
X108798715Y-91982249D01*
X108791804Y-91915384D01*
X108778116Y-91866695D01*
X108755904Y-91830849D01*
X108723426Y-91802513D01*
X108709267Y-91793355D01*
X108644947Y-91769507D01*
X108574527Y-91768006D01*
X108506405Y-91786966D01*
X108506405Y-91786966D01*
G37*
X108506405Y-91786966D02*
X108448979Y-91824497D01*
X108421281Y-91858096D01*
X108399338Y-91919064D01*
X108397595Y-91967308D01*
X108401543Y-92031816D01*
X108550314Y-92096934D01*
X108622651Y-92130202D01*
X108669916Y-92156964D01*
X108694493Y-92180144D01*
X108698763Y-92202667D01*
X108685111Y-92227455D01*
X108670057Y-92243886D01*
X108626254Y-92270235D01*
X108578611Y-92272081D01*
X108534855Y-92251546D01*
X108502711Y-92210752D01*
X108496962Y-92196347D01*
X108469424Y-92151356D01*
X108437742Y-92132182D01*
X108394286Y-92115779D01*
X108394286Y-92177966D01*
X108398128Y-92220283D01*
X108413177Y-92255969D01*
X108444720Y-92296943D01*
X108449408Y-92302267D01*
X108484494Y-92338720D01*
X108514653Y-92358283D01*
X108552385Y-92367283D01*
X108583665Y-92370230D01*
X108639615Y-92370965D01*
X108679445Y-92361660D01*
X108704292Y-92347846D01*
X108743344Y-92317467D01*
X108770375Y-92284613D01*
X108787483Y-92243294D01*
X108796762Y-92187521D01*
X108800307Y-92111305D01*
X108800590Y-92072622D01*
X108799628Y-92026247D01*
X108711993Y-92026247D01*
X108710977Y-92051126D01*
X108708444Y-92055200D01*
X108691726Y-92049665D01*
X108655751Y-92035017D01*
X108607669Y-92014190D01*
X108597614Y-92009714D01*
X108536848Y-91978814D01*
X108503368Y-91951657D01*
X108496010Y-91926220D01*
X108513609Y-91900481D01*
X108528144Y-91889109D01*
X108580590Y-91866364D01*
X108629678Y-91870122D01*
X108670773Y-91897884D01*
X108699242Y-91947152D01*
X108708369Y-91986257D01*
X108711993Y-92026247D01*
X108799628Y-92026247D01*
X108798715Y-91982249D01*
X108791804Y-91915384D01*
X108778116Y-91866695D01*
X108755904Y-91830849D01*
X108723426Y-91802513D01*
X108709267Y-91793355D01*
X108644947Y-91769507D01*
X108574527Y-91768006D01*
X108506405Y-91786966D01*
G36*
X111556090Y-87062348D02*
X111477546Y-87062778D01*
X111420702Y-87063942D01*
X111381895Y-87066207D01*
X111357462Y-87069940D01*
X111343738Y-87075506D01*
X111337060Y-87083273D01*
X111333764Y-87093605D01*
X111333444Y-87094943D01*
X111328438Y-87119079D01*
X111319171Y-87166701D01*
X111306608Y-87232741D01*
X111291713Y-87312128D01*
X111275449Y-87399796D01*
X111274881Y-87402875D01*
X111258590Y-87488789D01*
X111243348Y-87564696D01*
X111230139Y-87626045D01*
X111219946Y-87668282D01*
X111213752Y-87686855D01*
X111213457Y-87687184D01*
X111195212Y-87696253D01*
X111157595Y-87711367D01*
X111108729Y-87729262D01*
X111108457Y-87729358D01*
X111046907Y-87752493D01*
X110974343Y-87781965D01*
X110905943Y-87811597D01*
X110902706Y-87813062D01*
X110791298Y-87863626D01*
X110544601Y-87695160D01*
X110468923Y-87643803D01*
X110400369Y-87597889D01*
X110342912Y-87560030D01*
X110300524Y-87532837D01*
X110277175Y-87518921D01*
X110274958Y-87517889D01*
X110257990Y-87522484D01*
X110226299Y-87544655D01*
X110178648Y-87585447D01*
X110113802Y-87645905D01*
X110047603Y-87710227D01*
X109983786Y-87773612D01*
X109926671Y-87831451D01*
X109879695Y-87880175D01*
X109846297Y-87916210D01*
X109829915Y-87935984D01*
X109829306Y-87937002D01*
X109827495Y-87950572D01*
X109834317Y-87972733D01*
X109851460Y-88006478D01*
X109880607Y-88054800D01*
X109923445Y-88120692D01*
X109980552Y-88205517D01*
X110031234Y-88280177D01*
X110076539Y-88347140D01*
X110113850Y-88402516D01*
X110140548Y-88442420D01*
X110154015Y-88462962D01*
X110154863Y-88464356D01*
X110153219Y-88484038D01*
X110140755Y-88522293D01*
X110119952Y-88571889D01*
X110112538Y-88587728D01*
X110080186Y-88658290D01*
X110045672Y-88738353D01*
X110017635Y-88807629D01*
X109997432Y-88859045D01*
X109981385Y-88898119D01*
X109972112Y-88918541D01*
X109970959Y-88920114D01*
X109953904Y-88922721D01*
X109913702Y-88929863D01*
X109855698Y-88940523D01*
X109785237Y-88953685D01*
X109707665Y-88968333D01*
X109628328Y-88983449D01*
X109552569Y-88998018D01*
X109485736Y-89011022D01*
X109433172Y-89021445D01*
X109400224Y-89028270D01*
X109392143Y-89030199D01*
X109383795Y-89034962D01*
X109377494Y-89045718D01*
X109372955Y-89066098D01*
X109369896Y-89099734D01*
X109368033Y-89150255D01*
X109367082Y-89221292D01*
X109366760Y-89316476D01*
X109366743Y-89355492D01*
X109366743Y-89672799D01*
X109442943Y-89687839D01*
X109485337Y-89695995D01*
X109548600Y-89707899D01*
X109625038Y-89722116D01*
X109706957Y-89737210D01*
X109729600Y-89741355D01*
X109805194Y-89756053D01*
X109871047Y-89770505D01*
X109921634Y-89783375D01*
X109951426Y-89793322D01*
X109956388Y-89796287D01*
X109968574Y-89817283D01*
X109986047Y-89857967D01*
X110005423Y-89910322D01*
X110009266Y-89921600D01*
X110034661Y-89991523D01*
X110066183Y-90070418D01*
X110097031Y-90141266D01*
X110097183Y-90141595D01*
X110148553Y-90252733D01*
X109979601Y-90501253D01*
X109810648Y-90749772D01*
X110027571Y-90967058D01*
X110093181Y-91031726D01*
X110153021Y-91088733D01*
X110203733Y-91135033D01*
X110241954Y-91167584D01*
X110264325Y-91183343D01*
X110267534Y-91184343D01*
X110286374Y-91176469D01*
X110324820Y-91154578D01*
X110378670Y-91121267D01*
X110443724Y-91079131D01*
X110514060Y-91031943D01*
X110585445Y-90983810D01*
X110649092Y-90941928D01*
X110700959Y-90908871D01*
X110737005Y-90887218D01*
X110753133Y-90879543D01*
X110772811Y-90886037D01*
X110810125Y-90903150D01*
X110857379Y-90927326D01*
X110862388Y-90930013D01*
X110926023Y-90961927D01*
X110969659Y-90977579D01*
X110996798Y-90977745D01*
X111010943Y-90963204D01*
X111011025Y-90963000D01*
X111018095Y-90945779D01*
X111034958Y-90904899D01*
X111060305Y-90843525D01*
X111092829Y-90764819D01*
X111131222Y-90671947D01*
X111174178Y-90568072D01*
X111215778Y-90467502D01*
X111261496Y-90356516D01*
X111303474Y-90253703D01*
X111340452Y-90162215D01*
X111371173Y-90085201D01*
X111394378Y-90025815D01*
X111408810Y-89987209D01*
X111413257Y-89972800D01*
X111402104Y-89956272D01*
X111372931Y-89929930D01*
X111334029Y-89900887D01*
X111223243Y-89809039D01*
X111136649Y-89703759D01*
X111075284Y-89587266D01*
X111040185Y-89461776D01*
X111032392Y-89329507D01*
X111038057Y-89268457D01*
X111068922Y-89141795D01*
X111122080Y-89029941D01*
X111194233Y-88934001D01*
X111282083Y-88855076D01*
X111382335Y-88794270D01*
X111491690Y-88752687D01*
X111606853Y-88731428D01*
X111724525Y-88731599D01*
X111841410Y-88754301D01*
X111954211Y-88800638D01*
X112059631Y-88871713D01*
X112103632Y-88911911D01*
X112188021Y-89015129D01*
X112246778Y-89127925D01*
X112280296Y-89247010D01*
X112288965Y-89369095D01*
X112273177Y-89490893D01*
X112233322Y-89609116D01*
X112169793Y-89720475D01*
X112082979Y-89821684D01*
X111985971Y-89900887D01*
X111945563Y-89931162D01*
X111917018Y-89957219D01*
X111906743Y-89972825D01*
X111912123Y-89989843D01*
X111927425Y-90030500D01*
X111951388Y-90091642D01*
X111982756Y-90170119D01*
X112020268Y-90262780D01*
X112062667Y-90366472D01*
X112104337Y-90467526D01*
X112150310Y-90578607D01*
X112192893Y-90681541D01*
X112230779Y-90773165D01*
X112262660Y-90850316D01*
X112287229Y-90909831D01*
X112303180Y-90948544D01*
X112309090Y-90963000D01*
X112323052Y-90977685D01*
X112350060Y-90977642D01*
X112393587Y-90962099D01*
X112457110Y-90930284D01*
X112457612Y-90930013D01*
X112505440Y-90905323D01*
X112544103Y-90887338D01*
X112565905Y-90879614D01*
X112566867Y-90879543D01*
X112583279Y-90887378D01*
X112619513Y-90909165D01*
X112671526Y-90942328D01*
X112735275Y-90984291D01*
X112805940Y-91031943D01*
X112877884Y-91080191D01*
X112942726Y-91122151D01*
X112996265Y-91155227D01*
X113034303Y-91176821D01*
X113052467Y-91184343D01*
X113069192Y-91174457D01*
X113102820Y-91146826D01*
X113149990Y-91104495D01*
X113207342Y-91050505D01*
X113271516Y-90987899D01*
X113292503Y-90966983D01*
X113509501Y-90749623D01*
X113344332Y-90507220D01*
X113294136Y-90432781D01*
X113250081Y-90365972D01*
X113214638Y-90310665D01*
X113190281Y-90270729D01*
X113179478Y-90250036D01*
X113179162Y-90248563D01*
X113184857Y-90229058D01*
X113200174Y-90189822D01*
X113222463Y-90137430D01*
X113238107Y-90102355D01*
X113267359Y-90035201D01*
X113294906Y-89967358D01*
X113316263Y-89910034D01*
X113322065Y-89892572D01*
X113338548Y-89845938D01*
X113354660Y-89809905D01*
X113363510Y-89796287D01*
X113383040Y-89787952D01*
X113425666Y-89776137D01*
X113485855Y-89762181D01*
X113558078Y-89747422D01*
X113590400Y-89741355D01*
X113672478Y-89726273D01*
X113751205Y-89711669D01*
X113818891Y-89698980D01*
X113867840Y-89689642D01*
X113877057Y-89687839D01*
X113953257Y-89672799D01*
X113953257Y-89355492D01*
X113953086Y-89251154D01*
X113952384Y-89172213D01*
X113950866Y-89115038D01*
X113948251Y-89075999D01*
X113944254Y-89051465D01*
X113938591Y-89037805D01*
X113930980Y-89031389D01*
X113927857Y-89030199D01*
X113909022Y-89025980D01*
X113867412Y-89017562D01*
X113808370Y-89005961D01*
X113737243Y-88992195D01*
X113659375Y-88977280D01*
X113580113Y-88962232D01*
X113504802Y-88948069D01*
X113438787Y-88935806D01*
X113387413Y-88926461D01*
X113356025Y-88921050D01*
X113349041Y-88920114D01*
X113342715Y-88907596D01*
X113328710Y-88874246D01*
X113309645Y-88826377D01*
X113302366Y-88807629D01*
X113273004Y-88735195D01*
X113238429Y-88655170D01*
X113207463Y-88587728D01*
X113184677Y-88536159D01*
X113169518Y-88493785D01*
X113164458Y-88467834D01*
X113165264Y-88464356D01*
X113175959Y-88447936D01*
X113200380Y-88411417D01*
X113235905Y-88358687D01*
X113279913Y-88293635D01*
X113329783Y-88220151D01*
X113339644Y-88205645D01*
X113397508Y-88119704D01*
X113440044Y-88054261D01*
X113468946Y-88006304D01*
X113485910Y-87972820D01*
X113492633Y-87950795D01*
X113490810Y-87937217D01*
X113490764Y-87937131D01*
X113476414Y-87919297D01*
X113444677Y-87884817D01*
X113398990Y-87837268D01*
X113342796Y-87780222D01*
X113279532Y-87717255D01*
X113272398Y-87710227D01*
X113192670Y-87633020D01*
X113131143Y-87576330D01*
X113086579Y-87539110D01*
X113057743Y-87520315D01*
X113045042Y-87517889D01*
X113026506Y-87528471D01*
X112988039Y-87552916D01*
X112933614Y-87588612D01*
X112867202Y-87632947D01*
X112792775Y-87683311D01*
X112775399Y-87695160D01*
X112528703Y-87863626D01*
X112417294Y-87813062D01*
X112349543Y-87783595D01*
X112276817Y-87753959D01*
X112214297Y-87730330D01*
X112211543Y-87729358D01*
X112162640Y-87711457D01*
X112124943Y-87696320D01*
X112106575Y-87687210D01*
X112106544Y-87687184D01*
X112100715Y-87670717D01*
X112090808Y-87630219D01*
X112077805Y-87570242D01*
X112062691Y-87495340D01*
X112046448Y-87410064D01*
X112045119Y-87402875D01*
X112028825Y-87315014D01*
X112013867Y-87235260D01*
X112001209Y-87168681D01*
X111991814Y-87120347D01*
X111986646Y-87095325D01*
X111986556Y-87094943D01*
X111983411Y-87084299D01*
X111977296Y-87076262D01*
X111964547Y-87070467D01*
X111941500Y-87066547D01*
X111904491Y-87064135D01*
X111849856Y-87062865D01*
X111773933Y-87062371D01*
X111673056Y-87062286D01*
X111660000Y-87062286D01*
X111556090Y-87062348D01*
X111556090Y-87062348D01*
G37*
X111556090Y-87062348D02*
X111477546Y-87062778D01*
X111420702Y-87063942D01*
X111381895Y-87066207D01*
X111357462Y-87069940D01*
X111343738Y-87075506D01*
X111337060Y-87083273D01*
X111333764Y-87093605D01*
X111333444Y-87094943D01*
X111328438Y-87119079D01*
X111319171Y-87166701D01*
X111306608Y-87232741D01*
X111291713Y-87312128D01*
X111275449Y-87399796D01*
X111274881Y-87402875D01*
X111258590Y-87488789D01*
X111243348Y-87564696D01*
X111230139Y-87626045D01*
X111219946Y-87668282D01*
X111213752Y-87686855D01*
X111213457Y-87687184D01*
X111195212Y-87696253D01*
X111157595Y-87711367D01*
X111108729Y-87729262D01*
X111108457Y-87729358D01*
X111046907Y-87752493D01*
X110974343Y-87781965D01*
X110905943Y-87811597D01*
X110902706Y-87813062D01*
X110791298Y-87863626D01*
X110544601Y-87695160D01*
X110468923Y-87643803D01*
X110400369Y-87597889D01*
X110342912Y-87560030D01*
X110300524Y-87532837D01*
X110277175Y-87518921D01*
X110274958Y-87517889D01*
X110257990Y-87522484D01*
X110226299Y-87544655D01*
X110178648Y-87585447D01*
X110113802Y-87645905D01*
X110047603Y-87710227D01*
X109983786Y-87773612D01*
X109926671Y-87831451D01*
X109879695Y-87880175D01*
X109846297Y-87916210D01*
X109829915Y-87935984D01*
X109829306Y-87937002D01*
X109827495Y-87950572D01*
X109834317Y-87972733D01*
X109851460Y-88006478D01*
X109880607Y-88054800D01*
X109923445Y-88120692D01*
X109980552Y-88205517D01*
X110031234Y-88280177D01*
X110076539Y-88347140D01*
X110113850Y-88402516D01*
X110140548Y-88442420D01*
X110154015Y-88462962D01*
X110154863Y-88464356D01*
X110153219Y-88484038D01*
X110140755Y-88522293D01*
X110119952Y-88571889D01*
X110112538Y-88587728D01*
X110080186Y-88658290D01*
X110045672Y-88738353D01*
X110017635Y-88807629D01*
X109997432Y-88859045D01*
X109981385Y-88898119D01*
X109972112Y-88918541D01*
X109970959Y-88920114D01*
X109953904Y-88922721D01*
X109913702Y-88929863D01*
X109855698Y-88940523D01*
X109785237Y-88953685D01*
X109707665Y-88968333D01*
X109628328Y-88983449D01*
X109552569Y-88998018D01*
X109485736Y-89011022D01*
X109433172Y-89021445D01*
X109400224Y-89028270D01*
X109392143Y-89030199D01*
X109383795Y-89034962D01*
X109377494Y-89045718D01*
X109372955Y-89066098D01*
X109369896Y-89099734D01*
X109368033Y-89150255D01*
X109367082Y-89221292D01*
X109366760Y-89316476D01*
X109366743Y-89355492D01*
X109366743Y-89672799D01*
X109442943Y-89687839D01*
X109485337Y-89695995D01*
X109548600Y-89707899D01*
X109625038Y-89722116D01*
X109706957Y-89737210D01*
X109729600Y-89741355D01*
X109805194Y-89756053D01*
X109871047Y-89770505D01*
X109921634Y-89783375D01*
X109951426Y-89793322D01*
X109956388Y-89796287D01*
X109968574Y-89817283D01*
X109986047Y-89857967D01*
X110005423Y-89910322D01*
X110009266Y-89921600D01*
X110034661Y-89991523D01*
X110066183Y-90070418D01*
X110097031Y-90141266D01*
X110097183Y-90141595D01*
X110148553Y-90252733D01*
X109979601Y-90501253D01*
X109810648Y-90749772D01*
X110027571Y-90967058D01*
X110093181Y-91031726D01*
X110153021Y-91088733D01*
X110203733Y-91135033D01*
X110241954Y-91167584D01*
X110264325Y-91183343D01*
X110267534Y-91184343D01*
X110286374Y-91176469D01*
X110324820Y-91154578D01*
X110378670Y-91121267D01*
X110443724Y-91079131D01*
X110514060Y-91031943D01*
X110585445Y-90983810D01*
X110649092Y-90941928D01*
X110700959Y-90908871D01*
X110737005Y-90887218D01*
X110753133Y-90879543D01*
X110772811Y-90886037D01*
X110810125Y-90903150D01*
X110857379Y-90927326D01*
X110862388Y-90930013D01*
X110926023Y-90961927D01*
X110969659Y-90977579D01*
X110996798Y-90977745D01*
X111010943Y-90963204D01*
X111011025Y-90963000D01*
X111018095Y-90945779D01*
X111034958Y-90904899D01*
X111060305Y-90843525D01*
X111092829Y-90764819D01*
X111131222Y-90671947D01*
X111174178Y-90568072D01*
X111215778Y-90467502D01*
X111261496Y-90356516D01*
X111303474Y-90253703D01*
X111340452Y-90162215D01*
X111371173Y-90085201D01*
X111394378Y-90025815D01*
X111408810Y-89987209D01*
X111413257Y-89972800D01*
X111402104Y-89956272D01*
X111372931Y-89929930D01*
X111334029Y-89900887D01*
X111223243Y-89809039D01*
X111136649Y-89703759D01*
X111075284Y-89587266D01*
X111040185Y-89461776D01*
X111032392Y-89329507D01*
X111038057Y-89268457D01*
X111068922Y-89141795D01*
X111122080Y-89029941D01*
X111194233Y-88934001D01*
X111282083Y-88855076D01*
X111382335Y-88794270D01*
X111491690Y-88752687D01*
X111606853Y-88731428D01*
X111724525Y-88731599D01*
X111841410Y-88754301D01*
X111954211Y-88800638D01*
X112059631Y-88871713D01*
X112103632Y-88911911D01*
X112188021Y-89015129D01*
X112246778Y-89127925D01*
X112280296Y-89247010D01*
X112288965Y-89369095D01*
X112273177Y-89490893D01*
X112233322Y-89609116D01*
X112169793Y-89720475D01*
X112082979Y-89821684D01*
X111985971Y-89900887D01*
X111945563Y-89931162D01*
X111917018Y-89957219D01*
X111906743Y-89972825D01*
X111912123Y-89989843D01*
X111927425Y-90030500D01*
X111951388Y-90091642D01*
X111982756Y-90170119D01*
X112020268Y-90262780D01*
X112062667Y-90366472D01*
X112104337Y-90467526D01*
X112150310Y-90578607D01*
X112192893Y-90681541D01*
X112230779Y-90773165D01*
X112262660Y-90850316D01*
X112287229Y-90909831D01*
X112303180Y-90948544D01*
X112309090Y-90963000D01*
X112323052Y-90977685D01*
X112350060Y-90977642D01*
X112393587Y-90962099D01*
X112457110Y-90930284D01*
X112457612Y-90930013D01*
X112505440Y-90905323D01*
X112544103Y-90887338D01*
X112565905Y-90879614D01*
X112566867Y-90879543D01*
X112583279Y-90887378D01*
X112619513Y-90909165D01*
X112671526Y-90942328D01*
X112735275Y-90984291D01*
X112805940Y-91031943D01*
X112877884Y-91080191D01*
X112942726Y-91122151D01*
X112996265Y-91155227D01*
X113034303Y-91176821D01*
X113052467Y-91184343D01*
X113069192Y-91174457D01*
X113102820Y-91146826D01*
X113149990Y-91104495D01*
X113207342Y-91050505D01*
X113271516Y-90987899D01*
X113292503Y-90966983D01*
X113509501Y-90749623D01*
X113344332Y-90507220D01*
X113294136Y-90432781D01*
X113250081Y-90365972D01*
X113214638Y-90310665D01*
X113190281Y-90270729D01*
X113179478Y-90250036D01*
X113179162Y-90248563D01*
X113184857Y-90229058D01*
X113200174Y-90189822D01*
X113222463Y-90137430D01*
X113238107Y-90102355D01*
X113267359Y-90035201D01*
X113294906Y-89967358D01*
X113316263Y-89910034D01*
X113322065Y-89892572D01*
X113338548Y-89845938D01*
X113354660Y-89809905D01*
X113363510Y-89796287D01*
X113383040Y-89787952D01*
X113425666Y-89776137D01*
X113485855Y-89762181D01*
X113558078Y-89747422D01*
X113590400Y-89741355D01*
X113672478Y-89726273D01*
X113751205Y-89711669D01*
X113818891Y-89698980D01*
X113867840Y-89689642D01*
X113877057Y-89687839D01*
X113953257Y-89672799D01*
X113953257Y-89355492D01*
X113953086Y-89251154D01*
X113952384Y-89172213D01*
X113950866Y-89115038D01*
X113948251Y-89075999D01*
X113944254Y-89051465D01*
X113938591Y-89037805D01*
X113930980Y-89031389D01*
X113927857Y-89030199D01*
X113909022Y-89025980D01*
X113867412Y-89017562D01*
X113808370Y-89005961D01*
X113737243Y-88992195D01*
X113659375Y-88977280D01*
X113580113Y-88962232D01*
X113504802Y-88948069D01*
X113438787Y-88935806D01*
X113387413Y-88926461D01*
X113356025Y-88921050D01*
X113349041Y-88920114D01*
X113342715Y-88907596D01*
X113328710Y-88874246D01*
X113309645Y-88826377D01*
X113302366Y-88807629D01*
X113273004Y-88735195D01*
X113238429Y-88655170D01*
X113207463Y-88587728D01*
X113184677Y-88536159D01*
X113169518Y-88493785D01*
X113164458Y-88467834D01*
X113165264Y-88464356D01*
X113175959Y-88447936D01*
X113200380Y-88411417D01*
X113235905Y-88358687D01*
X113279913Y-88293635D01*
X113329783Y-88220151D01*
X113339644Y-88205645D01*
X113397508Y-88119704D01*
X113440044Y-88054261D01*
X113468946Y-88006304D01*
X113485910Y-87972820D01*
X113492633Y-87950795D01*
X113490810Y-87937217D01*
X113490764Y-87937131D01*
X113476414Y-87919297D01*
X113444677Y-87884817D01*
X113398990Y-87837268D01*
X113342796Y-87780222D01*
X113279532Y-87717255D01*
X113272398Y-87710227D01*
X113192670Y-87633020D01*
X113131143Y-87576330D01*
X113086579Y-87539110D01*
X113057743Y-87520315D01*
X113045042Y-87517889D01*
X113026506Y-87528471D01*
X112988039Y-87552916D01*
X112933614Y-87588612D01*
X112867202Y-87632947D01*
X112792775Y-87683311D01*
X112775399Y-87695160D01*
X112528703Y-87863626D01*
X112417294Y-87813062D01*
X112349543Y-87783595D01*
X112276817Y-87753959D01*
X112214297Y-87730330D01*
X112211543Y-87729358D01*
X112162640Y-87711457D01*
X112124943Y-87696320D01*
X112106575Y-87687210D01*
X112106544Y-87687184D01*
X112100715Y-87670717D01*
X112090808Y-87630219D01*
X112077805Y-87570242D01*
X112062691Y-87495340D01*
X112046448Y-87410064D01*
X112045119Y-87402875D01*
X112028825Y-87315014D01*
X112013867Y-87235260D01*
X112001209Y-87168681D01*
X111991814Y-87120347D01*
X111986646Y-87095325D01*
X111986556Y-87094943D01*
X111983411Y-87084299D01*
X111977296Y-87076262D01*
X111964547Y-87070467D01*
X111941500Y-87066547D01*
X111904491Y-87064135D01*
X111849856Y-87062865D01*
X111773933Y-87062371D01*
X111673056Y-87062286D01*
X111660000Y-87062286D01*
X111556090Y-87062348D01*
%LPC*%
D14*
X102500000Y-72500000D03*
D15*
X105870000Y-75000000D03*
D16*
X105870000Y-72460000D03*
X108410000Y-75000000D03*
X108410000Y-72460000D03*
X110950000Y-75000000D03*
X110950000Y-72460000D03*
X113490000Y-75000000D03*
X113490000Y-72460000D03*
X116030000Y-75000000D03*
X116030000Y-72460000D03*
X118570000Y-75000000D03*
X118570000Y-72460000D03*
X121110000Y-75000000D03*
X121110000Y-72460000D03*
X123650000Y-75000000D03*
X123650000Y-72460000D03*
X126190000Y-75000000D03*
X126190000Y-72460000D03*
X128730000Y-75000000D03*
X128730000Y-72460000D03*
X131270000Y-75000000D03*
X131270000Y-72460000D03*
X133810000Y-75000000D03*
X133810000Y-72460000D03*
X136350000Y-75000000D03*
X136350000Y-72460000D03*
X138890000Y-75000000D03*
X138890000Y-72460000D03*
X141430000Y-75000000D03*
X141430000Y-72460000D03*
X143970000Y-75000000D03*
X143970000Y-72460000D03*
X146510000Y-75000000D03*
X146510000Y-72460000D03*
X149050000Y-75000000D03*
X149050000Y-72460000D03*
X151590000Y-75000000D03*
X151590000Y-72460000D03*
X154130000Y-75000000D03*
X154130000Y-72460000D03*
D17*
X155000000Y-81000000D03*
D18*
X155000000Y-83540000D03*
X155000000Y-86080000D03*
X155000000Y-88620000D03*
X155000000Y-91160000D03*
D19*
X105850900Y-87800360D03*
X105850900Y-92199640D03*
D20*
X121300000Y-94600000D03*
X136800000Y-94600000D03*
D21*
X122200000Y-85000000D03*
D22*
X136800000Y-85000000D03*
D23*
X135650000Y-84500000D03*
X133450000Y-84500000D03*
X134550000Y-84500000D03*
X132350000Y-84500000D03*
X131250000Y-84500000D03*
X130150000Y-84500000D03*
X126850000Y-84500000D03*
X127950000Y-84500000D03*
X129050000Y-84500000D03*
D14*
X157500000Y-72500000D03*
X157500000Y-97500000D03*
X102500000Y-97500000D03*
M02*
