G04 #@! TF.FileFunction,Legend,Top*
%FSLAX46Y46*%
G04 Gerber Fmt 4.6, Leading zero omitted, Abs format (unit mm)*
G04 Created by KiCad (PCBNEW 4.0.5) date 12/27/16 09:40:05*
%MOMM*%
%LPD*%
G01*
G04 APERTURE LIST*
%ADD10C,0.100000*%
%ADD11C,0.150000*%
%ADD12C,0.180000*%
%ADD13C,0.120000*%
%ADD14R,1.400000X1.900000*%
%ADD15C,3.400000*%
%ADD16R,1.100000X1.700000*%
%ADD17R,1.598880X1.598880*%
%ADD18R,1.650000X1.400000*%
%ADD19R,1.400000X1.650000*%
%ADD20R,1.800000X1.800000*%
%ADD21R,1.800000X1.700000*%
%ADD22R,1.400000X0.650000*%
%ADD23R,0.650000X1.400000*%
%ADD24R,2.127200X2.127200*%
%ADD25O,2.127200X2.127200*%
%ADD26R,2.432000X2.127200*%
%ADD27O,2.432000X2.127200*%
%ADD28R,2.701240X0.900380*%
%ADD29R,2.899360X2.398980*%
%ADD30C,1.299160*%
%ADD31R,2.800000X2.400000*%
%ADD32R,2.600000X2.225000*%
%ADD33R,1.950000X1.700000*%
%ADD34R,1.460000X1.050000*%
G04 APERTURE END LIST*
D10*
D11*
X117333333Y-93761905D02*
X117333333Y-92961905D01*
X117638095Y-92961905D01*
X117714286Y-93000000D01*
X117752381Y-93038095D01*
X117790476Y-93114286D01*
X117790476Y-93228571D01*
X117752381Y-93304762D01*
X117714286Y-93342857D01*
X117638095Y-93380952D01*
X117333333Y-93380952D01*
X118057143Y-92961905D02*
X118247619Y-93761905D01*
X118400000Y-93190476D01*
X118552381Y-93761905D01*
X118742857Y-92961905D01*
X119504762Y-93761905D02*
X119238095Y-93380952D01*
X119047619Y-93761905D02*
X119047619Y-92961905D01*
X119352381Y-92961905D01*
X119428572Y-93000000D01*
X119466667Y-93038095D01*
X119504762Y-93114286D01*
X119504762Y-93228571D01*
X119466667Y-93304762D01*
X119428572Y-93342857D01*
X119352381Y-93380952D01*
X119047619Y-93380952D01*
X139261905Y-83611905D02*
X138995238Y-83230952D01*
X138804762Y-83611905D02*
X138804762Y-82811905D01*
X139109524Y-82811905D01*
X139185715Y-82850000D01*
X139223810Y-82888095D01*
X139261905Y-82964286D01*
X139261905Y-83078571D01*
X139223810Y-83154762D01*
X139185715Y-83192857D01*
X139109524Y-83230952D01*
X138804762Y-83230952D01*
X139566667Y-83573810D02*
X139680953Y-83611905D01*
X139871429Y-83611905D01*
X139947619Y-83573810D01*
X139985715Y-83535714D01*
X140023810Y-83459524D01*
X140023810Y-83383333D01*
X139985715Y-83307143D01*
X139947619Y-83269048D01*
X139871429Y-83230952D01*
X139719048Y-83192857D01*
X139642857Y-83154762D01*
X139604762Y-83116667D01*
X139566667Y-83040476D01*
X139566667Y-82964286D01*
X139604762Y-82888095D01*
X139642857Y-82850000D01*
X139719048Y-82811905D01*
X139909524Y-82811905D01*
X140023810Y-82850000D01*
X140252381Y-82811905D02*
X140709524Y-82811905D01*
X140480953Y-83611905D02*
X140480953Y-82811905D01*
X108257620Y-76861905D02*
X107876667Y-76861905D01*
X107838572Y-77242857D01*
X107876667Y-77204762D01*
X107952858Y-77166667D01*
X108143334Y-77166667D01*
X108219524Y-77204762D01*
X108257620Y-77242857D01*
X108295715Y-77319048D01*
X108295715Y-77509524D01*
X108257620Y-77585714D01*
X108219524Y-77623810D01*
X108143334Y-77661905D01*
X107952858Y-77661905D01*
X107876667Y-77623810D01*
X107838572Y-77585714D01*
X108524286Y-76861905D02*
X108790953Y-77661905D01*
X109057620Y-76861905D01*
X105260477Y-76900000D02*
X105184286Y-76861905D01*
X105070001Y-76861905D01*
X104955715Y-76900000D01*
X104879524Y-76976190D01*
X104841429Y-77052381D01*
X104803334Y-77204762D01*
X104803334Y-77319048D01*
X104841429Y-77471429D01*
X104879524Y-77547619D01*
X104955715Y-77623810D01*
X105070001Y-77661905D01*
X105146191Y-77661905D01*
X105260477Y-77623810D01*
X105298572Y-77585714D01*
X105298572Y-77319048D01*
X105146191Y-77319048D01*
X105641429Y-77661905D02*
X105641429Y-76861905D01*
X106098572Y-77661905D01*
X106098572Y-76861905D01*
X106479524Y-77661905D02*
X106479524Y-76861905D01*
X106670000Y-76861905D01*
X106784286Y-76900000D01*
X106860477Y-76976190D01*
X106898572Y-77052381D01*
X106936667Y-77204762D01*
X106936667Y-77319048D01*
X106898572Y-77471429D01*
X106860477Y-77547619D01*
X106784286Y-77623810D01*
X106670000Y-77661905D01*
X106479524Y-77661905D01*
X102237620Y-75851905D02*
X101856667Y-75851905D01*
X101856667Y-75051905D01*
X102961429Y-75775714D02*
X102923334Y-75813810D01*
X102809048Y-75851905D01*
X102732858Y-75851905D01*
X102618572Y-75813810D01*
X102542381Y-75737619D01*
X102504286Y-75661429D01*
X102466191Y-75509048D01*
X102466191Y-75394762D01*
X102504286Y-75242381D01*
X102542381Y-75166190D01*
X102618572Y-75090000D01*
X102732858Y-75051905D01*
X102809048Y-75051905D01*
X102923334Y-75090000D01*
X102961429Y-75128095D01*
X103304286Y-75851905D02*
X103304286Y-75051905D01*
X103494762Y-75051905D01*
X103609048Y-75090000D01*
X103685239Y-75166190D01*
X103723334Y-75242381D01*
X103761429Y-75394762D01*
X103761429Y-75509048D01*
X103723334Y-75661429D01*
X103685239Y-75737619D01*
X103609048Y-75813810D01*
X103494762Y-75851905D01*
X103304286Y-75851905D01*
X150681429Y-94071905D02*
X150681429Y-93271905D01*
X150986191Y-93271905D01*
X151062382Y-93310000D01*
X151100477Y-93348095D01*
X151138572Y-93424286D01*
X151138572Y-93538571D01*
X151100477Y-93614762D01*
X151062382Y-93652857D01*
X150986191Y-93690952D01*
X150681429Y-93690952D01*
X151938572Y-94071905D02*
X151671905Y-93690952D01*
X151481429Y-94071905D02*
X151481429Y-93271905D01*
X151786191Y-93271905D01*
X151862382Y-93310000D01*
X151900477Y-93348095D01*
X151938572Y-93424286D01*
X151938572Y-93538571D01*
X151900477Y-93614762D01*
X151862382Y-93652857D01*
X151786191Y-93690952D01*
X151481429Y-93690952D01*
X152433810Y-93271905D02*
X152586191Y-93271905D01*
X152662382Y-93310000D01*
X152738572Y-93386190D01*
X152776667Y-93538571D01*
X152776667Y-93805238D01*
X152738572Y-93957619D01*
X152662382Y-94033810D01*
X152586191Y-94071905D01*
X152433810Y-94071905D01*
X152357620Y-94033810D01*
X152281429Y-93957619D01*
X152243334Y-93805238D01*
X152243334Y-93538571D01*
X152281429Y-93386190D01*
X152357620Y-93310000D01*
X152433810Y-93271905D01*
X153538572Y-93310000D02*
X153462381Y-93271905D01*
X153348096Y-93271905D01*
X153233810Y-93310000D01*
X153157619Y-93386190D01*
X153119524Y-93462381D01*
X153081429Y-93614762D01*
X153081429Y-93729048D01*
X153119524Y-93881429D01*
X153157619Y-93957619D01*
X153233810Y-94033810D01*
X153348096Y-94071905D01*
X153424286Y-94071905D01*
X153538572Y-94033810D01*
X153576667Y-93995714D01*
X153576667Y-93729048D01*
X153424286Y-93729048D01*
X154490953Y-93233810D02*
X153805238Y-94262381D01*
X154757619Y-94071905D02*
X154757619Y-93271905D01*
X154948095Y-93271905D01*
X155062381Y-93310000D01*
X155138572Y-93386190D01*
X155176667Y-93462381D01*
X155214762Y-93614762D01*
X155214762Y-93729048D01*
X155176667Y-93881429D01*
X155138572Y-93957619D01*
X155062381Y-94033810D01*
X154948095Y-94071905D01*
X154757619Y-94071905D01*
X155557619Y-93652857D02*
X155824286Y-93652857D01*
X155938572Y-94071905D02*
X155557619Y-94071905D01*
X155557619Y-93271905D01*
X155938572Y-93271905D01*
X156548096Y-93652857D02*
X156662382Y-93690952D01*
X156700477Y-93729048D01*
X156738572Y-93805238D01*
X156738572Y-93919524D01*
X156700477Y-93995714D01*
X156662382Y-94033810D01*
X156586191Y-94071905D01*
X156281429Y-94071905D01*
X156281429Y-93271905D01*
X156548096Y-93271905D01*
X156624286Y-93310000D01*
X156662382Y-93348095D01*
X156700477Y-93424286D01*
X156700477Y-93500476D01*
X156662382Y-93576667D01*
X156624286Y-93614762D01*
X156548096Y-93652857D01*
X156281429Y-93652857D01*
X157081429Y-93271905D02*
X157081429Y-93919524D01*
X157119524Y-93995714D01*
X157157620Y-94033810D01*
X157233810Y-94071905D01*
X157386191Y-94071905D01*
X157462382Y-94033810D01*
X157500477Y-93995714D01*
X157538572Y-93919524D01*
X157538572Y-93271905D01*
X158338572Y-93310000D02*
X158262381Y-93271905D01*
X158148096Y-93271905D01*
X158033810Y-93310000D01*
X157957619Y-93386190D01*
X157919524Y-93462381D01*
X157881429Y-93614762D01*
X157881429Y-93729048D01*
X157919524Y-93881429D01*
X157957619Y-93957619D01*
X158033810Y-94033810D01*
X158148096Y-94071905D01*
X158224286Y-94071905D01*
X158338572Y-94033810D01*
X158376667Y-93995714D01*
X158376667Y-93729048D01*
X158224286Y-93729048D01*
D12*
X150109524Y-91217143D02*
X150719048Y-91217143D01*
X150414286Y-91521905D02*
X150414286Y-90912381D01*
X151023810Y-90721905D02*
X151519048Y-90721905D01*
X151252381Y-91026667D01*
X151366667Y-91026667D01*
X151442857Y-91064762D01*
X151480953Y-91102857D01*
X151519048Y-91179048D01*
X151519048Y-91369524D01*
X151480953Y-91445714D01*
X151442857Y-91483810D01*
X151366667Y-91521905D01*
X151138095Y-91521905D01*
X151061905Y-91483810D01*
X151023810Y-91445714D01*
X151861905Y-91445714D02*
X151900000Y-91483810D01*
X151861905Y-91521905D01*
X151823810Y-91483810D01*
X151861905Y-91445714D01*
X151861905Y-91521905D01*
X152166667Y-90721905D02*
X152661905Y-90721905D01*
X152395238Y-91026667D01*
X152509524Y-91026667D01*
X152585714Y-91064762D01*
X152623810Y-91102857D01*
X152661905Y-91179048D01*
X152661905Y-91369524D01*
X152623810Y-91445714D01*
X152585714Y-91483810D01*
X152509524Y-91521905D01*
X152280952Y-91521905D01*
X152204762Y-91483810D01*
X152166667Y-91445714D01*
X152890476Y-90721905D02*
X153157143Y-91521905D01*
X153423810Y-90721905D01*
X149728571Y-83863810D02*
X149842857Y-83901905D01*
X150033333Y-83901905D01*
X150109523Y-83863810D01*
X150147619Y-83825714D01*
X150185714Y-83749524D01*
X150185714Y-83673333D01*
X150147619Y-83597143D01*
X150109523Y-83559048D01*
X150033333Y-83520952D01*
X149880952Y-83482857D01*
X149804761Y-83444762D01*
X149766666Y-83406667D01*
X149728571Y-83330476D01*
X149728571Y-83254286D01*
X149766666Y-83178095D01*
X149804761Y-83140000D01*
X149880952Y-83101905D01*
X150071428Y-83101905D01*
X150185714Y-83140000D01*
X150452381Y-83101905D02*
X150642857Y-83901905D01*
X150795238Y-83330476D01*
X150947619Y-83901905D01*
X151138095Y-83101905D01*
X151900000Y-83825714D02*
X151861905Y-83863810D01*
X151747619Y-83901905D01*
X151671429Y-83901905D01*
X151557143Y-83863810D01*
X151480952Y-83787619D01*
X151442857Y-83711429D01*
X151404762Y-83559048D01*
X151404762Y-83444762D01*
X151442857Y-83292381D01*
X151480952Y-83216190D01*
X151557143Y-83140000D01*
X151671429Y-83101905D01*
X151747619Y-83101905D01*
X151861905Y-83140000D01*
X151900000Y-83178095D01*
X152623810Y-83901905D02*
X152242857Y-83901905D01*
X152242857Y-83101905D01*
X152890476Y-83901905D02*
X152890476Y-83101905D01*
X153347619Y-83901905D02*
X153004762Y-83444762D01*
X153347619Y-83101905D02*
X152890476Y-83559048D01*
X151671429Y-88220000D02*
X151595238Y-88181905D01*
X151480953Y-88181905D01*
X151366667Y-88220000D01*
X151290476Y-88296190D01*
X151252381Y-88372381D01*
X151214286Y-88524762D01*
X151214286Y-88639048D01*
X151252381Y-88791429D01*
X151290476Y-88867619D01*
X151366667Y-88943810D01*
X151480953Y-88981905D01*
X151557143Y-88981905D01*
X151671429Y-88943810D01*
X151709524Y-88905714D01*
X151709524Y-88639048D01*
X151557143Y-88639048D01*
X152052381Y-88981905D02*
X152052381Y-88181905D01*
X152509524Y-88981905D01*
X152509524Y-88181905D01*
X152890476Y-88981905D02*
X152890476Y-88181905D01*
X153080952Y-88181905D01*
X153195238Y-88220000D01*
X153271429Y-88296190D01*
X153309524Y-88372381D01*
X153347619Y-88524762D01*
X153347619Y-88639048D01*
X153309524Y-88791429D01*
X153271429Y-88867619D01*
X153195238Y-88943810D01*
X153080952Y-88981905D01*
X152890476Y-88981905D01*
X149957143Y-86403810D02*
X150071429Y-86441905D01*
X150261905Y-86441905D01*
X150338095Y-86403810D01*
X150376191Y-86365714D01*
X150414286Y-86289524D01*
X150414286Y-86213333D01*
X150376191Y-86137143D01*
X150338095Y-86099048D01*
X150261905Y-86060952D01*
X150109524Y-86022857D01*
X150033333Y-85984762D01*
X149995238Y-85946667D01*
X149957143Y-85870476D01*
X149957143Y-85794286D01*
X149995238Y-85718095D01*
X150033333Y-85680000D01*
X150109524Y-85641905D01*
X150300000Y-85641905D01*
X150414286Y-85680000D01*
X150680953Y-85641905D02*
X150871429Y-86441905D01*
X151023810Y-85870476D01*
X151176191Y-86441905D01*
X151366667Y-85641905D01*
X151671429Y-86441905D02*
X151671429Y-85641905D01*
X151861905Y-85641905D01*
X151976191Y-85680000D01*
X152052382Y-85756190D01*
X152090477Y-85832381D01*
X152128572Y-85984762D01*
X152128572Y-86099048D01*
X152090477Y-86251429D01*
X152052382Y-86327619D01*
X151976191Y-86403810D01*
X151861905Y-86441905D01*
X151671429Y-86441905D01*
X152471429Y-86441905D02*
X152471429Y-85641905D01*
X153004762Y-85641905D02*
X153157143Y-85641905D01*
X153233334Y-85680000D01*
X153309524Y-85756190D01*
X153347619Y-85908571D01*
X153347619Y-86175238D01*
X153309524Y-86327619D01*
X153233334Y-86403810D01*
X153157143Y-86441905D01*
X153004762Y-86441905D01*
X152928572Y-86403810D01*
X152852381Y-86327619D01*
X152814286Y-86175238D01*
X152814286Y-85908571D01*
X152852381Y-85756190D01*
X152928572Y-85680000D01*
X153004762Y-85641905D01*
X150680952Y-81361905D02*
X150680952Y-80561905D01*
X151138095Y-81361905D01*
X151138095Y-80561905D01*
X151976190Y-81361905D02*
X151709523Y-80980952D01*
X151519047Y-81361905D02*
X151519047Y-80561905D01*
X151823809Y-80561905D01*
X151900000Y-80600000D01*
X151938095Y-80638095D01*
X151976190Y-80714286D01*
X151976190Y-80828571D01*
X151938095Y-80904762D01*
X151900000Y-80942857D01*
X151823809Y-80980952D01*
X151519047Y-80980952D01*
X152280952Y-81323810D02*
X152395238Y-81361905D01*
X152585714Y-81361905D01*
X152661904Y-81323810D01*
X152700000Y-81285714D01*
X152738095Y-81209524D01*
X152738095Y-81133333D01*
X152700000Y-81057143D01*
X152661904Y-81019048D01*
X152585714Y-80980952D01*
X152433333Y-80942857D01*
X152357142Y-80904762D01*
X152319047Y-80866667D01*
X152280952Y-80790476D01*
X152280952Y-80714286D01*
X152319047Y-80638095D01*
X152357142Y-80600000D01*
X152433333Y-80561905D01*
X152623809Y-80561905D01*
X152738095Y-80600000D01*
X152966666Y-80561905D02*
X153423809Y-80561905D01*
X153195238Y-81361905D02*
X153195238Y-80561905D01*
D11*
X113200000Y-85025000D02*
X112000000Y-85025000D01*
X112000000Y-86975000D02*
X113200000Y-86975000D01*
X112010000Y-93185000D02*
X113210000Y-93185000D01*
X113210000Y-94935000D02*
X112010000Y-94935000D01*
X116520000Y-94600000D02*
X116520000Y-91900000D01*
X115020000Y-94600000D02*
X115020000Y-91900000D01*
X115920000Y-93100000D02*
X115670000Y-93100000D01*
X115670000Y-93100000D02*
X115820000Y-93250000D01*
X115420000Y-93350000D02*
X116120000Y-93350000D01*
X115770000Y-93000000D02*
X115770000Y-92650000D01*
X115770000Y-93350000D02*
X115420000Y-93000000D01*
X115420000Y-93000000D02*
X116120000Y-93000000D01*
X116120000Y-93000000D02*
X115770000Y-93350000D01*
X138210000Y-96220000D02*
X138210000Y-95220000D01*
X136510000Y-95220000D02*
X136510000Y-96220000D01*
X132990000Y-99450000D02*
X133990000Y-99450000D01*
X133990000Y-97750000D02*
X132990000Y-97750000D01*
X121200000Y-94000000D02*
X121200000Y-95000000D01*
X122900000Y-95000000D02*
X122900000Y-94000000D01*
X126930000Y-82500000D02*
X125930000Y-82500000D01*
X125930000Y-84200000D02*
X126930000Y-84200000D01*
X133620000Y-82470000D02*
X132620000Y-82470000D01*
X132620000Y-84170000D02*
X133620000Y-84170000D01*
X126940000Y-80520000D02*
X125940000Y-80520000D01*
X125940000Y-82220000D02*
X126940000Y-82220000D01*
X140440000Y-89540000D02*
X140440000Y-88540000D01*
X138740000Y-88540000D02*
X138740000Y-89540000D01*
X138350000Y-89530000D02*
X138350000Y-88530000D01*
X136650000Y-88530000D02*
X136650000Y-89530000D01*
X146350000Y-89550000D02*
X145350000Y-89550000D01*
X145350000Y-91250000D02*
X146350000Y-91250000D01*
X146350000Y-87150000D02*
X145350000Y-87150000D01*
X145350000Y-88850000D02*
X146350000Y-88850000D01*
X112160000Y-92880000D02*
X113160000Y-92880000D01*
X113160000Y-91180000D02*
X112160000Y-91180000D01*
X146350000Y-93700000D02*
X145350000Y-93700000D01*
X145350000Y-95400000D02*
X146350000Y-95400000D01*
X112510000Y-89790000D02*
X112510000Y-88790000D01*
X110810000Y-88790000D02*
X110810000Y-89790000D01*
X106100000Y-82700000D02*
X106700000Y-82100000D01*
X106700000Y-78300000D02*
X106700000Y-82300000D01*
X104300000Y-82700000D02*
X104300000Y-78300000D01*
X106700000Y-82300000D02*
X106700000Y-82700000D01*
X104300000Y-78300000D02*
X106700000Y-78300000D01*
X104300000Y-82700000D02*
X106700000Y-82700000D01*
X135175000Y-96175000D02*
X135175000Y-95175000D01*
X124825000Y-96175000D02*
X124825000Y-95100000D01*
X124825000Y-85825000D02*
X124825000Y-86900000D01*
X135175000Y-85825000D02*
X135175000Y-86900000D01*
X135175000Y-96175000D02*
X134100000Y-96175000D01*
X135175000Y-85825000D02*
X134100000Y-85825000D01*
X124825000Y-85825000D02*
X125900000Y-85825000D01*
X124825000Y-96175000D02*
X125900000Y-96175000D01*
X135175000Y-95175000D02*
X136200000Y-95175000D01*
X155400000Y-71190000D02*
X104600000Y-71190000D01*
X107140000Y-76270000D02*
X155400000Y-76270000D01*
X155400000Y-71190000D02*
X155400000Y-76270000D01*
X104600000Y-71190000D02*
X104600000Y-73730000D01*
X104320000Y-75000000D02*
X104320000Y-76550000D01*
X104600000Y-73730000D02*
X107140000Y-73730000D01*
X107140000Y-73730000D02*
X107140000Y-76270000D01*
X104320000Y-76550000D02*
X105870000Y-76550000D01*
X153700000Y-79450000D02*
X153700000Y-81000000D01*
X155000000Y-79450000D02*
X153700000Y-79450000D01*
X159191000Y-80873000D02*
X165033000Y-80873000D01*
X165033000Y-80873000D02*
X165033000Y-81127000D01*
X165033000Y-81127000D02*
X159191000Y-81127000D01*
X159191000Y-81127000D02*
X159191000Y-81000000D01*
X159191000Y-81000000D02*
X165033000Y-81000000D01*
X156524000Y-80746000D02*
X156143000Y-80746000D01*
X156524000Y-81254000D02*
X156143000Y-81254000D01*
X156524000Y-83286000D02*
X156143000Y-83286000D01*
X156524000Y-83794000D02*
X156143000Y-83794000D01*
X156524000Y-85826000D02*
X156143000Y-85826000D01*
X156524000Y-86334000D02*
X156143000Y-86334000D01*
X156524000Y-88366000D02*
X156143000Y-88366000D01*
X156524000Y-88874000D02*
X156143000Y-88874000D01*
X156524000Y-91414000D02*
X156143000Y-91414000D01*
X156524000Y-90906000D02*
X156143000Y-90906000D01*
X159064000Y-82270000D02*
X159064000Y-79730000D01*
X165160000Y-81254000D02*
X159064000Y-81254000D01*
X165160000Y-80746000D02*
X165160000Y-81254000D01*
X159064000Y-80746000D02*
X165160000Y-80746000D01*
X156524000Y-82270000D02*
X159064000Y-82270000D01*
X156524000Y-79730000D02*
X156524000Y-82270000D01*
X156524000Y-79730000D02*
X159064000Y-79730000D01*
X156524000Y-84810000D02*
X159064000Y-84810000D01*
X156524000Y-84810000D02*
X156524000Y-87350000D01*
X156524000Y-87350000D02*
X159064000Y-87350000D01*
X159064000Y-85826000D02*
X165160000Y-85826000D01*
X165160000Y-85826000D02*
X165160000Y-86334000D01*
X165160000Y-86334000D02*
X159064000Y-86334000D01*
X159064000Y-87350000D02*
X159064000Y-84810000D01*
X159064000Y-84810000D02*
X159064000Y-82270000D01*
X165160000Y-83794000D02*
X159064000Y-83794000D01*
X165160000Y-83286000D02*
X165160000Y-83794000D01*
X159064000Y-83286000D02*
X165160000Y-83286000D01*
X156524000Y-84810000D02*
X159064000Y-84810000D01*
X156524000Y-82270000D02*
X156524000Y-84810000D01*
X156524000Y-82270000D02*
X159064000Y-82270000D01*
X156524000Y-89890000D02*
X159064000Y-89890000D01*
X156524000Y-89890000D02*
X156524000Y-92430000D01*
X156524000Y-92430000D02*
X159064000Y-92430000D01*
X159064000Y-90906000D02*
X165160000Y-90906000D01*
X165160000Y-90906000D02*
X165160000Y-91414000D01*
X165160000Y-91414000D02*
X159064000Y-91414000D01*
X159064000Y-92430000D02*
X159064000Y-89890000D01*
X159064000Y-89890000D02*
X159064000Y-87350000D01*
X165160000Y-88874000D02*
X159064000Y-88874000D01*
X165160000Y-88366000D02*
X165160000Y-88874000D01*
X159064000Y-88366000D02*
X165160000Y-88366000D01*
X156524000Y-89890000D02*
X159064000Y-89890000D01*
X156524000Y-87350000D02*
X156524000Y-89890000D01*
X156524000Y-87350000D02*
X159064000Y-87350000D01*
X101400820Y-86149360D02*
X101400820Y-93850640D01*
X100400060Y-86149360D02*
X100400060Y-93850640D01*
X100400060Y-93850640D02*
X109599940Y-93850640D01*
X109599940Y-93850640D02*
X109599940Y-86149360D01*
X109599940Y-86149360D02*
X100400060Y-86149360D01*
X144200000Y-89900000D02*
X144200000Y-94200000D01*
X140800000Y-95150000D02*
X140800000Y-89900000D01*
X119700000Y-87220000D02*
X119700000Y-91620000D01*
X117100000Y-87220000D02*
X117100000Y-91620000D01*
X146150714Y-83250000D02*
G75*
G03X146150714Y-83250000I-1750714J0D01*
G01*
X141175000Y-86475000D02*
X141175000Y-86450000D01*
X141175000Y-80025000D02*
X141175000Y-80050000D01*
X147625000Y-80025000D02*
X147625000Y-80050000D01*
X147625000Y-86450000D02*
X147625000Y-86475000D01*
X141175000Y-84550000D02*
X141175000Y-81950000D01*
X147625000Y-86475000D02*
X141175000Y-86475000D01*
X147625000Y-84550000D02*
X147625000Y-81950000D01*
X147625000Y-80025000D02*
X141175000Y-80025000D01*
D13*
X113890000Y-90670000D02*
X115690000Y-90670000D01*
X115690000Y-87450000D02*
X113240000Y-87450000D01*
D11*
X119150000Y-81250000D02*
X121850000Y-81250000D01*
X119150000Y-79750000D02*
X121850000Y-79750000D01*
X120650000Y-80650000D02*
X120650000Y-80400000D01*
X120650000Y-80400000D02*
X120500000Y-80550000D01*
X120400000Y-80150000D02*
X120400000Y-80850000D01*
X120750000Y-80500000D02*
X121100000Y-80500000D01*
X120400000Y-80500000D02*
X120750000Y-80150000D01*
X120750000Y-80150000D02*
X120750000Y-80850000D01*
X120750000Y-80850000D02*
X120400000Y-80500000D01*
X116400000Y-79625000D02*
X117600000Y-79625000D01*
X117600000Y-81375000D02*
X116400000Y-81375000D01*
X112400000Y-84377143D02*
X112200000Y-84377143D01*
X112200000Y-84691429D02*
X112200000Y-84091429D01*
X112485714Y-84091429D01*
X113028572Y-84691429D02*
X112685715Y-84691429D01*
X112857143Y-84691429D02*
X112857143Y-84091429D01*
X112800000Y-84177143D01*
X112742858Y-84234286D01*
X112685715Y-84262857D01*
X110400000Y-94331429D02*
X110200000Y-94045714D01*
X110057143Y-94331429D02*
X110057143Y-93731429D01*
X110285715Y-93731429D01*
X110342857Y-93760000D01*
X110371429Y-93788571D01*
X110400000Y-93845714D01*
X110400000Y-93931429D01*
X110371429Y-93988571D01*
X110342857Y-94017143D01*
X110285715Y-94045714D01*
X110057143Y-94045714D01*
X110971429Y-94331429D02*
X110628572Y-94331429D01*
X110800000Y-94331429D02*
X110800000Y-93731429D01*
X110742857Y-93817143D01*
X110685715Y-93874286D01*
X110628572Y-93902857D01*
X115327143Y-95671429D02*
X115327143Y-95071429D01*
X115470000Y-95071429D01*
X115555715Y-95100000D01*
X115612857Y-95157143D01*
X115641429Y-95214286D01*
X115670000Y-95328571D01*
X115670000Y-95414286D01*
X115641429Y-95528571D01*
X115612857Y-95585714D01*
X115555715Y-95642857D01*
X115470000Y-95671429D01*
X115327143Y-95671429D01*
X116241429Y-95671429D02*
X115898572Y-95671429D01*
X116070000Y-95671429D02*
X116070000Y-95071429D01*
X116012857Y-95157143D01*
X115955715Y-95214286D01*
X115898572Y-95242857D01*
X136974285Y-93814286D02*
X136945714Y-93842857D01*
X136860000Y-93871429D01*
X136802857Y-93871429D01*
X136717142Y-93842857D01*
X136660000Y-93785714D01*
X136631428Y-93728571D01*
X136602857Y-93614286D01*
X136602857Y-93528571D01*
X136631428Y-93414286D01*
X136660000Y-93357143D01*
X136717142Y-93300000D01*
X136802857Y-93271429D01*
X136860000Y-93271429D01*
X136945714Y-93300000D01*
X136974285Y-93328571D01*
X137545714Y-93871429D02*
X137202857Y-93871429D01*
X137374285Y-93871429D02*
X137374285Y-93271429D01*
X137317142Y-93357143D01*
X137260000Y-93414286D01*
X137202857Y-93442857D01*
X137745714Y-93271429D02*
X138117143Y-93271429D01*
X137917143Y-93500000D01*
X138002857Y-93500000D01*
X138060000Y-93528571D01*
X138088571Y-93557143D01*
X138117143Y-93614286D01*
X138117143Y-93757143D01*
X138088571Y-93814286D01*
X138060000Y-93842857D01*
X138002857Y-93871429D01*
X137831429Y-93871429D01*
X137774286Y-93842857D01*
X137745714Y-93814286D01*
X130494285Y-98814286D02*
X130465714Y-98842857D01*
X130380000Y-98871429D01*
X130322857Y-98871429D01*
X130237142Y-98842857D01*
X130180000Y-98785714D01*
X130151428Y-98728571D01*
X130122857Y-98614286D01*
X130122857Y-98528571D01*
X130151428Y-98414286D01*
X130180000Y-98357143D01*
X130237142Y-98300000D01*
X130322857Y-98271429D01*
X130380000Y-98271429D01*
X130465714Y-98300000D01*
X130494285Y-98328571D01*
X131065714Y-98871429D02*
X130722857Y-98871429D01*
X130894285Y-98871429D02*
X130894285Y-98271429D01*
X130837142Y-98357143D01*
X130780000Y-98414286D01*
X130722857Y-98442857D01*
X131294286Y-98328571D02*
X131322857Y-98300000D01*
X131380000Y-98271429D01*
X131522857Y-98271429D01*
X131580000Y-98300000D01*
X131608571Y-98328571D01*
X131637143Y-98385714D01*
X131637143Y-98442857D01*
X131608571Y-98528571D01*
X131265714Y-98871429D01*
X131637143Y-98871429D01*
X121664285Y-92514286D02*
X121635714Y-92542857D01*
X121550000Y-92571429D01*
X121492857Y-92571429D01*
X121407142Y-92542857D01*
X121350000Y-92485714D01*
X121321428Y-92428571D01*
X121292857Y-92314286D01*
X121292857Y-92228571D01*
X121321428Y-92114286D01*
X121350000Y-92057143D01*
X121407142Y-92000000D01*
X121492857Y-91971429D01*
X121550000Y-91971429D01*
X121635714Y-92000000D01*
X121664285Y-92028571D01*
X122235714Y-92571429D02*
X121892857Y-92571429D01*
X122064285Y-92571429D02*
X122064285Y-91971429D01*
X122007142Y-92057143D01*
X121950000Y-92114286D01*
X121892857Y-92142857D01*
X122807143Y-92571429D02*
X122464286Y-92571429D01*
X122635714Y-92571429D02*
X122635714Y-91971429D01*
X122578571Y-92057143D01*
X122521429Y-92114286D01*
X122464286Y-92142857D01*
X123364285Y-83564286D02*
X123335714Y-83592857D01*
X123250000Y-83621429D01*
X123192857Y-83621429D01*
X123107142Y-83592857D01*
X123050000Y-83535714D01*
X123021428Y-83478571D01*
X122992857Y-83364286D01*
X122992857Y-83278571D01*
X123021428Y-83164286D01*
X123050000Y-83107143D01*
X123107142Y-83050000D01*
X123192857Y-83021429D01*
X123250000Y-83021429D01*
X123335714Y-83050000D01*
X123364285Y-83078571D01*
X123935714Y-83621429D02*
X123592857Y-83621429D01*
X123764285Y-83621429D02*
X123764285Y-83021429D01*
X123707142Y-83107143D01*
X123650000Y-83164286D01*
X123592857Y-83192857D01*
X124307143Y-83021429D02*
X124364286Y-83021429D01*
X124421429Y-83050000D01*
X124450000Y-83078571D01*
X124478571Y-83135714D01*
X124507143Y-83250000D01*
X124507143Y-83392857D01*
X124478571Y-83507143D01*
X124450000Y-83564286D01*
X124421429Y-83592857D01*
X124364286Y-83621429D01*
X124307143Y-83621429D01*
X124250000Y-83592857D01*
X124221429Y-83564286D01*
X124192857Y-83507143D01*
X124164286Y-83392857D01*
X124164286Y-83250000D01*
X124192857Y-83135714D01*
X124221429Y-83078571D01*
X124250000Y-83050000D01*
X124307143Y-83021429D01*
X135320000Y-83534286D02*
X135291429Y-83562857D01*
X135205715Y-83591429D01*
X135148572Y-83591429D01*
X135062857Y-83562857D01*
X135005715Y-83505714D01*
X134977143Y-83448571D01*
X134948572Y-83334286D01*
X134948572Y-83248571D01*
X134977143Y-83134286D01*
X135005715Y-83077143D01*
X135062857Y-83020000D01*
X135148572Y-82991429D01*
X135205715Y-82991429D01*
X135291429Y-83020000D01*
X135320000Y-83048571D01*
X135605715Y-83591429D02*
X135720000Y-83591429D01*
X135777143Y-83562857D01*
X135805715Y-83534286D01*
X135862857Y-83448571D01*
X135891429Y-83334286D01*
X135891429Y-83105714D01*
X135862857Y-83048571D01*
X135834286Y-83020000D01*
X135777143Y-82991429D01*
X135662857Y-82991429D01*
X135605715Y-83020000D01*
X135577143Y-83048571D01*
X135548572Y-83105714D01*
X135548572Y-83248571D01*
X135577143Y-83305714D01*
X135605715Y-83334286D01*
X135662857Y-83362857D01*
X135777143Y-83362857D01*
X135834286Y-83334286D01*
X135862857Y-83305714D01*
X135891429Y-83248571D01*
X123970000Y-81584286D02*
X123941429Y-81612857D01*
X123855715Y-81641429D01*
X123798572Y-81641429D01*
X123712857Y-81612857D01*
X123655715Y-81555714D01*
X123627143Y-81498571D01*
X123598572Y-81384286D01*
X123598572Y-81298571D01*
X123627143Y-81184286D01*
X123655715Y-81127143D01*
X123712857Y-81070000D01*
X123798572Y-81041429D01*
X123855715Y-81041429D01*
X123941429Y-81070000D01*
X123970000Y-81098571D01*
X124312857Y-81298571D02*
X124255715Y-81270000D01*
X124227143Y-81241429D01*
X124198572Y-81184286D01*
X124198572Y-81155714D01*
X124227143Y-81098571D01*
X124255715Y-81070000D01*
X124312857Y-81041429D01*
X124427143Y-81041429D01*
X124484286Y-81070000D01*
X124512857Y-81098571D01*
X124541429Y-81155714D01*
X124541429Y-81184286D01*
X124512857Y-81241429D01*
X124484286Y-81270000D01*
X124427143Y-81298571D01*
X124312857Y-81298571D01*
X124255715Y-81327143D01*
X124227143Y-81355714D01*
X124198572Y-81412857D01*
X124198572Y-81527143D01*
X124227143Y-81584286D01*
X124255715Y-81612857D01*
X124312857Y-81641429D01*
X124427143Y-81641429D01*
X124484286Y-81612857D01*
X124512857Y-81584286D01*
X124541429Y-81527143D01*
X124541429Y-81412857D01*
X124512857Y-81355714D01*
X124484286Y-81327143D01*
X124427143Y-81298571D01*
X139480000Y-87114286D02*
X139451429Y-87142857D01*
X139365715Y-87171429D01*
X139308572Y-87171429D01*
X139222857Y-87142857D01*
X139165715Y-87085714D01*
X139137143Y-87028571D01*
X139108572Y-86914286D01*
X139108572Y-86828571D01*
X139137143Y-86714286D01*
X139165715Y-86657143D01*
X139222857Y-86600000D01*
X139308572Y-86571429D01*
X139365715Y-86571429D01*
X139451429Y-86600000D01*
X139480000Y-86628571D01*
X139680000Y-86571429D02*
X140080000Y-86571429D01*
X139822857Y-87171429D01*
X137400000Y-87114286D02*
X137371429Y-87142857D01*
X137285715Y-87171429D01*
X137228572Y-87171429D01*
X137142857Y-87142857D01*
X137085715Y-87085714D01*
X137057143Y-87028571D01*
X137028572Y-86914286D01*
X137028572Y-86828571D01*
X137057143Y-86714286D01*
X137085715Y-86657143D01*
X137142857Y-86600000D01*
X137228572Y-86571429D01*
X137285715Y-86571429D01*
X137371429Y-86600000D01*
X137400000Y-86628571D01*
X137914286Y-86571429D02*
X137800000Y-86571429D01*
X137742857Y-86600000D01*
X137714286Y-86628571D01*
X137657143Y-86714286D01*
X137628572Y-86828571D01*
X137628572Y-87057143D01*
X137657143Y-87114286D01*
X137685715Y-87142857D01*
X137742857Y-87171429D01*
X137857143Y-87171429D01*
X137914286Y-87142857D01*
X137942857Y-87114286D01*
X137971429Y-87057143D01*
X137971429Y-86914286D01*
X137942857Y-86857143D01*
X137914286Y-86828571D01*
X137857143Y-86800000D01*
X137742857Y-86800000D01*
X137685715Y-86828571D01*
X137657143Y-86857143D01*
X137628572Y-86914286D01*
X148050000Y-90614286D02*
X148021429Y-90642857D01*
X147935715Y-90671429D01*
X147878572Y-90671429D01*
X147792857Y-90642857D01*
X147735715Y-90585714D01*
X147707143Y-90528571D01*
X147678572Y-90414286D01*
X147678572Y-90328571D01*
X147707143Y-90214286D01*
X147735715Y-90157143D01*
X147792857Y-90100000D01*
X147878572Y-90071429D01*
X147935715Y-90071429D01*
X148021429Y-90100000D01*
X148050000Y-90128571D01*
X148592857Y-90071429D02*
X148307143Y-90071429D01*
X148278572Y-90357143D01*
X148307143Y-90328571D01*
X148364286Y-90300000D01*
X148507143Y-90300000D01*
X148564286Y-90328571D01*
X148592857Y-90357143D01*
X148621429Y-90414286D01*
X148621429Y-90557143D01*
X148592857Y-90614286D01*
X148564286Y-90642857D01*
X148507143Y-90671429D01*
X148364286Y-90671429D01*
X148307143Y-90642857D01*
X148278572Y-90614286D01*
X148050000Y-88214286D02*
X148021429Y-88242857D01*
X147935715Y-88271429D01*
X147878572Y-88271429D01*
X147792857Y-88242857D01*
X147735715Y-88185714D01*
X147707143Y-88128571D01*
X147678572Y-88014286D01*
X147678572Y-87928571D01*
X147707143Y-87814286D01*
X147735715Y-87757143D01*
X147792857Y-87700000D01*
X147878572Y-87671429D01*
X147935715Y-87671429D01*
X148021429Y-87700000D01*
X148050000Y-87728571D01*
X148564286Y-87871429D02*
X148564286Y-88271429D01*
X148421429Y-87642857D02*
X148278572Y-88071429D01*
X148650000Y-88071429D01*
X110410000Y-92244286D02*
X110381429Y-92272857D01*
X110295715Y-92301429D01*
X110238572Y-92301429D01*
X110152857Y-92272857D01*
X110095715Y-92215714D01*
X110067143Y-92158571D01*
X110038572Y-92044286D01*
X110038572Y-91958571D01*
X110067143Y-91844286D01*
X110095715Y-91787143D01*
X110152857Y-91730000D01*
X110238572Y-91701429D01*
X110295715Y-91701429D01*
X110381429Y-91730000D01*
X110410000Y-91758571D01*
X110610000Y-91701429D02*
X110981429Y-91701429D01*
X110781429Y-91930000D01*
X110867143Y-91930000D01*
X110924286Y-91958571D01*
X110952857Y-91987143D01*
X110981429Y-92044286D01*
X110981429Y-92187143D01*
X110952857Y-92244286D01*
X110924286Y-92272857D01*
X110867143Y-92301429D01*
X110695715Y-92301429D01*
X110638572Y-92272857D01*
X110610000Y-92244286D01*
X148050000Y-94764286D02*
X148021429Y-94792857D01*
X147935715Y-94821429D01*
X147878572Y-94821429D01*
X147792857Y-94792857D01*
X147735715Y-94735714D01*
X147707143Y-94678571D01*
X147678572Y-94564286D01*
X147678572Y-94478571D01*
X147707143Y-94364286D01*
X147735715Y-94307143D01*
X147792857Y-94250000D01*
X147878572Y-94221429D01*
X147935715Y-94221429D01*
X148021429Y-94250000D01*
X148050000Y-94278571D01*
X148278572Y-94278571D02*
X148307143Y-94250000D01*
X148364286Y-94221429D01*
X148507143Y-94221429D01*
X148564286Y-94250000D01*
X148592857Y-94278571D01*
X148621429Y-94335714D01*
X148621429Y-94392857D01*
X148592857Y-94478571D01*
X148250000Y-94821429D01*
X148621429Y-94821429D01*
X110270000Y-88544286D02*
X110241429Y-88572857D01*
X110155715Y-88601429D01*
X110098572Y-88601429D01*
X110012857Y-88572857D01*
X109955715Y-88515714D01*
X109927143Y-88458571D01*
X109898572Y-88344286D01*
X109898572Y-88258571D01*
X109927143Y-88144286D01*
X109955715Y-88087143D01*
X110012857Y-88030000D01*
X110098572Y-88001429D01*
X110155715Y-88001429D01*
X110241429Y-88030000D01*
X110270000Y-88058571D01*
X110841429Y-88601429D02*
X110498572Y-88601429D01*
X110670000Y-88601429D02*
X110670000Y-88001429D01*
X110612857Y-88087143D01*
X110555715Y-88144286D01*
X110498572Y-88172857D01*
X105600000Y-82057143D02*
X105600000Y-81771429D01*
X105771429Y-82114286D02*
X105171429Y-81914286D01*
X105771429Y-81714286D01*
X105771429Y-81514286D02*
X105171429Y-81514286D01*
X105171429Y-81285714D01*
X105200000Y-81228572D01*
X105228571Y-81200000D01*
X105285714Y-81171429D01*
X105371429Y-81171429D01*
X105428571Y-81200000D01*
X105457143Y-81228572D01*
X105485714Y-81285714D01*
X105485714Y-81514286D01*
X105600000Y-80942857D02*
X105600000Y-80657143D01*
X105771429Y-81000000D02*
X105171429Y-80800000D01*
X105771429Y-80600000D01*
X105771429Y-80085714D02*
X105771429Y-80428571D01*
X105771429Y-80257143D02*
X105171429Y-80257143D01*
X105257143Y-80314286D01*
X105314286Y-80371428D01*
X105342857Y-80428571D01*
X105171429Y-79714285D02*
X105171429Y-79657142D01*
X105200000Y-79599999D01*
X105228571Y-79571428D01*
X105285714Y-79542857D01*
X105400000Y-79514285D01*
X105542857Y-79514285D01*
X105657143Y-79542857D01*
X105714286Y-79571428D01*
X105742857Y-79599999D01*
X105771429Y-79657142D01*
X105771429Y-79714285D01*
X105742857Y-79771428D01*
X105714286Y-79799999D01*
X105657143Y-79828571D01*
X105542857Y-79857142D01*
X105400000Y-79857142D01*
X105285714Y-79828571D01*
X105228571Y-79799999D01*
X105200000Y-79771428D01*
X105171429Y-79714285D01*
X105228571Y-79285713D02*
X105200000Y-79257142D01*
X105171429Y-79199999D01*
X105171429Y-79057142D01*
X105200000Y-78999999D01*
X105228571Y-78971428D01*
X105285714Y-78942856D01*
X105342857Y-78942856D01*
X105428571Y-78971428D01*
X105771429Y-79314285D01*
X105771429Y-78942856D01*
X129462857Y-90701429D02*
X129462857Y-91187143D01*
X129491429Y-91244286D01*
X129520000Y-91272857D01*
X129577143Y-91301429D01*
X129691429Y-91301429D01*
X129748571Y-91272857D01*
X129777143Y-91244286D01*
X129805714Y-91187143D01*
X129805714Y-90701429D01*
X130062857Y-90758571D02*
X130091428Y-90730000D01*
X130148571Y-90701429D01*
X130291428Y-90701429D01*
X130348571Y-90730000D01*
X130377142Y-90758571D01*
X130405714Y-90815714D01*
X130405714Y-90872857D01*
X130377142Y-90958571D01*
X130034285Y-91301429D01*
X130405714Y-91301429D01*
X105407143Y-90271429D02*
X105407143Y-89671429D01*
X105635715Y-89671429D01*
X105692857Y-89700000D01*
X105721429Y-89728571D01*
X105750000Y-89785714D01*
X105750000Y-89871429D01*
X105721429Y-89928571D01*
X105692857Y-89957143D01*
X105635715Y-89985714D01*
X105407143Y-89985714D01*
X106321429Y-90271429D02*
X105978572Y-90271429D01*
X106150000Y-90271429D02*
X106150000Y-89671429D01*
X106092857Y-89757143D01*
X106035715Y-89814286D01*
X105978572Y-89842857D01*
X142214286Y-92485714D02*
X142214286Y-92771429D01*
X142014286Y-92171429D02*
X142214286Y-92485714D01*
X142414286Y-92171429D01*
X142928572Y-92771429D02*
X142585715Y-92771429D01*
X142757143Y-92771429D02*
X142757143Y-92171429D01*
X142700000Y-92257143D01*
X142642858Y-92314286D01*
X142585715Y-92342857D01*
X118300000Y-86911429D02*
X118014286Y-86911429D01*
X118014286Y-86311429D01*
X118814286Y-86911429D02*
X118471429Y-86911429D01*
X118642857Y-86911429D02*
X118642857Y-86311429D01*
X118585714Y-86397143D01*
X118528572Y-86454286D01*
X118471429Y-86482857D01*
X143600000Y-83492857D02*
X143685714Y-83521429D01*
X143828571Y-83521429D01*
X143885714Y-83492857D01*
X143914285Y-83464286D01*
X143942857Y-83407143D01*
X143942857Y-83350000D01*
X143914285Y-83292857D01*
X143885714Y-83264286D01*
X143828571Y-83235714D01*
X143714285Y-83207143D01*
X143657143Y-83178571D01*
X143628571Y-83150000D01*
X143600000Y-83092857D01*
X143600000Y-83035714D01*
X143628571Y-82978571D01*
X143657143Y-82950000D01*
X143714285Y-82921429D01*
X143857143Y-82921429D01*
X143942857Y-82950000D01*
X144142857Y-82921429D02*
X144285714Y-83521429D01*
X144400000Y-83092857D01*
X144514286Y-83521429D01*
X144657143Y-82921429D01*
X145200000Y-83521429D02*
X144857143Y-83521429D01*
X145028571Y-83521429D02*
X145028571Y-82921429D01*
X144971428Y-83007143D01*
X144914286Y-83064286D01*
X144857143Y-83092857D01*
X114732857Y-86601429D02*
X114732857Y-87087143D01*
X114761429Y-87144286D01*
X114790000Y-87172857D01*
X114847143Y-87201429D01*
X114961429Y-87201429D01*
X115018571Y-87172857D01*
X115047143Y-87144286D01*
X115075714Y-87087143D01*
X115075714Y-86601429D01*
X115675714Y-87201429D02*
X115332857Y-87201429D01*
X115504285Y-87201429D02*
X115504285Y-86601429D01*
X115447142Y-86687143D01*
X115390000Y-86744286D01*
X115332857Y-86772857D01*
X120307143Y-79371429D02*
X120307143Y-78771429D01*
X120450000Y-78771429D01*
X120535715Y-78800000D01*
X120592857Y-78857143D01*
X120621429Y-78914286D01*
X120650000Y-79028571D01*
X120650000Y-79114286D01*
X120621429Y-79228571D01*
X120592857Y-79285714D01*
X120535715Y-79342857D01*
X120450000Y-79371429D01*
X120307143Y-79371429D01*
X120878572Y-78828571D02*
X120907143Y-78800000D01*
X120964286Y-78771429D01*
X121107143Y-78771429D01*
X121164286Y-78800000D01*
X121192857Y-78828571D01*
X121221429Y-78885714D01*
X121221429Y-78942857D01*
X121192857Y-79028571D01*
X120850000Y-79371429D01*
X121221429Y-79371429D01*
X116900000Y-79371429D02*
X116700000Y-79085714D01*
X116557143Y-79371429D02*
X116557143Y-78771429D01*
X116785715Y-78771429D01*
X116842857Y-78800000D01*
X116871429Y-78828571D01*
X116900000Y-78885714D01*
X116900000Y-78971429D01*
X116871429Y-79028571D01*
X116842857Y-79057143D01*
X116785715Y-79085714D01*
X116557143Y-79085714D01*
X117128572Y-78828571D02*
X117157143Y-78800000D01*
X117214286Y-78771429D01*
X117357143Y-78771429D01*
X117414286Y-78800000D01*
X117442857Y-78828571D01*
X117471429Y-78885714D01*
X117471429Y-78942857D01*
X117442857Y-79028571D01*
X117100000Y-79371429D01*
X117471429Y-79371429D01*
%LPC*%
D14*
X111500000Y-86000000D03*
X113700000Y-86000000D03*
D15*
X102500000Y-72500000D03*
D16*
X113560000Y-94060000D03*
X111660000Y-94060000D03*
D17*
X115770000Y-91950980D03*
X115770000Y-94049020D03*
D18*
X137360000Y-94720000D03*
X137360000Y-96720000D03*
D19*
X134490000Y-98600000D03*
X132490000Y-98600000D03*
D18*
X122050000Y-95500000D03*
X122050000Y-93500000D03*
D19*
X125430000Y-83350000D03*
X127430000Y-83350000D03*
X132120000Y-83320000D03*
X134120000Y-83320000D03*
X125440000Y-81370000D03*
X127440000Y-81370000D03*
D18*
X139590000Y-88040000D03*
X139590000Y-90040000D03*
X137500000Y-88030000D03*
X137500000Y-90030000D03*
D19*
X144850000Y-90400000D03*
X146850000Y-90400000D03*
X144850000Y-88000000D03*
X146850000Y-88000000D03*
X113660000Y-92030000D03*
X111660000Y-92030000D03*
X144850000Y-94550000D03*
X146850000Y-94550000D03*
D18*
X111660000Y-88290000D03*
X111660000Y-90290000D03*
D20*
X107700000Y-78900000D03*
X103300000Y-78900000D03*
D21*
X103300000Y-80500000D03*
X107700000Y-80500000D03*
D20*
X107700000Y-82100000D03*
X103300000Y-82100000D03*
D22*
X135700000Y-94750000D03*
X135700000Y-94250000D03*
X135700000Y-93750000D03*
X135700000Y-93250000D03*
X135700000Y-92750000D03*
X135700000Y-92250000D03*
X135700000Y-91750000D03*
X135700000Y-91250000D03*
X135700000Y-90750000D03*
X135700000Y-90250000D03*
X135700000Y-89750000D03*
X135700000Y-89250000D03*
X135700000Y-88750000D03*
X135700000Y-88250000D03*
X135700000Y-87750000D03*
X135700000Y-87250000D03*
D23*
X133750000Y-85300000D03*
X133250000Y-85300000D03*
X132750000Y-85300000D03*
X132250000Y-85300000D03*
X131750000Y-85300000D03*
X131250000Y-85300000D03*
X130750000Y-85300000D03*
X130250000Y-85300000D03*
X129750000Y-85300000D03*
X129250000Y-85300000D03*
X128750000Y-85300000D03*
X128250000Y-85300000D03*
X127750000Y-85300000D03*
X127250000Y-85300000D03*
X126750000Y-85300000D03*
X126250000Y-85300000D03*
D22*
X124300000Y-87250000D03*
X124300000Y-87750000D03*
X124300000Y-88250000D03*
X124300000Y-88750000D03*
X124300000Y-89250000D03*
X124300000Y-89750000D03*
X124300000Y-90250000D03*
X124300000Y-90750000D03*
X124300000Y-91250000D03*
X124300000Y-91750000D03*
X124300000Y-92250000D03*
X124300000Y-92750000D03*
X124300000Y-93250000D03*
X124300000Y-93750000D03*
X124300000Y-94250000D03*
X124300000Y-94750000D03*
D23*
X126250000Y-96700000D03*
X126750000Y-96700000D03*
X127250000Y-96700000D03*
X127750000Y-96700000D03*
X128250000Y-96700000D03*
X128750000Y-96700000D03*
X129250000Y-96700000D03*
X129750000Y-96700000D03*
X130250000Y-96700000D03*
X130750000Y-96700000D03*
X131250000Y-96700000D03*
X131750000Y-96700000D03*
X132250000Y-96700000D03*
X132750000Y-96700000D03*
X133250000Y-96700000D03*
X133750000Y-96700000D03*
D24*
X105870000Y-75000000D03*
D25*
X105870000Y-72460000D03*
X108410000Y-75000000D03*
X108410000Y-72460000D03*
X110950000Y-75000000D03*
X110950000Y-72460000D03*
X113490000Y-75000000D03*
X113490000Y-72460000D03*
X116030000Y-75000000D03*
X116030000Y-72460000D03*
X118570000Y-75000000D03*
X118570000Y-72460000D03*
X121110000Y-75000000D03*
X121110000Y-72460000D03*
X123650000Y-75000000D03*
X123650000Y-72460000D03*
X126190000Y-75000000D03*
X126190000Y-72460000D03*
X128730000Y-75000000D03*
X128730000Y-72460000D03*
X131270000Y-75000000D03*
X131270000Y-72460000D03*
X133810000Y-75000000D03*
X133810000Y-72460000D03*
X136350000Y-75000000D03*
X136350000Y-72460000D03*
X138890000Y-75000000D03*
X138890000Y-72460000D03*
X141430000Y-75000000D03*
X141430000Y-72460000D03*
X143970000Y-75000000D03*
X143970000Y-72460000D03*
X146510000Y-75000000D03*
X146510000Y-72460000D03*
X149050000Y-75000000D03*
X149050000Y-72460000D03*
X151590000Y-75000000D03*
X151590000Y-72460000D03*
X154130000Y-75000000D03*
X154130000Y-72460000D03*
D26*
X155000000Y-81000000D03*
D27*
X155000000Y-83540000D03*
X155000000Y-86080000D03*
X155000000Y-88620000D03*
X155000000Y-91160000D03*
D28*
X108449320Y-88399800D03*
X108449320Y-89199900D03*
X108449320Y-90000000D03*
X108449320Y-90800100D03*
X108449320Y-91600200D03*
D29*
X108350260Y-85549920D03*
X102851160Y-85549920D03*
X108350260Y-94450080D03*
X102851160Y-94450080D03*
D30*
X105850900Y-87800360D03*
X105850900Y-92199640D03*
D31*
X142500000Y-94550000D03*
X142500000Y-90450000D03*
D32*
X118400000Y-88132500D03*
X118400000Y-90707500D03*
D33*
X148375000Y-81000000D03*
X148375000Y-85500000D03*
X140425000Y-85500000D03*
X140425000Y-81000000D03*
D15*
X157500000Y-72500000D03*
X157500000Y-97500000D03*
X102500000Y-97500000D03*
D34*
X113690000Y-88110000D03*
X113690000Y-89060000D03*
X113690000Y-90010000D03*
X115890000Y-90010000D03*
X115890000Y-88110000D03*
D17*
X121799020Y-80500000D03*
X119700980Y-80500000D03*
D16*
X117950000Y-80500000D03*
X116050000Y-80500000D03*
M02*
