G04 #@! TF.FileFunction,Copper,L2,Bot,Signal*
%FSLAX46Y46*%
G04 Gerber Fmt 4.6, Leading zero omitted, Abs format (unit mm)*
G04 Created by KiCad (PCBNEW 4.0.5) date 12/27/16 09:40:05*
%MOMM*%
%LPD*%
G01*
G04 APERTURE LIST*
%ADD10C,0.100000*%
%ADD11R,1.727200X1.727200*%
%ADD12O,1.727200X1.727200*%
%ADD13R,2.032000X1.727200*%
%ADD14O,2.032000X1.727200*%
%ADD15R,1.200000X2.200000*%
%ADD16R,1.600000X1.400000*%
%ADD17R,1.200000X1.400000*%
%ADD18R,0.700000X1.600000*%
%ADD19C,0.889000*%
%ADD20C,0.685800*%
%ADD21C,0.254000*%
%ADD22C,0.152400*%
G04 APERTURE END LIST*
D10*
D11*
X105870000Y-75000000D03*
D12*
X105870000Y-72460000D03*
X108410000Y-75000000D03*
X108410000Y-72460000D03*
X110950000Y-75000000D03*
X110950000Y-72460000D03*
X113490000Y-75000000D03*
X113490000Y-72460000D03*
X116030000Y-75000000D03*
X116030000Y-72460000D03*
X118570000Y-75000000D03*
X118570000Y-72460000D03*
X121110000Y-75000000D03*
X121110000Y-72460000D03*
X123650000Y-75000000D03*
X123650000Y-72460000D03*
X126190000Y-75000000D03*
X126190000Y-72460000D03*
X128730000Y-75000000D03*
X128730000Y-72460000D03*
X131270000Y-75000000D03*
X131270000Y-72460000D03*
X133810000Y-75000000D03*
X133810000Y-72460000D03*
X136350000Y-75000000D03*
X136350000Y-72460000D03*
X138890000Y-75000000D03*
X138890000Y-72460000D03*
X141430000Y-75000000D03*
X141430000Y-72460000D03*
X143970000Y-75000000D03*
X143970000Y-72460000D03*
X146510000Y-75000000D03*
X146510000Y-72460000D03*
X149050000Y-75000000D03*
X149050000Y-72460000D03*
X151590000Y-75000000D03*
X151590000Y-72460000D03*
X154130000Y-75000000D03*
X154130000Y-72460000D03*
D13*
X155000000Y-81000000D03*
D14*
X155000000Y-83540000D03*
X155000000Y-86080000D03*
X155000000Y-88620000D03*
X155000000Y-91160000D03*
D15*
X121300000Y-94600000D03*
X136800000Y-94600000D03*
D16*
X122200000Y-85000000D03*
D17*
X136800000Y-85000000D03*
D18*
X135650000Y-84500000D03*
X133450000Y-84500000D03*
X134550000Y-84500000D03*
X132350000Y-84500000D03*
X131250000Y-84500000D03*
X130150000Y-84500000D03*
X126850000Y-84500000D03*
X127950000Y-84500000D03*
X129050000Y-84500000D03*
D19*
X112499998Y-94060000D03*
X109999998Y-79350000D03*
X125250000Y-85000000D03*
X124500000Y-76750000D03*
D20*
X111660000Y-89348814D03*
D19*
X158750000Y-78750000D03*
X157500000Y-78750000D03*
X156250000Y-78750000D03*
X155000000Y-78750000D03*
X153750000Y-78750000D03*
X152500000Y-78750000D03*
X151250000Y-78750000D03*
X150000000Y-78750000D03*
X148750000Y-78750000D03*
X147500000Y-78750000D03*
X145000000Y-78750000D03*
X143750000Y-78750000D03*
X142500000Y-78750000D03*
X154500000Y-98250000D03*
X153250000Y-98250000D03*
X152000000Y-98250000D03*
X150750000Y-98250000D03*
X149500000Y-98250000D03*
X148250000Y-98250000D03*
X147000000Y-98250000D03*
X145750000Y-98250000D03*
X144500000Y-98250000D03*
X143250000Y-98250000D03*
X142000000Y-98250000D03*
X154500000Y-97000000D03*
X153250000Y-97000000D03*
X152000000Y-97000000D03*
X150750000Y-97000000D03*
X149500000Y-97000000D03*
X148250000Y-97000000D03*
X147000000Y-97000000D03*
X145750000Y-97000000D03*
X144500000Y-97000000D03*
X143250000Y-97000000D03*
X142000000Y-97000000D03*
X139500000Y-98250000D03*
X140750000Y-98250000D03*
X140750000Y-97000000D03*
X105000000Y-98250000D03*
X106250000Y-98250000D03*
X107500000Y-98250000D03*
X108750000Y-98250000D03*
X110000000Y-98250000D03*
X111250000Y-98250000D03*
X112500000Y-98250000D03*
X113750000Y-98250000D03*
X115000000Y-98250000D03*
X116250000Y-98250000D03*
X105000000Y-97000000D03*
X106250000Y-97000000D03*
X107500000Y-97000000D03*
X108750000Y-97000000D03*
X110000000Y-97000000D03*
X111250000Y-97000000D03*
X112500000Y-97000000D03*
X113750000Y-97000000D03*
X115000000Y-97000000D03*
X138550000Y-91000000D03*
X158750000Y-77500000D03*
X157500000Y-77500000D03*
X156250000Y-77500000D03*
X155000000Y-77500000D03*
X153750000Y-77500000D03*
X152500000Y-77500000D03*
X151250000Y-77500000D03*
X150000000Y-77500000D03*
X148750000Y-77500000D03*
X147500000Y-77500000D03*
X145000000Y-77500000D03*
X143750000Y-77500000D03*
X142500000Y-77500000D03*
X133300000Y-81010000D03*
X102250000Y-92500000D03*
X102250000Y-91249998D03*
X102250000Y-90000000D03*
X102250000Y-88750000D03*
X102250000Y-87500000D03*
X103500000Y-92500000D03*
X103500002Y-91250000D03*
X103500000Y-88750000D03*
X103500000Y-87500000D03*
X103500000Y-90000000D03*
D20*
X119720000Y-94250000D03*
D19*
X135430000Y-96720000D03*
X139000000Y-95300000D03*
X137800000Y-98600000D03*
D20*
X127700002Y-77000000D03*
X132658065Y-86281814D03*
D19*
X132120000Y-80160000D03*
D20*
X125440002Y-80070000D03*
X131999998Y-91710000D03*
D19*
X119600000Y-95500000D03*
X118400000Y-92400000D03*
D20*
X130260000Y-77750000D03*
D19*
X123900000Y-95910000D03*
D20*
X110000000Y-78100000D03*
X111500000Y-78700000D03*
X113000000Y-79299998D03*
X122940000Y-81800000D03*
X124160000Y-82720000D03*
X135250000Y-81500000D03*
X136350000Y-81500000D03*
X136350000Y-80400000D03*
X137500000Y-80400000D03*
X132749998Y-89470000D03*
X132750000Y-90400000D03*
X126500000Y-90400000D03*
X127490000Y-90400000D03*
X130980000Y-90400000D03*
X128900000Y-90400000D03*
X120710000Y-97890000D03*
X118980000Y-97030000D03*
X117310000Y-96050000D03*
X129700000Y-95000000D03*
X129700000Y-92428494D03*
X131250000Y-93000000D03*
X132250000Y-93000000D03*
X134010000Y-92320000D03*
X134590000Y-89050000D03*
X140151314Y-77500000D03*
X119000002Y-77300000D03*
X116714119Y-83765881D03*
X115061510Y-81800000D03*
X126500000Y-93590000D03*
X127297600Y-97782400D03*
X121900000Y-87500000D03*
X129670000Y-86620000D03*
X130655608Y-86208158D03*
X121900000Y-88750000D03*
X119020000Y-81800000D03*
X123370000Y-97270000D03*
D21*
X112499998Y-93431383D02*
X112499998Y-94060000D01*
X111660000Y-89348814D02*
X112499998Y-90188812D01*
X112499998Y-90188812D02*
X112499998Y-93431383D01*
X111660000Y-81010002D02*
X110444497Y-79794499D01*
X111660000Y-89348814D02*
X111660000Y-81010002D01*
X110444497Y-79794499D02*
X109999998Y-79350000D01*
X122200000Y-85000000D02*
X125250000Y-85000000D01*
X124055501Y-77194499D02*
X124500000Y-76750000D01*
X122200000Y-85000000D02*
X122200000Y-79050000D01*
X122200000Y-79050000D02*
X124055501Y-77194499D01*
X136800000Y-85000000D02*
X136800000Y-83590000D01*
X136800000Y-83590000D02*
X135800000Y-82590000D01*
X135800000Y-82590000D02*
X134880000Y-82590000D01*
X134880000Y-82590000D02*
X133300000Y-81010000D01*
X111317101Y-89005915D02*
X111660000Y-89348814D01*
X105850000Y-85550000D02*
X107861186Y-85550000D01*
X107861186Y-85550000D02*
X111317101Y-89005915D01*
X132350000Y-84500000D02*
X132350000Y-83446000D01*
X132350000Y-83446000D02*
X133300000Y-82496000D01*
X133300000Y-82496000D02*
X133300000Y-81638617D01*
X133300000Y-81638617D02*
X133300000Y-81010000D01*
X105450000Y-85550000D02*
X105850000Y-85550000D01*
X103500000Y-87500000D02*
X105450000Y-85550000D01*
X147500000Y-77500000D02*
X151250000Y-77500000D01*
X151250000Y-77500000D02*
X153996822Y-77500000D01*
X122200000Y-85000000D02*
X122200000Y-82310000D01*
X119720000Y-94250000D02*
X120070000Y-94600000D01*
X120070000Y-94600000D02*
X121300000Y-94600000D01*
X135430000Y-96720000D02*
X135430000Y-94990000D01*
X135430000Y-94990000D02*
X135820000Y-94600000D01*
X135820000Y-94600000D02*
X136800000Y-94600000D01*
X139444499Y-94855501D02*
X139000000Y-95300000D01*
X155000000Y-91160000D02*
X143140000Y-91160000D01*
X143140000Y-91160000D02*
X139444499Y-94855501D01*
X126590000Y-98600000D02*
X137171383Y-98600000D01*
X123900000Y-95910000D02*
X126590000Y-98600000D01*
X137171383Y-98600000D02*
X137800000Y-98600000D01*
X127357103Y-77342899D02*
X127700002Y-77000000D01*
X125440002Y-79260000D02*
X127357103Y-77342899D01*
X125440002Y-80070000D02*
X125440002Y-79260000D01*
X132315166Y-86624713D02*
X132658065Y-86281814D01*
X131999998Y-86939881D02*
X132315166Y-86624713D01*
X131999998Y-91710000D02*
X131999998Y-86939881D01*
X130260000Y-77750000D02*
X132120000Y-79610000D01*
X132120000Y-79610000D02*
X132120000Y-80180000D01*
X132120000Y-80180000D02*
X130150000Y-82150000D01*
X130150000Y-82150000D02*
X130150000Y-83547600D01*
X130150000Y-83547600D02*
X130150000Y-84500000D01*
X119155501Y-95055501D02*
X119600000Y-95500000D01*
X118400000Y-94300000D02*
X119155501Y-95055501D01*
X118400000Y-92400000D02*
X118400000Y-94300000D01*
D22*
X106010000Y-78100000D02*
X109515067Y-78100000D01*
X105870000Y-72460000D02*
X104320000Y-74010000D01*
X109515067Y-78100000D02*
X110000000Y-78100000D01*
X104320000Y-76410000D02*
X106010000Y-78100000D01*
X104320000Y-74010000D02*
X104320000Y-76410000D01*
X111157101Y-78357101D02*
X111500000Y-78700000D01*
X107670000Y-76750000D02*
X109550000Y-76750000D01*
X109550000Y-76750000D02*
X111157101Y-78357101D01*
X107140000Y-73730000D02*
X107140000Y-76220000D01*
X108410000Y-72460000D02*
X107140000Y-73730000D01*
X107140000Y-76220000D02*
X107670000Y-76750000D01*
X112657101Y-78957099D02*
X113000000Y-79299998D01*
X109700000Y-75999998D02*
X112657101Y-78957099D01*
X109700000Y-73710000D02*
X109700000Y-75999998D01*
X110950000Y-72460000D02*
X109700000Y-73710000D01*
X126190000Y-75000000D02*
X126190000Y-76740000D01*
X126190000Y-76740000D02*
X122940000Y-79990000D01*
X122940000Y-79990000D02*
X122940000Y-81800000D01*
X124502899Y-82377101D02*
X124160000Y-82720000D01*
X128730000Y-75000000D02*
X128730000Y-78150000D01*
X128730000Y-78150000D02*
X124502899Y-82377101D01*
X131270000Y-77520000D02*
X134907101Y-81157101D01*
X131270000Y-75000000D02*
X131270000Y-77520000D01*
X134907101Y-81157101D02*
X135250000Y-81500000D01*
X136007101Y-81157101D02*
X136350000Y-81500000D01*
X133810000Y-75000000D02*
X133810000Y-78960000D01*
X133810000Y-78960000D02*
X136007101Y-81157101D01*
X136350000Y-75000000D02*
X136350000Y-80400000D01*
X137500000Y-79915067D02*
X137500000Y-80400000D01*
X137500000Y-76390000D02*
X137500000Y-79915067D01*
X138890000Y-75000000D02*
X137500000Y-76390000D01*
X133450000Y-84500000D02*
X133450000Y-86790267D01*
X133450000Y-86790267D02*
X133110000Y-87130267D01*
X133110000Y-87130267D02*
X133110000Y-89110000D01*
X133110000Y-89110000D02*
X132750000Y-89470000D01*
X132750000Y-89470000D02*
X132749998Y-89470000D01*
X134550000Y-84500000D02*
X134550000Y-86400000D01*
X134550000Y-86400000D02*
X133600000Y-87350000D01*
X133600000Y-87350000D02*
X133600000Y-89550000D01*
X133600000Y-89550000D02*
X132750000Y-90400000D01*
X126842899Y-90057101D02*
X126500000Y-90400000D01*
X126850000Y-90050000D02*
X126842899Y-90057101D01*
X126850000Y-84500000D02*
X126850000Y-90050000D01*
X127832899Y-90057101D02*
X127490000Y-90400000D01*
X127950000Y-89940000D02*
X127832899Y-90057101D01*
X127950000Y-84500000D02*
X127950000Y-89940000D01*
X131250000Y-90130000D02*
X130980000Y-90400000D01*
X131250000Y-84500000D02*
X131250000Y-90130000D01*
X129050000Y-90250000D02*
X128900000Y-90400000D01*
X129050000Y-84500000D02*
X129050000Y-90250000D01*
X113490000Y-72460000D02*
X112250000Y-73700000D01*
X112250000Y-73700000D02*
X112250000Y-75900000D01*
X112250000Y-75900000D02*
X114489991Y-78139991D01*
X114489991Y-78139991D02*
X114489991Y-95059991D01*
X114489991Y-95059991D02*
X117320000Y-97890000D01*
X117320000Y-97890000D02*
X120225067Y-97890000D01*
X120225067Y-97890000D02*
X120710000Y-97890000D01*
X116030000Y-72460000D02*
X114750000Y-73740000D01*
X114750000Y-73740000D02*
X114750000Y-76080000D01*
X114750000Y-76080000D02*
X115900000Y-77230000D01*
X115900000Y-77230000D02*
X115900000Y-95780000D01*
X115900000Y-95780000D02*
X117150000Y-97030000D01*
X117150000Y-97030000D02*
X118495067Y-97030000D01*
X118495067Y-97030000D02*
X118980000Y-97030000D01*
X117310000Y-95565067D02*
X117310000Y-96050000D01*
X117310000Y-73720000D02*
X117310000Y-95565067D01*
X118570000Y-72460000D02*
X117310000Y-73720000D01*
X121110000Y-72460000D02*
X119840000Y-73730000D01*
X119840000Y-73730000D02*
X119840000Y-90080000D01*
X119840000Y-90080000D02*
X123923012Y-94163012D01*
X123923012Y-94163012D02*
X128863012Y-94163012D01*
X128863012Y-94163012D02*
X129357101Y-94657101D01*
X129357101Y-94657101D02*
X129700000Y-95000000D01*
X123650000Y-72460000D02*
X122370000Y-73740000D01*
X122370000Y-73740000D02*
X122370000Y-76810000D01*
X122370000Y-76810000D02*
X120600000Y-78580000D01*
X120600000Y-78580000D02*
X120600000Y-89580000D01*
X120600000Y-89580000D02*
X123448494Y-92428494D01*
X123448494Y-92428494D02*
X129215067Y-92428494D01*
X129215067Y-92428494D02*
X129700000Y-92428494D01*
X121110000Y-75000000D02*
X120240000Y-75870000D01*
X120240000Y-75870000D02*
X120240000Y-89850000D01*
X120240000Y-89850000D02*
X123390000Y-93000000D01*
X123390000Y-93000000D02*
X130765067Y-93000000D01*
X130765067Y-93000000D02*
X131250000Y-93000000D01*
X123650000Y-75000000D02*
X123650000Y-76290000D01*
X123650000Y-76290000D02*
X121000000Y-78940000D01*
X121000000Y-78940000D02*
X121000000Y-89365824D01*
X121000000Y-89365824D02*
X123473798Y-91839622D01*
X123473798Y-91839622D02*
X131089622Y-91839622D01*
X131089622Y-91839622D02*
X131907101Y-92657101D01*
X131907101Y-92657101D02*
X132250000Y-93000000D01*
X134010000Y-91835067D02*
X134010000Y-92320000D01*
X134010000Y-87700000D02*
X134010000Y-91835067D01*
X135650000Y-86060000D02*
X134010000Y-87700000D01*
X135650000Y-84500000D02*
X135650000Y-86060000D01*
X146510000Y-75000000D02*
X146510000Y-81800000D01*
X146510000Y-81800000D02*
X141260000Y-87050000D01*
X141260000Y-87050000D02*
X135510000Y-87050000D01*
X135510000Y-87050000D02*
X134590000Y-87970000D01*
X134590000Y-87970000D02*
X134590000Y-89050000D01*
X141430000Y-75000000D02*
X141430000Y-76300000D01*
X141430000Y-76300000D02*
X140230000Y-77500000D01*
X140230000Y-77500000D02*
X140151314Y-77500000D01*
X118570000Y-75000000D02*
X118570000Y-76869998D01*
X118570000Y-76869998D02*
X118657103Y-76957101D01*
X118657103Y-76957101D02*
X119000002Y-77300000D01*
X116030000Y-75000000D02*
X116030000Y-76310000D01*
X116030000Y-76310000D02*
X116714119Y-76994119D01*
X116714119Y-76994119D02*
X116714119Y-83280948D01*
X116714119Y-83280948D02*
X116714119Y-83765881D01*
X113490000Y-75000000D02*
X113490000Y-76310000D01*
X115061510Y-81315067D02*
X115061510Y-81800000D01*
X113490000Y-76310000D02*
X115061510Y-77881510D01*
X115061510Y-77881510D02*
X115061510Y-81315067D01*
X126984933Y-93590000D02*
X126500000Y-93590000D01*
X139700000Y-92490000D02*
X135590000Y-92490000D01*
X135590000Y-92490000D02*
X134486306Y-93593694D01*
X146110000Y-86080000D02*
X139700000Y-92490000D01*
X155000000Y-86080000D02*
X146110000Y-86080000D01*
X132000174Y-93590000D02*
X126984933Y-93590000D01*
X134486306Y-93593694D02*
X132003868Y-93593694D01*
X132003868Y-93593694D02*
X132000174Y-93590000D01*
X155000000Y-83540000D02*
X156168400Y-83540000D01*
X156168400Y-83540000D02*
X156810000Y-84181600D01*
X156810000Y-84181600D02*
X156810000Y-91570000D01*
X156810000Y-91570000D02*
X152280000Y-96100000D01*
X152280000Y-96100000D02*
X140330000Y-96100000D01*
X140330000Y-96100000D02*
X138647600Y-97782400D01*
X138647600Y-97782400D02*
X137747600Y-97782400D01*
X137747600Y-97782400D02*
X127297600Y-97782400D01*
X122242899Y-87842899D02*
X121900000Y-87500000D01*
X125500000Y-91100000D02*
X122242899Y-87842899D01*
X129440000Y-91100000D02*
X125500000Y-91100000D01*
X129670000Y-90870000D02*
X129440000Y-91100000D01*
X129670000Y-86620000D02*
X129670000Y-90870000D01*
X130312709Y-86551057D02*
X130655608Y-86208158D01*
X130312709Y-91087291D02*
X130312709Y-86551057D01*
X129935189Y-91464811D02*
X130312709Y-91087291D01*
X124614811Y-91464811D02*
X129935189Y-91464811D01*
X121900000Y-88750000D02*
X124614811Y-91464811D01*
X118677101Y-82142899D02*
X119020000Y-81800000D01*
X117640000Y-83180000D02*
X118677101Y-82142899D01*
X117640000Y-94650000D02*
X117640000Y-83180000D01*
X120260000Y-97270000D02*
X117640000Y-94650000D01*
X123370000Y-97270000D02*
X120260000Y-97270000D01*
D21*
G36*
X157759900Y-70568426D02*
X157117427Y-70567866D01*
X156407153Y-70861345D01*
X155863255Y-71404295D01*
X155568536Y-72114055D01*
X155567866Y-72882573D01*
X155861345Y-73592847D01*
X156404295Y-74136745D01*
X157114055Y-74431464D01*
X157882573Y-74432134D01*
X158592847Y-74138655D01*
X159136745Y-73595705D01*
X159431464Y-72885945D01*
X159432025Y-72242368D01*
X159493200Y-72549916D01*
X159493200Y-97450084D01*
X159431574Y-97759900D01*
X159432134Y-97117427D01*
X159138655Y-96407153D01*
X158595705Y-95863255D01*
X157885945Y-95568536D01*
X157117427Y-95567866D01*
X156407153Y-95861345D01*
X155863255Y-96404295D01*
X155568536Y-97114055D01*
X155567866Y-97882573D01*
X155861345Y-98592847D01*
X156404295Y-99136745D01*
X157114055Y-99431464D01*
X157757632Y-99432025D01*
X157450084Y-99493200D01*
X102549916Y-99493200D01*
X102240100Y-99431574D01*
X102882573Y-99432134D01*
X103592847Y-99138655D01*
X104136745Y-98595705D01*
X104431464Y-97885945D01*
X104432134Y-97117427D01*
X104138655Y-96407153D01*
X103595705Y-95863255D01*
X102885945Y-95568536D01*
X102117427Y-95567866D01*
X101407153Y-95861345D01*
X100863255Y-96404295D01*
X100568536Y-97114055D01*
X100567975Y-97757632D01*
X100506800Y-97450084D01*
X100506800Y-92374188D01*
X104969368Y-92374188D01*
X105103267Y-92698249D01*
X105350987Y-92946402D01*
X105674814Y-93080866D01*
X106025448Y-93081172D01*
X106349509Y-92947273D01*
X106597662Y-92699553D01*
X106732126Y-92375726D01*
X106732432Y-92025092D01*
X106598533Y-91701031D01*
X106350813Y-91452878D01*
X106026986Y-91318414D01*
X105676352Y-91318108D01*
X105352291Y-91452007D01*
X105104138Y-91699727D01*
X104969674Y-92023554D01*
X104969368Y-92374188D01*
X100506800Y-92374188D01*
X100506800Y-87974908D01*
X104969368Y-87974908D01*
X105103267Y-88298969D01*
X105350987Y-88547122D01*
X105674814Y-88681586D01*
X106025448Y-88681892D01*
X106349509Y-88547993D01*
X106597662Y-88300273D01*
X106732126Y-87976446D01*
X106732432Y-87625812D01*
X106598533Y-87301751D01*
X106350813Y-87053598D01*
X106026986Y-86919134D01*
X105676352Y-86918828D01*
X105352291Y-87052727D01*
X105104138Y-87300447D01*
X104969674Y-87624274D01*
X104969368Y-87974908D01*
X100506800Y-87974908D01*
X100506800Y-72549916D01*
X100568426Y-72240100D01*
X100567866Y-72882573D01*
X100861345Y-73592847D01*
X101404295Y-74136745D01*
X102114055Y-74431464D01*
X102882573Y-74432134D01*
X103592847Y-74138655D01*
X103834366Y-73897557D01*
X103812000Y-74010000D01*
X103812000Y-76410000D01*
X103850669Y-76604403D01*
X103960790Y-76769210D01*
X105650790Y-78459210D01*
X105815597Y-78569331D01*
X106010000Y-78608000D01*
X109412478Y-78608000D01*
X109560595Y-78756376D01*
X109845227Y-78874565D01*
X110153421Y-78874834D01*
X110438259Y-78757141D01*
X110638665Y-78557085D01*
X110725349Y-78643769D01*
X110725166Y-78853421D01*
X110842859Y-79138259D01*
X111060595Y-79356376D01*
X111345227Y-79474565D01*
X111653421Y-79474834D01*
X111938259Y-79357141D01*
X112138666Y-79157084D01*
X112225349Y-79243767D01*
X112225166Y-79453419D01*
X112342859Y-79738257D01*
X112560595Y-79956374D01*
X112845227Y-80074563D01*
X113153421Y-80074832D01*
X113438259Y-79957139D01*
X113656376Y-79739403D01*
X113774565Y-79454771D01*
X113774834Y-79146577D01*
X113657141Y-78861739D01*
X113439405Y-78643622D01*
X113154773Y-78525433D01*
X112943671Y-78525249D01*
X110686858Y-76268436D01*
X110950000Y-76320778D01*
X111445728Y-76222172D01*
X111763808Y-76009637D01*
X111780669Y-76094403D01*
X111890790Y-76259210D01*
X113981991Y-78350411D01*
X113981991Y-95059991D01*
X114020660Y-95254394D01*
X114130781Y-95419201D01*
X116960790Y-98249210D01*
X117125596Y-98359331D01*
X117320000Y-98398000D01*
X120122478Y-98398000D01*
X120270595Y-98546376D01*
X120555227Y-98664565D01*
X120863421Y-98664834D01*
X121148259Y-98547141D01*
X121366376Y-98329405D01*
X121484565Y-98044773D01*
X121484798Y-97778000D01*
X122782478Y-97778000D01*
X122930595Y-97926376D01*
X123215227Y-98044565D01*
X123523421Y-98044834D01*
X123808259Y-97927141D01*
X124026376Y-97709405D01*
X124144565Y-97424773D01*
X124144834Y-97116579D01*
X124027141Y-96831741D01*
X123981851Y-96786372D01*
X123986114Y-96786376D01*
X126194868Y-98995131D01*
X126345434Y-99095736D01*
X126376156Y-99116264D01*
X126590000Y-99158800D01*
X137119630Y-99158800D01*
X137302968Y-99342458D01*
X137624928Y-99476148D01*
X137973542Y-99476452D01*
X138295736Y-99343324D01*
X138542458Y-99097032D01*
X138676148Y-98775072D01*
X138676452Y-98426458D01*
X138620234Y-98290400D01*
X138647600Y-98290400D01*
X138842003Y-98251731D01*
X139006810Y-98141610D01*
X140540420Y-96608000D01*
X152280000Y-96608000D01*
X152474403Y-96569331D01*
X152639210Y-96459210D01*
X157169210Y-91929211D01*
X157279331Y-91764404D01*
X157300254Y-91659214D01*
X157318000Y-91570000D01*
X157318000Y-84181600D01*
X157283734Y-84009331D01*
X157279331Y-83987196D01*
X157169210Y-83822389D01*
X156527610Y-83180790D01*
X156385875Y-83086085D01*
X156377558Y-83044272D01*
X156096750Y-82624014D01*
X155676492Y-82343206D01*
X155478680Y-82303859D01*
X156016000Y-82303859D01*
X156176015Y-82273750D01*
X156322980Y-82179181D01*
X156421573Y-82034885D01*
X156456259Y-81863600D01*
X156456259Y-80136400D01*
X156426150Y-79976385D01*
X156331581Y-79829420D01*
X156187285Y-79730827D01*
X156016000Y-79696141D01*
X153984000Y-79696141D01*
X153823985Y-79726250D01*
X153677020Y-79820819D01*
X153578427Y-79965115D01*
X153543741Y-80136400D01*
X153543741Y-81863600D01*
X153573850Y-82023615D01*
X153668419Y-82170580D01*
X153812715Y-82269173D01*
X153984000Y-82303859D01*
X154521320Y-82303859D01*
X154323508Y-82343206D01*
X153903250Y-82624014D01*
X153622442Y-83044272D01*
X153523836Y-83540000D01*
X153622442Y-84035728D01*
X153903250Y-84455986D01*
X154323508Y-84736794D01*
X154691541Y-84810000D01*
X154323508Y-84883206D01*
X153903250Y-85164014D01*
X153630642Y-85572000D01*
X146110000Y-85572000D01*
X145915597Y-85610669D01*
X145750790Y-85720790D01*
X139489580Y-91982000D01*
X135590000Y-91982000D01*
X135395597Y-92020669D01*
X135230790Y-92130790D01*
X134711964Y-92649616D01*
X134784565Y-92474773D01*
X134784834Y-92166579D01*
X134667141Y-91881741D01*
X134518000Y-91732339D01*
X134518000Y-89824637D01*
X134743421Y-89824834D01*
X135028259Y-89707141D01*
X135246376Y-89489405D01*
X135364565Y-89204773D01*
X135364834Y-88896579D01*
X135247141Y-88611741D01*
X135098000Y-88462339D01*
X135098000Y-88180420D01*
X135720421Y-87558000D01*
X141260000Y-87558000D01*
X141454403Y-87519331D01*
X141619210Y-87409210D01*
X146869210Y-82159210D01*
X146979331Y-81994404D01*
X147018000Y-81800000D01*
X147018000Y-76213972D01*
X147425986Y-75941364D01*
X147706794Y-75521106D01*
X147780000Y-75153073D01*
X147853206Y-75521106D01*
X148134014Y-75941364D01*
X148554272Y-76222172D01*
X149050000Y-76320778D01*
X149545728Y-76222172D01*
X149965986Y-75941364D01*
X150246794Y-75521106D01*
X150320000Y-75153073D01*
X150393206Y-75521106D01*
X150674014Y-75941364D01*
X151094272Y-76222172D01*
X151590000Y-76320778D01*
X152085728Y-76222172D01*
X152505986Y-75941364D01*
X152786794Y-75521106D01*
X152860000Y-75153073D01*
X152933206Y-75521106D01*
X153214014Y-75941364D01*
X153634272Y-76222172D01*
X154130000Y-76320778D01*
X154625728Y-76222172D01*
X155045986Y-75941364D01*
X155326794Y-75521106D01*
X155425400Y-75025378D01*
X155425400Y-74974622D01*
X155326794Y-74478894D01*
X155045986Y-74058636D01*
X154625728Y-73777828D01*
X154385279Y-73730000D01*
X154625728Y-73682172D01*
X155045986Y-73401364D01*
X155326794Y-72981106D01*
X155425400Y-72485378D01*
X155425400Y-72434622D01*
X155326794Y-71938894D01*
X155045986Y-71518636D01*
X154625728Y-71237828D01*
X154130000Y-71139222D01*
X153634272Y-71237828D01*
X153214014Y-71518636D01*
X152933206Y-71938894D01*
X152860000Y-72306927D01*
X152786794Y-71938894D01*
X152505986Y-71518636D01*
X152085728Y-71237828D01*
X151590000Y-71139222D01*
X151094272Y-71237828D01*
X150674014Y-71518636D01*
X150393206Y-71938894D01*
X150320000Y-72306927D01*
X150246794Y-71938894D01*
X149965986Y-71518636D01*
X149545728Y-71237828D01*
X149050000Y-71139222D01*
X148554272Y-71237828D01*
X148134014Y-71518636D01*
X147853206Y-71938894D01*
X147780000Y-72306927D01*
X147706794Y-71938894D01*
X147425986Y-71518636D01*
X147005728Y-71237828D01*
X146510000Y-71139222D01*
X146014272Y-71237828D01*
X145594014Y-71518636D01*
X145313206Y-71938894D01*
X145240000Y-72306927D01*
X145166794Y-71938894D01*
X144885986Y-71518636D01*
X144465728Y-71237828D01*
X143970000Y-71139222D01*
X143474272Y-71237828D01*
X143054014Y-71518636D01*
X142773206Y-71938894D01*
X142700000Y-72306927D01*
X142626794Y-71938894D01*
X142345986Y-71518636D01*
X141925728Y-71237828D01*
X141430000Y-71139222D01*
X140934272Y-71237828D01*
X140514014Y-71518636D01*
X140233206Y-71938894D01*
X140160000Y-72306927D01*
X140086794Y-71938894D01*
X139805986Y-71518636D01*
X139385728Y-71237828D01*
X138890000Y-71139222D01*
X138394272Y-71237828D01*
X137974014Y-71518636D01*
X137693206Y-71938894D01*
X137620000Y-72306927D01*
X137546794Y-71938894D01*
X137265986Y-71518636D01*
X136845728Y-71237828D01*
X136350000Y-71139222D01*
X135854272Y-71237828D01*
X135434014Y-71518636D01*
X135153206Y-71938894D01*
X135080000Y-72306927D01*
X135006794Y-71938894D01*
X134725986Y-71518636D01*
X134305728Y-71237828D01*
X133810000Y-71139222D01*
X133314272Y-71237828D01*
X132894014Y-71518636D01*
X132613206Y-71938894D01*
X132540000Y-72306927D01*
X132466794Y-71938894D01*
X132185986Y-71518636D01*
X131765728Y-71237828D01*
X131270000Y-71139222D01*
X130774272Y-71237828D01*
X130354014Y-71518636D01*
X130073206Y-71938894D01*
X130000000Y-72306927D01*
X129926794Y-71938894D01*
X129645986Y-71518636D01*
X129225728Y-71237828D01*
X128730000Y-71139222D01*
X128234272Y-71237828D01*
X127814014Y-71518636D01*
X127533206Y-71938894D01*
X127460000Y-72306927D01*
X127386794Y-71938894D01*
X127105986Y-71518636D01*
X126685728Y-71237828D01*
X126190000Y-71139222D01*
X125694272Y-71237828D01*
X125274014Y-71518636D01*
X124993206Y-71938894D01*
X124920000Y-72306927D01*
X124846794Y-71938894D01*
X124565986Y-71518636D01*
X124145728Y-71237828D01*
X123650000Y-71139222D01*
X123154272Y-71237828D01*
X122734014Y-71518636D01*
X122453206Y-71938894D01*
X122380000Y-72306927D01*
X122306794Y-71938894D01*
X122025986Y-71518636D01*
X121605728Y-71237828D01*
X121110000Y-71139222D01*
X120614272Y-71237828D01*
X120194014Y-71518636D01*
X119913206Y-71938894D01*
X119840000Y-72306927D01*
X119766794Y-71938894D01*
X119485986Y-71518636D01*
X119065728Y-71237828D01*
X118570000Y-71139222D01*
X118074272Y-71237828D01*
X117654014Y-71518636D01*
X117373206Y-71938894D01*
X117300000Y-72306927D01*
X117226794Y-71938894D01*
X116945986Y-71518636D01*
X116525728Y-71237828D01*
X116030000Y-71139222D01*
X115534272Y-71237828D01*
X115114014Y-71518636D01*
X114833206Y-71938894D01*
X114760000Y-72306927D01*
X114686794Y-71938894D01*
X114405986Y-71518636D01*
X113985728Y-71237828D01*
X113490000Y-71139222D01*
X112994272Y-71237828D01*
X112574014Y-71518636D01*
X112293206Y-71938894D01*
X112220000Y-72306927D01*
X112146794Y-71938894D01*
X111865986Y-71518636D01*
X111445728Y-71237828D01*
X110950000Y-71139222D01*
X110454272Y-71237828D01*
X110034014Y-71518636D01*
X109753206Y-71938894D01*
X109680000Y-72306927D01*
X109606794Y-71938894D01*
X109325986Y-71518636D01*
X108905728Y-71237828D01*
X108410000Y-71139222D01*
X107914272Y-71237828D01*
X107494014Y-71518636D01*
X107213206Y-71938894D01*
X107140000Y-72306927D01*
X107066794Y-71938894D01*
X106785986Y-71518636D01*
X106365728Y-71237828D01*
X105870000Y-71139222D01*
X105374272Y-71237828D01*
X104954014Y-71518636D01*
X104673206Y-71938894D01*
X104574600Y-72434622D01*
X104574600Y-72485378D01*
X104666116Y-72945464D01*
X104222574Y-73389006D01*
X104431464Y-72885945D01*
X104432134Y-72117427D01*
X104138655Y-71407153D01*
X103595705Y-70863255D01*
X102885945Y-70568536D01*
X102242368Y-70567975D01*
X102549916Y-70506800D01*
X157450084Y-70506800D01*
X157759900Y-70568426D01*
X157759900Y-70568426D01*
G37*
X157759900Y-70568426D02*
X157117427Y-70567866D01*
X156407153Y-70861345D01*
X155863255Y-71404295D01*
X155568536Y-72114055D01*
X155567866Y-72882573D01*
X155861345Y-73592847D01*
X156404295Y-74136745D01*
X157114055Y-74431464D01*
X157882573Y-74432134D01*
X158592847Y-74138655D01*
X159136745Y-73595705D01*
X159431464Y-72885945D01*
X159432025Y-72242368D01*
X159493200Y-72549916D01*
X159493200Y-97450084D01*
X159431574Y-97759900D01*
X159432134Y-97117427D01*
X159138655Y-96407153D01*
X158595705Y-95863255D01*
X157885945Y-95568536D01*
X157117427Y-95567866D01*
X156407153Y-95861345D01*
X155863255Y-96404295D01*
X155568536Y-97114055D01*
X155567866Y-97882573D01*
X155861345Y-98592847D01*
X156404295Y-99136745D01*
X157114055Y-99431464D01*
X157757632Y-99432025D01*
X157450084Y-99493200D01*
X102549916Y-99493200D01*
X102240100Y-99431574D01*
X102882573Y-99432134D01*
X103592847Y-99138655D01*
X104136745Y-98595705D01*
X104431464Y-97885945D01*
X104432134Y-97117427D01*
X104138655Y-96407153D01*
X103595705Y-95863255D01*
X102885945Y-95568536D01*
X102117427Y-95567866D01*
X101407153Y-95861345D01*
X100863255Y-96404295D01*
X100568536Y-97114055D01*
X100567975Y-97757632D01*
X100506800Y-97450084D01*
X100506800Y-92374188D01*
X104969368Y-92374188D01*
X105103267Y-92698249D01*
X105350987Y-92946402D01*
X105674814Y-93080866D01*
X106025448Y-93081172D01*
X106349509Y-92947273D01*
X106597662Y-92699553D01*
X106732126Y-92375726D01*
X106732432Y-92025092D01*
X106598533Y-91701031D01*
X106350813Y-91452878D01*
X106026986Y-91318414D01*
X105676352Y-91318108D01*
X105352291Y-91452007D01*
X105104138Y-91699727D01*
X104969674Y-92023554D01*
X104969368Y-92374188D01*
X100506800Y-92374188D01*
X100506800Y-87974908D01*
X104969368Y-87974908D01*
X105103267Y-88298969D01*
X105350987Y-88547122D01*
X105674814Y-88681586D01*
X106025448Y-88681892D01*
X106349509Y-88547993D01*
X106597662Y-88300273D01*
X106732126Y-87976446D01*
X106732432Y-87625812D01*
X106598533Y-87301751D01*
X106350813Y-87053598D01*
X106026986Y-86919134D01*
X105676352Y-86918828D01*
X105352291Y-87052727D01*
X105104138Y-87300447D01*
X104969674Y-87624274D01*
X104969368Y-87974908D01*
X100506800Y-87974908D01*
X100506800Y-72549916D01*
X100568426Y-72240100D01*
X100567866Y-72882573D01*
X100861345Y-73592847D01*
X101404295Y-74136745D01*
X102114055Y-74431464D01*
X102882573Y-74432134D01*
X103592847Y-74138655D01*
X103834366Y-73897557D01*
X103812000Y-74010000D01*
X103812000Y-76410000D01*
X103850669Y-76604403D01*
X103960790Y-76769210D01*
X105650790Y-78459210D01*
X105815597Y-78569331D01*
X106010000Y-78608000D01*
X109412478Y-78608000D01*
X109560595Y-78756376D01*
X109845227Y-78874565D01*
X110153421Y-78874834D01*
X110438259Y-78757141D01*
X110638665Y-78557085D01*
X110725349Y-78643769D01*
X110725166Y-78853421D01*
X110842859Y-79138259D01*
X111060595Y-79356376D01*
X111345227Y-79474565D01*
X111653421Y-79474834D01*
X111938259Y-79357141D01*
X112138666Y-79157084D01*
X112225349Y-79243767D01*
X112225166Y-79453419D01*
X112342859Y-79738257D01*
X112560595Y-79956374D01*
X112845227Y-80074563D01*
X113153421Y-80074832D01*
X113438259Y-79957139D01*
X113656376Y-79739403D01*
X113774565Y-79454771D01*
X113774834Y-79146577D01*
X113657141Y-78861739D01*
X113439405Y-78643622D01*
X113154773Y-78525433D01*
X112943671Y-78525249D01*
X110686858Y-76268436D01*
X110950000Y-76320778D01*
X111445728Y-76222172D01*
X111763808Y-76009637D01*
X111780669Y-76094403D01*
X111890790Y-76259210D01*
X113981991Y-78350411D01*
X113981991Y-95059991D01*
X114020660Y-95254394D01*
X114130781Y-95419201D01*
X116960790Y-98249210D01*
X117125596Y-98359331D01*
X117320000Y-98398000D01*
X120122478Y-98398000D01*
X120270595Y-98546376D01*
X120555227Y-98664565D01*
X120863421Y-98664834D01*
X121148259Y-98547141D01*
X121366376Y-98329405D01*
X121484565Y-98044773D01*
X121484798Y-97778000D01*
X122782478Y-97778000D01*
X122930595Y-97926376D01*
X123215227Y-98044565D01*
X123523421Y-98044834D01*
X123808259Y-97927141D01*
X124026376Y-97709405D01*
X124144565Y-97424773D01*
X124144834Y-97116579D01*
X124027141Y-96831741D01*
X123981851Y-96786372D01*
X123986114Y-96786376D01*
X126194868Y-98995131D01*
X126345434Y-99095736D01*
X126376156Y-99116264D01*
X126590000Y-99158800D01*
X137119630Y-99158800D01*
X137302968Y-99342458D01*
X137624928Y-99476148D01*
X137973542Y-99476452D01*
X138295736Y-99343324D01*
X138542458Y-99097032D01*
X138676148Y-98775072D01*
X138676452Y-98426458D01*
X138620234Y-98290400D01*
X138647600Y-98290400D01*
X138842003Y-98251731D01*
X139006810Y-98141610D01*
X140540420Y-96608000D01*
X152280000Y-96608000D01*
X152474403Y-96569331D01*
X152639210Y-96459210D01*
X157169210Y-91929211D01*
X157279331Y-91764404D01*
X157300254Y-91659214D01*
X157318000Y-91570000D01*
X157318000Y-84181600D01*
X157283734Y-84009331D01*
X157279331Y-83987196D01*
X157169210Y-83822389D01*
X156527610Y-83180790D01*
X156385875Y-83086085D01*
X156377558Y-83044272D01*
X156096750Y-82624014D01*
X155676492Y-82343206D01*
X155478680Y-82303859D01*
X156016000Y-82303859D01*
X156176015Y-82273750D01*
X156322980Y-82179181D01*
X156421573Y-82034885D01*
X156456259Y-81863600D01*
X156456259Y-80136400D01*
X156426150Y-79976385D01*
X156331581Y-79829420D01*
X156187285Y-79730827D01*
X156016000Y-79696141D01*
X153984000Y-79696141D01*
X153823985Y-79726250D01*
X153677020Y-79820819D01*
X153578427Y-79965115D01*
X153543741Y-80136400D01*
X153543741Y-81863600D01*
X153573850Y-82023615D01*
X153668419Y-82170580D01*
X153812715Y-82269173D01*
X153984000Y-82303859D01*
X154521320Y-82303859D01*
X154323508Y-82343206D01*
X153903250Y-82624014D01*
X153622442Y-83044272D01*
X153523836Y-83540000D01*
X153622442Y-84035728D01*
X153903250Y-84455986D01*
X154323508Y-84736794D01*
X154691541Y-84810000D01*
X154323508Y-84883206D01*
X153903250Y-85164014D01*
X153630642Y-85572000D01*
X146110000Y-85572000D01*
X145915597Y-85610669D01*
X145750790Y-85720790D01*
X139489580Y-91982000D01*
X135590000Y-91982000D01*
X135395597Y-92020669D01*
X135230790Y-92130790D01*
X134711964Y-92649616D01*
X134784565Y-92474773D01*
X134784834Y-92166579D01*
X134667141Y-91881741D01*
X134518000Y-91732339D01*
X134518000Y-89824637D01*
X134743421Y-89824834D01*
X135028259Y-89707141D01*
X135246376Y-89489405D01*
X135364565Y-89204773D01*
X135364834Y-88896579D01*
X135247141Y-88611741D01*
X135098000Y-88462339D01*
X135098000Y-88180420D01*
X135720421Y-87558000D01*
X141260000Y-87558000D01*
X141454403Y-87519331D01*
X141619210Y-87409210D01*
X146869210Y-82159210D01*
X146979331Y-81994404D01*
X147018000Y-81800000D01*
X147018000Y-76213972D01*
X147425986Y-75941364D01*
X147706794Y-75521106D01*
X147780000Y-75153073D01*
X147853206Y-75521106D01*
X148134014Y-75941364D01*
X148554272Y-76222172D01*
X149050000Y-76320778D01*
X149545728Y-76222172D01*
X149965986Y-75941364D01*
X150246794Y-75521106D01*
X150320000Y-75153073D01*
X150393206Y-75521106D01*
X150674014Y-75941364D01*
X151094272Y-76222172D01*
X151590000Y-76320778D01*
X152085728Y-76222172D01*
X152505986Y-75941364D01*
X152786794Y-75521106D01*
X152860000Y-75153073D01*
X152933206Y-75521106D01*
X153214014Y-75941364D01*
X153634272Y-76222172D01*
X154130000Y-76320778D01*
X154625728Y-76222172D01*
X155045986Y-75941364D01*
X155326794Y-75521106D01*
X155425400Y-75025378D01*
X155425400Y-74974622D01*
X155326794Y-74478894D01*
X155045986Y-74058636D01*
X154625728Y-73777828D01*
X154385279Y-73730000D01*
X154625728Y-73682172D01*
X155045986Y-73401364D01*
X155326794Y-72981106D01*
X155425400Y-72485378D01*
X155425400Y-72434622D01*
X155326794Y-71938894D01*
X155045986Y-71518636D01*
X154625728Y-71237828D01*
X154130000Y-71139222D01*
X153634272Y-71237828D01*
X153214014Y-71518636D01*
X152933206Y-71938894D01*
X152860000Y-72306927D01*
X152786794Y-71938894D01*
X152505986Y-71518636D01*
X152085728Y-71237828D01*
X151590000Y-71139222D01*
X151094272Y-71237828D01*
X150674014Y-71518636D01*
X150393206Y-71938894D01*
X150320000Y-72306927D01*
X150246794Y-71938894D01*
X149965986Y-71518636D01*
X149545728Y-71237828D01*
X149050000Y-71139222D01*
X148554272Y-71237828D01*
X148134014Y-71518636D01*
X147853206Y-71938894D01*
X147780000Y-72306927D01*
X147706794Y-71938894D01*
X147425986Y-71518636D01*
X147005728Y-71237828D01*
X146510000Y-71139222D01*
X146014272Y-71237828D01*
X145594014Y-71518636D01*
X145313206Y-71938894D01*
X145240000Y-72306927D01*
X145166794Y-71938894D01*
X144885986Y-71518636D01*
X144465728Y-71237828D01*
X143970000Y-71139222D01*
X143474272Y-71237828D01*
X143054014Y-71518636D01*
X142773206Y-71938894D01*
X142700000Y-72306927D01*
X142626794Y-71938894D01*
X142345986Y-71518636D01*
X141925728Y-71237828D01*
X141430000Y-71139222D01*
X140934272Y-71237828D01*
X140514014Y-71518636D01*
X140233206Y-71938894D01*
X140160000Y-72306927D01*
X140086794Y-71938894D01*
X139805986Y-71518636D01*
X139385728Y-71237828D01*
X138890000Y-71139222D01*
X138394272Y-71237828D01*
X137974014Y-71518636D01*
X137693206Y-71938894D01*
X137620000Y-72306927D01*
X137546794Y-71938894D01*
X137265986Y-71518636D01*
X136845728Y-71237828D01*
X136350000Y-71139222D01*
X135854272Y-71237828D01*
X135434014Y-71518636D01*
X135153206Y-71938894D01*
X135080000Y-72306927D01*
X135006794Y-71938894D01*
X134725986Y-71518636D01*
X134305728Y-71237828D01*
X133810000Y-71139222D01*
X133314272Y-71237828D01*
X132894014Y-71518636D01*
X132613206Y-71938894D01*
X132540000Y-72306927D01*
X132466794Y-71938894D01*
X132185986Y-71518636D01*
X131765728Y-71237828D01*
X131270000Y-71139222D01*
X130774272Y-71237828D01*
X130354014Y-71518636D01*
X130073206Y-71938894D01*
X130000000Y-72306927D01*
X129926794Y-71938894D01*
X129645986Y-71518636D01*
X129225728Y-71237828D01*
X128730000Y-71139222D01*
X128234272Y-71237828D01*
X127814014Y-71518636D01*
X127533206Y-71938894D01*
X127460000Y-72306927D01*
X127386794Y-71938894D01*
X127105986Y-71518636D01*
X126685728Y-71237828D01*
X126190000Y-71139222D01*
X125694272Y-71237828D01*
X125274014Y-71518636D01*
X124993206Y-71938894D01*
X124920000Y-72306927D01*
X124846794Y-71938894D01*
X124565986Y-71518636D01*
X124145728Y-71237828D01*
X123650000Y-71139222D01*
X123154272Y-71237828D01*
X122734014Y-71518636D01*
X122453206Y-71938894D01*
X122380000Y-72306927D01*
X122306794Y-71938894D01*
X122025986Y-71518636D01*
X121605728Y-71237828D01*
X121110000Y-71139222D01*
X120614272Y-71237828D01*
X120194014Y-71518636D01*
X119913206Y-71938894D01*
X119840000Y-72306927D01*
X119766794Y-71938894D01*
X119485986Y-71518636D01*
X119065728Y-71237828D01*
X118570000Y-71139222D01*
X118074272Y-71237828D01*
X117654014Y-71518636D01*
X117373206Y-71938894D01*
X117300000Y-72306927D01*
X117226794Y-71938894D01*
X116945986Y-71518636D01*
X116525728Y-71237828D01*
X116030000Y-71139222D01*
X115534272Y-71237828D01*
X115114014Y-71518636D01*
X114833206Y-71938894D01*
X114760000Y-72306927D01*
X114686794Y-71938894D01*
X114405986Y-71518636D01*
X113985728Y-71237828D01*
X113490000Y-71139222D01*
X112994272Y-71237828D01*
X112574014Y-71518636D01*
X112293206Y-71938894D01*
X112220000Y-72306927D01*
X112146794Y-71938894D01*
X111865986Y-71518636D01*
X111445728Y-71237828D01*
X110950000Y-71139222D01*
X110454272Y-71237828D01*
X110034014Y-71518636D01*
X109753206Y-71938894D01*
X109680000Y-72306927D01*
X109606794Y-71938894D01*
X109325986Y-71518636D01*
X108905728Y-71237828D01*
X108410000Y-71139222D01*
X107914272Y-71237828D01*
X107494014Y-71518636D01*
X107213206Y-71938894D01*
X107140000Y-72306927D01*
X107066794Y-71938894D01*
X106785986Y-71518636D01*
X106365728Y-71237828D01*
X105870000Y-71139222D01*
X105374272Y-71237828D01*
X104954014Y-71518636D01*
X104673206Y-71938894D01*
X104574600Y-72434622D01*
X104574600Y-72485378D01*
X104666116Y-72945464D01*
X104222574Y-73389006D01*
X104431464Y-72885945D01*
X104432134Y-72117427D01*
X104138655Y-71407153D01*
X103595705Y-70863255D01*
X102885945Y-70568536D01*
X102242368Y-70567975D01*
X102549916Y-70506800D01*
X157450084Y-70506800D01*
X157759900Y-70568426D01*
G36*
X119332000Y-90080000D02*
X119370669Y-90274403D01*
X119480790Y-90439210D01*
X121906580Y-92865000D01*
X121585750Y-92865000D01*
X121427000Y-93023750D01*
X121427000Y-94473000D01*
X122376250Y-94473000D01*
X122535000Y-94314250D01*
X122535000Y-93493420D01*
X123563802Y-94522222D01*
X123728609Y-94632343D01*
X123923012Y-94671012D01*
X125127670Y-94671012D01*
X125068362Y-94813840D01*
X125068039Y-95184533D01*
X125209598Y-95527133D01*
X125471489Y-95789481D01*
X125813840Y-95931638D01*
X126184533Y-95931961D01*
X126527133Y-95790402D01*
X126789481Y-95528511D01*
X126931638Y-95186160D01*
X126931961Y-94815467D01*
X126872274Y-94671012D01*
X128652592Y-94671012D01*
X128925349Y-94943770D01*
X128925166Y-95153421D01*
X129042859Y-95438259D01*
X129260595Y-95656376D01*
X129545227Y-95774565D01*
X129853421Y-95774834D01*
X130138259Y-95657141D01*
X130356376Y-95439405D01*
X130474565Y-95154773D01*
X130474834Y-94846579D01*
X130357141Y-94561741D01*
X130139405Y-94343624D01*
X129854773Y-94225435D01*
X129643672Y-94225251D01*
X129516421Y-94098000D01*
X131985297Y-94098000D01*
X132003868Y-94101694D01*
X133714015Y-94101694D01*
X133452867Y-94209598D01*
X133190519Y-94471489D01*
X133048362Y-94813840D01*
X133048039Y-95184533D01*
X133189598Y-95527133D01*
X133451489Y-95789481D01*
X133793840Y-95931638D01*
X134164533Y-95931961D01*
X134507133Y-95790402D01*
X134769481Y-95528511D01*
X134911638Y-95186160D01*
X134911899Y-94885750D01*
X135565000Y-94885750D01*
X135565000Y-95826310D01*
X135661673Y-96059699D01*
X135840302Y-96238327D01*
X136073691Y-96335000D01*
X136514250Y-96335000D01*
X136673000Y-96176250D01*
X136673000Y-94727000D01*
X136927000Y-94727000D01*
X136927000Y-96176250D01*
X137085750Y-96335000D01*
X137526309Y-96335000D01*
X137759698Y-96238327D01*
X137938327Y-96059699D01*
X138035000Y-95826310D01*
X138035000Y-94885750D01*
X137876250Y-94727000D01*
X136927000Y-94727000D01*
X136673000Y-94727000D01*
X135723750Y-94727000D01*
X135565000Y-94885750D01*
X134911899Y-94885750D01*
X134911961Y-94815467D01*
X134770402Y-94472867D01*
X134508511Y-94210519D01*
X134246432Y-94101694D01*
X134486306Y-94101694D01*
X134680709Y-94063025D01*
X134845516Y-93952904D01*
X135800420Y-92998000D01*
X135803975Y-92998000D01*
X135661673Y-93140301D01*
X135565000Y-93373690D01*
X135565000Y-94314250D01*
X135723750Y-94473000D01*
X136673000Y-94473000D01*
X136673000Y-94453000D01*
X136927000Y-94453000D01*
X136927000Y-94473000D01*
X137876250Y-94473000D01*
X138035000Y-94314250D01*
X138035000Y-93373690D01*
X137938327Y-93140301D01*
X137796025Y-92998000D01*
X139700000Y-92998000D01*
X139894403Y-92959331D01*
X140059210Y-92849210D01*
X146320420Y-86588000D01*
X153630642Y-86588000D01*
X153903250Y-86995986D01*
X154292133Y-87255830D01*
X154085680Y-87328046D01*
X153649268Y-87717964D01*
X153395291Y-88245209D01*
X153392642Y-88260974D01*
X153513783Y-88493000D01*
X154873000Y-88493000D01*
X154873000Y-88473000D01*
X155127000Y-88473000D01*
X155127000Y-88493000D01*
X155147000Y-88493000D01*
X155147000Y-88747000D01*
X155127000Y-88747000D01*
X155127000Y-88767000D01*
X154873000Y-88767000D01*
X154873000Y-88747000D01*
X153513783Y-88747000D01*
X153392642Y-88979026D01*
X153395291Y-88994791D01*
X153649268Y-89522036D01*
X154085680Y-89911954D01*
X154292133Y-89984170D01*
X153903250Y-90244014D01*
X153664585Y-90601200D01*
X143140000Y-90601200D01*
X142926157Y-90643735D01*
X142744869Y-90764868D01*
X139085964Y-94423774D01*
X138826458Y-94423548D01*
X138504264Y-94556676D01*
X138257542Y-94802968D01*
X138123852Y-95124928D01*
X138123548Y-95473542D01*
X138256676Y-95795736D01*
X138502968Y-96042458D01*
X138824928Y-96176148D01*
X139173542Y-96176452D01*
X139495736Y-96043324D01*
X139742458Y-95797032D01*
X139876148Y-95475072D01*
X139876376Y-95213886D01*
X143371463Y-91718800D01*
X153664585Y-91718800D01*
X153903250Y-92075986D01*
X154323508Y-92356794D01*
X154819236Y-92455400D01*
X155180764Y-92455400D01*
X155212490Y-92449089D01*
X152069580Y-95592000D01*
X140330000Y-95592000D01*
X140135597Y-95630669D01*
X139970790Y-95740790D01*
X138437180Y-97274400D01*
X127885122Y-97274400D01*
X127737005Y-97126024D01*
X127452373Y-97007835D01*
X127144179Y-97007566D01*
X126859341Y-97125259D01*
X126641224Y-97342995D01*
X126523035Y-97627627D01*
X126522935Y-97742672D01*
X124776226Y-95995964D01*
X124776452Y-95736458D01*
X124643324Y-95414264D01*
X124397032Y-95167542D01*
X124075072Y-95033852D01*
X123726458Y-95033548D01*
X123404264Y-95166676D01*
X123157542Y-95412968D01*
X123023852Y-95734928D01*
X123023548Y-96083542D01*
X123156676Y-96405736D01*
X123245976Y-96495192D01*
X123216579Y-96495166D01*
X122931741Y-96612859D01*
X122782339Y-96762000D01*
X120470421Y-96762000D01*
X119993845Y-96285424D01*
X120095736Y-96243324D01*
X120220626Y-96118652D01*
X120340302Y-96238327D01*
X120573691Y-96335000D01*
X121014250Y-96335000D01*
X121173000Y-96176250D01*
X121173000Y-94727000D01*
X121427000Y-94727000D01*
X121427000Y-96176250D01*
X121585750Y-96335000D01*
X122026309Y-96335000D01*
X122259698Y-96238327D01*
X122438327Y-96059699D01*
X122535000Y-95826310D01*
X122535000Y-94885750D01*
X122376250Y-94727000D01*
X121427000Y-94727000D01*
X121173000Y-94727000D01*
X120223750Y-94727000D01*
X120145078Y-94805672D01*
X120097032Y-94757542D01*
X119775072Y-94623852D01*
X119513886Y-94623624D01*
X118958800Y-94068538D01*
X118958800Y-93373690D01*
X120065000Y-93373690D01*
X120065000Y-94314250D01*
X120223750Y-94473000D01*
X121173000Y-94473000D01*
X121173000Y-93023750D01*
X121014250Y-92865000D01*
X120573691Y-92865000D01*
X120340302Y-92961673D01*
X120161673Y-93140301D01*
X120065000Y-93373690D01*
X118958800Y-93373690D01*
X118958800Y-93080370D01*
X119142458Y-92897032D01*
X119276148Y-92575072D01*
X119276452Y-92226458D01*
X119143324Y-91904264D01*
X118897032Y-91657542D01*
X118575072Y-91523852D01*
X118226458Y-91523548D01*
X118148000Y-91555966D01*
X118148000Y-83390420D01*
X118963769Y-82574651D01*
X119173421Y-82574834D01*
X119332000Y-82509310D01*
X119332000Y-90080000D01*
X119332000Y-90080000D01*
G37*
X119332000Y-90080000D02*
X119370669Y-90274403D01*
X119480790Y-90439210D01*
X121906580Y-92865000D01*
X121585750Y-92865000D01*
X121427000Y-93023750D01*
X121427000Y-94473000D01*
X122376250Y-94473000D01*
X122535000Y-94314250D01*
X122535000Y-93493420D01*
X123563802Y-94522222D01*
X123728609Y-94632343D01*
X123923012Y-94671012D01*
X125127670Y-94671012D01*
X125068362Y-94813840D01*
X125068039Y-95184533D01*
X125209598Y-95527133D01*
X125471489Y-95789481D01*
X125813840Y-95931638D01*
X126184533Y-95931961D01*
X126527133Y-95790402D01*
X126789481Y-95528511D01*
X126931638Y-95186160D01*
X126931961Y-94815467D01*
X126872274Y-94671012D01*
X128652592Y-94671012D01*
X128925349Y-94943770D01*
X128925166Y-95153421D01*
X129042859Y-95438259D01*
X129260595Y-95656376D01*
X129545227Y-95774565D01*
X129853421Y-95774834D01*
X130138259Y-95657141D01*
X130356376Y-95439405D01*
X130474565Y-95154773D01*
X130474834Y-94846579D01*
X130357141Y-94561741D01*
X130139405Y-94343624D01*
X129854773Y-94225435D01*
X129643672Y-94225251D01*
X129516421Y-94098000D01*
X131985297Y-94098000D01*
X132003868Y-94101694D01*
X133714015Y-94101694D01*
X133452867Y-94209598D01*
X133190519Y-94471489D01*
X133048362Y-94813840D01*
X133048039Y-95184533D01*
X133189598Y-95527133D01*
X133451489Y-95789481D01*
X133793840Y-95931638D01*
X134164533Y-95931961D01*
X134507133Y-95790402D01*
X134769481Y-95528511D01*
X134911638Y-95186160D01*
X134911899Y-94885750D01*
X135565000Y-94885750D01*
X135565000Y-95826310D01*
X135661673Y-96059699D01*
X135840302Y-96238327D01*
X136073691Y-96335000D01*
X136514250Y-96335000D01*
X136673000Y-96176250D01*
X136673000Y-94727000D01*
X136927000Y-94727000D01*
X136927000Y-96176250D01*
X137085750Y-96335000D01*
X137526309Y-96335000D01*
X137759698Y-96238327D01*
X137938327Y-96059699D01*
X138035000Y-95826310D01*
X138035000Y-94885750D01*
X137876250Y-94727000D01*
X136927000Y-94727000D01*
X136673000Y-94727000D01*
X135723750Y-94727000D01*
X135565000Y-94885750D01*
X134911899Y-94885750D01*
X134911961Y-94815467D01*
X134770402Y-94472867D01*
X134508511Y-94210519D01*
X134246432Y-94101694D01*
X134486306Y-94101694D01*
X134680709Y-94063025D01*
X134845516Y-93952904D01*
X135800420Y-92998000D01*
X135803975Y-92998000D01*
X135661673Y-93140301D01*
X135565000Y-93373690D01*
X135565000Y-94314250D01*
X135723750Y-94473000D01*
X136673000Y-94473000D01*
X136673000Y-94453000D01*
X136927000Y-94453000D01*
X136927000Y-94473000D01*
X137876250Y-94473000D01*
X138035000Y-94314250D01*
X138035000Y-93373690D01*
X137938327Y-93140301D01*
X137796025Y-92998000D01*
X139700000Y-92998000D01*
X139894403Y-92959331D01*
X140059210Y-92849210D01*
X146320420Y-86588000D01*
X153630642Y-86588000D01*
X153903250Y-86995986D01*
X154292133Y-87255830D01*
X154085680Y-87328046D01*
X153649268Y-87717964D01*
X153395291Y-88245209D01*
X153392642Y-88260974D01*
X153513783Y-88493000D01*
X154873000Y-88493000D01*
X154873000Y-88473000D01*
X155127000Y-88473000D01*
X155127000Y-88493000D01*
X155147000Y-88493000D01*
X155147000Y-88747000D01*
X155127000Y-88747000D01*
X155127000Y-88767000D01*
X154873000Y-88767000D01*
X154873000Y-88747000D01*
X153513783Y-88747000D01*
X153392642Y-88979026D01*
X153395291Y-88994791D01*
X153649268Y-89522036D01*
X154085680Y-89911954D01*
X154292133Y-89984170D01*
X153903250Y-90244014D01*
X153664585Y-90601200D01*
X143140000Y-90601200D01*
X142926157Y-90643735D01*
X142744869Y-90764868D01*
X139085964Y-94423774D01*
X138826458Y-94423548D01*
X138504264Y-94556676D01*
X138257542Y-94802968D01*
X138123852Y-95124928D01*
X138123548Y-95473542D01*
X138256676Y-95795736D01*
X138502968Y-96042458D01*
X138824928Y-96176148D01*
X139173542Y-96176452D01*
X139495736Y-96043324D01*
X139742458Y-95797032D01*
X139876148Y-95475072D01*
X139876376Y-95213886D01*
X143371463Y-91718800D01*
X153664585Y-91718800D01*
X153903250Y-92075986D01*
X154323508Y-92356794D01*
X154819236Y-92455400D01*
X155180764Y-92455400D01*
X155212490Y-92449089D01*
X152069580Y-95592000D01*
X140330000Y-95592000D01*
X140135597Y-95630669D01*
X139970790Y-95740790D01*
X138437180Y-97274400D01*
X127885122Y-97274400D01*
X127737005Y-97126024D01*
X127452373Y-97007835D01*
X127144179Y-97007566D01*
X126859341Y-97125259D01*
X126641224Y-97342995D01*
X126523035Y-97627627D01*
X126522935Y-97742672D01*
X124776226Y-95995964D01*
X124776452Y-95736458D01*
X124643324Y-95414264D01*
X124397032Y-95167542D01*
X124075072Y-95033852D01*
X123726458Y-95033548D01*
X123404264Y-95166676D01*
X123157542Y-95412968D01*
X123023852Y-95734928D01*
X123023548Y-96083542D01*
X123156676Y-96405736D01*
X123245976Y-96495192D01*
X123216579Y-96495166D01*
X122931741Y-96612859D01*
X122782339Y-96762000D01*
X120470421Y-96762000D01*
X119993845Y-96285424D01*
X120095736Y-96243324D01*
X120220626Y-96118652D01*
X120340302Y-96238327D01*
X120573691Y-96335000D01*
X121014250Y-96335000D01*
X121173000Y-96176250D01*
X121173000Y-94727000D01*
X121427000Y-94727000D01*
X121427000Y-96176250D01*
X121585750Y-96335000D01*
X122026309Y-96335000D01*
X122259698Y-96238327D01*
X122438327Y-96059699D01*
X122535000Y-95826310D01*
X122535000Y-94885750D01*
X122376250Y-94727000D01*
X121427000Y-94727000D01*
X121173000Y-94727000D01*
X120223750Y-94727000D01*
X120145078Y-94805672D01*
X120097032Y-94757542D01*
X119775072Y-94623852D01*
X119513886Y-94623624D01*
X118958800Y-94068538D01*
X118958800Y-93373690D01*
X120065000Y-93373690D01*
X120065000Y-94314250D01*
X120223750Y-94473000D01*
X121173000Y-94473000D01*
X121173000Y-93023750D01*
X121014250Y-92865000D01*
X120573691Y-92865000D01*
X120340302Y-92961673D01*
X120161673Y-93140301D01*
X120065000Y-93373690D01*
X118958800Y-93373690D01*
X118958800Y-93080370D01*
X119142458Y-92897032D01*
X119276148Y-92575072D01*
X119276452Y-92226458D01*
X119143324Y-91904264D01*
X118897032Y-91657542D01*
X118575072Y-91523852D01*
X118226458Y-91523548D01*
X118148000Y-91555966D01*
X118148000Y-83390420D01*
X118963769Y-82574651D01*
X119173421Y-82574834D01*
X119332000Y-82509310D01*
X119332000Y-90080000D01*
G36*
X130073206Y-75521106D02*
X130354014Y-75941364D01*
X130762000Y-76213972D01*
X130762000Y-77156329D01*
X130699405Y-77093624D01*
X130414773Y-76975435D01*
X130106579Y-76975166D01*
X129821741Y-77092859D01*
X129603624Y-77310595D01*
X129485435Y-77595227D01*
X129485166Y-77903421D01*
X129602859Y-78188259D01*
X129820595Y-78406376D01*
X130105227Y-78524565D01*
X130244424Y-78524686D01*
X131380126Y-79660388D01*
X131377542Y-79662968D01*
X131243852Y-79984928D01*
X131243607Y-80266131D01*
X129754869Y-81754869D01*
X129633736Y-81936156D01*
X129591200Y-82150000D01*
X129591200Y-83308034D01*
X129571285Y-83294427D01*
X129400000Y-83259741D01*
X128700000Y-83259741D01*
X128539985Y-83289850D01*
X128501155Y-83314836D01*
X128471285Y-83294427D01*
X128300000Y-83259741D01*
X127600000Y-83259741D01*
X127439985Y-83289850D01*
X127401155Y-83314836D01*
X127371285Y-83294427D01*
X127200000Y-83259741D01*
X126500000Y-83259741D01*
X126339985Y-83289850D01*
X126193020Y-83384419D01*
X126094427Y-83528715D01*
X126059741Y-83700000D01*
X126059741Y-85300000D01*
X126089850Y-85460015D01*
X126184419Y-85606980D01*
X126328715Y-85705573D01*
X126342000Y-85708263D01*
X126342000Y-89627058D01*
X126061741Y-89742859D01*
X125843624Y-89960595D01*
X125725435Y-90245227D01*
X125725166Y-90553421D01*
X125741107Y-90592000D01*
X125710421Y-90592000D01*
X122674651Y-87556231D01*
X122674834Y-87346579D01*
X122557141Y-87061741D01*
X122339405Y-86843624D01*
X122054773Y-86725435D01*
X121746579Y-86725166D01*
X121508000Y-86823745D01*
X121508000Y-86335000D01*
X121914250Y-86335000D01*
X122073000Y-86176250D01*
X122073000Y-85127000D01*
X122327000Y-85127000D01*
X122327000Y-86176250D01*
X122485750Y-86335000D01*
X123126309Y-86335000D01*
X123359698Y-86238327D01*
X123538327Y-86059699D01*
X123635000Y-85826310D01*
X123635000Y-85285750D01*
X123476250Y-85127000D01*
X122327000Y-85127000D01*
X122073000Y-85127000D01*
X122053000Y-85127000D01*
X122053000Y-84873000D01*
X122073000Y-84873000D01*
X122073000Y-83823750D01*
X122327000Y-83823750D01*
X122327000Y-84873000D01*
X123476250Y-84873000D01*
X123635000Y-84714250D01*
X123635000Y-84173690D01*
X123538327Y-83940301D01*
X123359698Y-83761673D01*
X123126309Y-83665000D01*
X122485750Y-83665000D01*
X122327000Y-83823750D01*
X122073000Y-83823750D01*
X121914250Y-83665000D01*
X121508000Y-83665000D01*
X121508000Y-79150420D01*
X124009210Y-76649210D01*
X124119331Y-76484403D01*
X124158000Y-76290000D01*
X124158000Y-76213972D01*
X124565986Y-75941364D01*
X124846794Y-75521106D01*
X124920000Y-75153073D01*
X124993206Y-75521106D01*
X125274014Y-75941364D01*
X125682000Y-76213972D01*
X125682000Y-76529580D01*
X122580790Y-79630790D01*
X122470669Y-79795597D01*
X122432000Y-79990000D01*
X122432000Y-81212478D01*
X122283624Y-81360595D01*
X122165435Y-81645227D01*
X122165166Y-81953421D01*
X122282859Y-82238259D01*
X122500595Y-82456376D01*
X122785227Y-82574565D01*
X123093421Y-82574834D01*
X123378259Y-82457141D01*
X123467171Y-82368385D01*
X123385435Y-82565227D01*
X123385166Y-82873421D01*
X123502859Y-83158259D01*
X123720595Y-83376376D01*
X124005227Y-83494565D01*
X124313421Y-83494834D01*
X124598259Y-83377141D01*
X124816376Y-83159405D01*
X124934565Y-82874773D01*
X124934749Y-82663671D01*
X129089211Y-78509210D01*
X129199331Y-78344403D01*
X129238000Y-78150000D01*
X129238000Y-76213972D01*
X129645986Y-75941364D01*
X129926794Y-75521106D01*
X130000000Y-75153073D01*
X130073206Y-75521106D01*
X130073206Y-75521106D01*
G37*
X130073206Y-75521106D02*
X130354014Y-75941364D01*
X130762000Y-76213972D01*
X130762000Y-77156329D01*
X130699405Y-77093624D01*
X130414773Y-76975435D01*
X130106579Y-76975166D01*
X129821741Y-77092859D01*
X129603624Y-77310595D01*
X129485435Y-77595227D01*
X129485166Y-77903421D01*
X129602859Y-78188259D01*
X129820595Y-78406376D01*
X130105227Y-78524565D01*
X130244424Y-78524686D01*
X131380126Y-79660388D01*
X131377542Y-79662968D01*
X131243852Y-79984928D01*
X131243607Y-80266131D01*
X129754869Y-81754869D01*
X129633736Y-81936156D01*
X129591200Y-82150000D01*
X129591200Y-83308034D01*
X129571285Y-83294427D01*
X129400000Y-83259741D01*
X128700000Y-83259741D01*
X128539985Y-83289850D01*
X128501155Y-83314836D01*
X128471285Y-83294427D01*
X128300000Y-83259741D01*
X127600000Y-83259741D01*
X127439985Y-83289850D01*
X127401155Y-83314836D01*
X127371285Y-83294427D01*
X127200000Y-83259741D01*
X126500000Y-83259741D01*
X126339985Y-83289850D01*
X126193020Y-83384419D01*
X126094427Y-83528715D01*
X126059741Y-83700000D01*
X126059741Y-85300000D01*
X126089850Y-85460015D01*
X126184419Y-85606980D01*
X126328715Y-85705573D01*
X126342000Y-85708263D01*
X126342000Y-89627058D01*
X126061741Y-89742859D01*
X125843624Y-89960595D01*
X125725435Y-90245227D01*
X125725166Y-90553421D01*
X125741107Y-90592000D01*
X125710421Y-90592000D01*
X122674651Y-87556231D01*
X122674834Y-87346579D01*
X122557141Y-87061741D01*
X122339405Y-86843624D01*
X122054773Y-86725435D01*
X121746579Y-86725166D01*
X121508000Y-86823745D01*
X121508000Y-86335000D01*
X121914250Y-86335000D01*
X122073000Y-86176250D01*
X122073000Y-85127000D01*
X122327000Y-85127000D01*
X122327000Y-86176250D01*
X122485750Y-86335000D01*
X123126309Y-86335000D01*
X123359698Y-86238327D01*
X123538327Y-86059699D01*
X123635000Y-85826310D01*
X123635000Y-85285750D01*
X123476250Y-85127000D01*
X122327000Y-85127000D01*
X122073000Y-85127000D01*
X122053000Y-85127000D01*
X122053000Y-84873000D01*
X122073000Y-84873000D01*
X122073000Y-83823750D01*
X122327000Y-83823750D01*
X122327000Y-84873000D01*
X123476250Y-84873000D01*
X123635000Y-84714250D01*
X123635000Y-84173690D01*
X123538327Y-83940301D01*
X123359698Y-83761673D01*
X123126309Y-83665000D01*
X122485750Y-83665000D01*
X122327000Y-83823750D01*
X122073000Y-83823750D01*
X121914250Y-83665000D01*
X121508000Y-83665000D01*
X121508000Y-79150420D01*
X124009210Y-76649210D01*
X124119331Y-76484403D01*
X124158000Y-76290000D01*
X124158000Y-76213972D01*
X124565986Y-75941364D01*
X124846794Y-75521106D01*
X124920000Y-75153073D01*
X124993206Y-75521106D01*
X125274014Y-75941364D01*
X125682000Y-76213972D01*
X125682000Y-76529580D01*
X122580790Y-79630790D01*
X122470669Y-79795597D01*
X122432000Y-79990000D01*
X122432000Y-81212478D01*
X122283624Y-81360595D01*
X122165435Y-81645227D01*
X122165166Y-81953421D01*
X122282859Y-82238259D01*
X122500595Y-82456376D01*
X122785227Y-82574565D01*
X123093421Y-82574834D01*
X123378259Y-82457141D01*
X123467171Y-82368385D01*
X123385435Y-82565227D01*
X123385166Y-82873421D01*
X123502859Y-83158259D01*
X123720595Y-83376376D01*
X124005227Y-83494565D01*
X124313421Y-83494834D01*
X124598259Y-83377141D01*
X124816376Y-83159405D01*
X124934565Y-82874773D01*
X124934749Y-82663671D01*
X129089211Y-78509210D01*
X129199331Y-78344403D01*
X129238000Y-78150000D01*
X129238000Y-76213972D01*
X129645986Y-75941364D01*
X129926794Y-75521106D01*
X130000000Y-75153073D01*
X130073206Y-75521106D01*
G36*
X145313206Y-75521106D02*
X145594014Y-75941364D01*
X146002000Y-76213972D01*
X146002000Y-81589580D01*
X141049580Y-86542000D01*
X135886420Y-86542000D01*
X136009210Y-86419210D01*
X136067258Y-86332335D01*
X136073691Y-86335000D01*
X136514250Y-86335000D01*
X136673000Y-86176250D01*
X136673000Y-85127000D01*
X136927000Y-85127000D01*
X136927000Y-86176250D01*
X137085750Y-86335000D01*
X137526309Y-86335000D01*
X137759698Y-86238327D01*
X137938327Y-86059699D01*
X138035000Y-85826310D01*
X138035000Y-85285750D01*
X137876250Y-85127000D01*
X136927000Y-85127000D01*
X136673000Y-85127000D01*
X136653000Y-85127000D01*
X136653000Y-84873000D01*
X136673000Y-84873000D01*
X136673000Y-83823750D01*
X136927000Y-83823750D01*
X136927000Y-84873000D01*
X137876250Y-84873000D01*
X138035000Y-84714250D01*
X138035000Y-84173690D01*
X137938327Y-83940301D01*
X137759698Y-83761673D01*
X137526309Y-83665000D01*
X137085750Y-83665000D01*
X136927000Y-83823750D01*
X136673000Y-83823750D01*
X136514250Y-83665000D01*
X136433673Y-83665000D01*
X136410150Y-83539985D01*
X136315581Y-83393020D01*
X136171285Y-83294427D01*
X136000000Y-83259741D01*
X135300000Y-83259741D01*
X135139985Y-83289850D01*
X135101155Y-83314836D01*
X135071285Y-83294427D01*
X134900000Y-83259741D01*
X134200000Y-83259741D01*
X134039985Y-83289850D01*
X134001155Y-83314836D01*
X133971285Y-83294427D01*
X133800000Y-83259741D01*
X133157767Y-83259741D01*
X133059698Y-83161673D01*
X132826309Y-83065000D01*
X132635750Y-83065000D01*
X132477000Y-83223750D01*
X132477000Y-84373000D01*
X132497000Y-84373000D01*
X132497000Y-84627000D01*
X132477000Y-84627000D01*
X132477000Y-84647000D01*
X132223000Y-84647000D01*
X132223000Y-84627000D01*
X132203000Y-84627000D01*
X132203000Y-84373000D01*
X132223000Y-84373000D01*
X132223000Y-83223750D01*
X132064250Y-83065000D01*
X131873691Y-83065000D01*
X131640302Y-83161673D01*
X131542233Y-83259741D01*
X130900000Y-83259741D01*
X130739985Y-83289850D01*
X130708800Y-83309917D01*
X130708800Y-82381462D01*
X132054019Y-81036243D01*
X132293542Y-81036452D01*
X132615736Y-80903324D01*
X132862458Y-80657032D01*
X132996148Y-80335072D01*
X132996452Y-79986458D01*
X132981253Y-79949674D01*
X134475349Y-81443770D01*
X134475166Y-81653421D01*
X134592859Y-81938259D01*
X134810595Y-82156376D01*
X135095227Y-82274565D01*
X135403421Y-82274834D01*
X135688259Y-82157141D01*
X135800004Y-82045591D01*
X135910595Y-82156376D01*
X136195227Y-82274565D01*
X136503421Y-82274834D01*
X136788259Y-82157141D01*
X137006376Y-81939405D01*
X137124565Y-81654773D01*
X137124834Y-81346579D01*
X137007141Y-81061741D01*
X136895591Y-80949996D01*
X136925048Y-80920591D01*
X137060595Y-81056376D01*
X137345227Y-81174565D01*
X137653421Y-81174834D01*
X137938259Y-81057141D01*
X138156376Y-80839405D01*
X138274565Y-80554773D01*
X138274834Y-80246579D01*
X138157141Y-79961741D01*
X138008000Y-79812339D01*
X138008000Y-76600420D01*
X138389462Y-76218958D01*
X138394272Y-76222172D01*
X138890000Y-76320778D01*
X139385728Y-76222172D01*
X139805986Y-75941364D01*
X140086794Y-75521106D01*
X140160000Y-75153073D01*
X140233206Y-75521106D01*
X140514014Y-75941364D01*
X140847432Y-76164148D01*
X140286162Y-76725418D01*
X139997893Y-76725166D01*
X139713055Y-76842859D01*
X139494938Y-77060595D01*
X139376749Y-77345227D01*
X139376480Y-77653421D01*
X139494173Y-77938259D01*
X139711909Y-78156376D01*
X139996541Y-78274565D01*
X140304735Y-78274834D01*
X140589573Y-78157141D01*
X140807690Y-77939405D01*
X140925879Y-77654773D01*
X140925995Y-77522425D01*
X141789210Y-76659210D01*
X141899331Y-76494404D01*
X141909913Y-76441201D01*
X141938000Y-76300000D01*
X141938000Y-76213972D01*
X142345986Y-75941364D01*
X142626794Y-75521106D01*
X142700000Y-75153073D01*
X142773206Y-75521106D01*
X143054014Y-75941364D01*
X143474272Y-76222172D01*
X143970000Y-76320778D01*
X144465728Y-76222172D01*
X144885986Y-75941364D01*
X145166794Y-75521106D01*
X145240000Y-75153073D01*
X145313206Y-75521106D01*
X145313206Y-75521106D01*
G37*
X145313206Y-75521106D02*
X145594014Y-75941364D01*
X146002000Y-76213972D01*
X146002000Y-81589580D01*
X141049580Y-86542000D01*
X135886420Y-86542000D01*
X136009210Y-86419210D01*
X136067258Y-86332335D01*
X136073691Y-86335000D01*
X136514250Y-86335000D01*
X136673000Y-86176250D01*
X136673000Y-85127000D01*
X136927000Y-85127000D01*
X136927000Y-86176250D01*
X137085750Y-86335000D01*
X137526309Y-86335000D01*
X137759698Y-86238327D01*
X137938327Y-86059699D01*
X138035000Y-85826310D01*
X138035000Y-85285750D01*
X137876250Y-85127000D01*
X136927000Y-85127000D01*
X136673000Y-85127000D01*
X136653000Y-85127000D01*
X136653000Y-84873000D01*
X136673000Y-84873000D01*
X136673000Y-83823750D01*
X136927000Y-83823750D01*
X136927000Y-84873000D01*
X137876250Y-84873000D01*
X138035000Y-84714250D01*
X138035000Y-84173690D01*
X137938327Y-83940301D01*
X137759698Y-83761673D01*
X137526309Y-83665000D01*
X137085750Y-83665000D01*
X136927000Y-83823750D01*
X136673000Y-83823750D01*
X136514250Y-83665000D01*
X136433673Y-83665000D01*
X136410150Y-83539985D01*
X136315581Y-83393020D01*
X136171285Y-83294427D01*
X136000000Y-83259741D01*
X135300000Y-83259741D01*
X135139985Y-83289850D01*
X135101155Y-83314836D01*
X135071285Y-83294427D01*
X134900000Y-83259741D01*
X134200000Y-83259741D01*
X134039985Y-83289850D01*
X134001155Y-83314836D01*
X133971285Y-83294427D01*
X133800000Y-83259741D01*
X133157767Y-83259741D01*
X133059698Y-83161673D01*
X132826309Y-83065000D01*
X132635750Y-83065000D01*
X132477000Y-83223750D01*
X132477000Y-84373000D01*
X132497000Y-84373000D01*
X132497000Y-84627000D01*
X132477000Y-84627000D01*
X132477000Y-84647000D01*
X132223000Y-84647000D01*
X132223000Y-84627000D01*
X132203000Y-84627000D01*
X132203000Y-84373000D01*
X132223000Y-84373000D01*
X132223000Y-83223750D01*
X132064250Y-83065000D01*
X131873691Y-83065000D01*
X131640302Y-83161673D01*
X131542233Y-83259741D01*
X130900000Y-83259741D01*
X130739985Y-83289850D01*
X130708800Y-83309917D01*
X130708800Y-82381462D01*
X132054019Y-81036243D01*
X132293542Y-81036452D01*
X132615736Y-80903324D01*
X132862458Y-80657032D01*
X132996148Y-80335072D01*
X132996452Y-79986458D01*
X132981253Y-79949674D01*
X134475349Y-81443770D01*
X134475166Y-81653421D01*
X134592859Y-81938259D01*
X134810595Y-82156376D01*
X135095227Y-82274565D01*
X135403421Y-82274834D01*
X135688259Y-82157141D01*
X135800004Y-82045591D01*
X135910595Y-82156376D01*
X136195227Y-82274565D01*
X136503421Y-82274834D01*
X136788259Y-82157141D01*
X137006376Y-81939405D01*
X137124565Y-81654773D01*
X137124834Y-81346579D01*
X137007141Y-81061741D01*
X136895591Y-80949996D01*
X136925048Y-80920591D01*
X137060595Y-81056376D01*
X137345227Y-81174565D01*
X137653421Y-81174834D01*
X137938259Y-81057141D01*
X138156376Y-80839405D01*
X138274565Y-80554773D01*
X138274834Y-80246579D01*
X138157141Y-79961741D01*
X138008000Y-79812339D01*
X138008000Y-76600420D01*
X138389462Y-76218958D01*
X138394272Y-76222172D01*
X138890000Y-76320778D01*
X139385728Y-76222172D01*
X139805986Y-75941364D01*
X140086794Y-75521106D01*
X140160000Y-75153073D01*
X140233206Y-75521106D01*
X140514014Y-75941364D01*
X140847432Y-76164148D01*
X140286162Y-76725418D01*
X139997893Y-76725166D01*
X139713055Y-76842859D01*
X139494938Y-77060595D01*
X139376749Y-77345227D01*
X139376480Y-77653421D01*
X139494173Y-77938259D01*
X139711909Y-78156376D01*
X139996541Y-78274565D01*
X140304735Y-78274834D01*
X140589573Y-78157141D01*
X140807690Y-77939405D01*
X140925879Y-77654773D01*
X140925995Y-77522425D01*
X141789210Y-76659210D01*
X141899331Y-76494404D01*
X141909913Y-76441201D01*
X141938000Y-76300000D01*
X141938000Y-76213972D01*
X142345986Y-75941364D01*
X142626794Y-75521106D01*
X142700000Y-75153073D01*
X142773206Y-75521106D01*
X143054014Y-75941364D01*
X143474272Y-76222172D01*
X143970000Y-76320778D01*
X144465728Y-76222172D01*
X144885986Y-75941364D01*
X145166794Y-75521106D01*
X145240000Y-75153073D01*
X145313206Y-75521106D01*
G36*
X105997000Y-74873000D02*
X106017000Y-74873000D01*
X106017000Y-75127000D01*
X105997000Y-75127000D01*
X105997000Y-76339850D01*
X106155750Y-76498600D01*
X106726928Y-76498600D01*
X106780790Y-76579210D01*
X107310790Y-77109210D01*
X107475596Y-77219331D01*
X107670000Y-77258000D01*
X109339580Y-77258000D01*
X109543074Y-77461494D01*
X109412339Y-77592000D01*
X106220420Y-77592000D01*
X105127020Y-76498600D01*
X105584250Y-76498600D01*
X105743000Y-76339850D01*
X105743000Y-75127000D01*
X105723000Y-75127000D01*
X105723000Y-74873000D01*
X105743000Y-74873000D01*
X105743000Y-74853000D01*
X105997000Y-74853000D01*
X105997000Y-74873000D01*
X105997000Y-74873000D01*
G37*
X105997000Y-74873000D02*
X106017000Y-74873000D01*
X106017000Y-75127000D01*
X105997000Y-75127000D01*
X105997000Y-76339850D01*
X106155750Y-76498600D01*
X106726928Y-76498600D01*
X106780790Y-76579210D01*
X107310790Y-77109210D01*
X107475596Y-77219331D01*
X107670000Y-77258000D01*
X109339580Y-77258000D01*
X109543074Y-77461494D01*
X109412339Y-77592000D01*
X106220420Y-77592000D01*
X105127020Y-76498600D01*
X105584250Y-76498600D01*
X105743000Y-76339850D01*
X105743000Y-75127000D01*
X105723000Y-75127000D01*
X105723000Y-74873000D01*
X105743000Y-74873000D01*
X105743000Y-74853000D01*
X105997000Y-74853000D01*
X105997000Y-74873000D01*
M02*
