M48
;DRILL file {KiCad 4.0.5} date 12/27/16 09:40:09
;FORMAT={-:-/ absolute / inch / decimal}
FMAT,2
INCH,TZ
T1C0.013
T2C0.020
T3C0.040
T4C0.035
T5C0.039
T6C0.118
%
G90
G05
M72
T1
X4.3307Y-3.0748
X4.3898Y-3.0984
X4.3961Y-3.5177
X4.4488Y-3.122
X4.53Y-3.2205
X4.595Y-3.2979
X4.6185Y-3.7815
X4.6843Y-3.8201
X4.685Y-3.0433
X4.6858Y-3.2205
X4.7134Y-3.7106
X4.7524Y-3.8539
X4.7992Y-3.4449
X4.7992Y-3.4941
X4.8402Y-3.2205
X4.8571Y-3.8295
X4.8882Y-3.2567
X4.9386Y-3.1524
X4.9803Y-3.5591
X4.9803Y-3.6846
X5.0117Y-3.8497
X5.0193Y-3.5591
X5.0276Y-3.0315
X5.0748Y-3.5591
X5.1051Y-3.4102
X5.1063Y-3.6389
X5.1063Y-3.7402
X5.1283Y-3.061
X5.1439Y-3.394
X5.1567Y-3.5591
X5.1673Y-3.6614
X5.1969Y-3.6106
X5.2067Y-3.6614
X5.2228Y-3.3969
X5.2264Y-3.5224
X5.2264Y-3.5591
X5.276Y-3.6346
X5.2988Y-3.5059
X5.3248Y-3.2087
X5.3681Y-3.1654
X5.3681Y-3.2087
X5.4134Y-3.1654
X5.5178Y-3.0512
T2
X4.0256Y-3.4449
X4.0256Y-3.4941
X4.0256Y-3.5433
X4.0256Y-3.5925
X4.0256Y-3.6417
X4.0748Y-3.4449
X4.0748Y-3.4941
X4.0748Y-3.5433
X4.0748Y-3.6417
X4.0748Y-3.5925
X4.1339Y-3.8189
X4.1339Y-3.8681
X4.1831Y-3.8189
X4.1831Y-3.8681
X4.2323Y-3.8189
X4.2323Y-3.8681
X4.2815Y-3.8189
X4.2815Y-3.8681
X4.3307Y-3.124
X4.3307Y-3.8189
X4.3307Y-3.8681
X4.3799Y-3.8189
X4.3799Y-3.8681
X4.4291Y-3.7031
X4.4291Y-3.8189
X4.4291Y-3.8681
X4.4783Y-3.8189
X4.4783Y-3.8681
X4.5276Y-3.8189
X4.5276Y-3.8681
X4.5768Y-3.8681
X4.6614Y-3.6378
X4.7087Y-3.7598
X4.878Y-3.776
X4.9016Y-3.0217
X4.9311Y-3.3465
X5.2016Y-3.1559
X5.248Y-3.1894
X5.3319Y-3.8079
X5.4252Y-3.8819
X5.4547Y-3.5827
X5.4724Y-3.752
X5.4921Y-3.8681
X5.5413Y-3.8189
X5.5413Y-3.8681
X5.5906Y-3.8189
X5.5906Y-3.8681
X5.6102Y-3.0512
X5.6102Y-3.1004
X5.6398Y-3.8189
X5.6398Y-3.8681
X5.6594Y-3.0512
X5.6594Y-3.1004
X5.689Y-3.8189
X5.689Y-3.8681
X5.7087Y-3.0512
X5.7087Y-3.1004
X5.7382Y-3.8189
X5.7382Y-3.8681
X5.7874Y-3.8189
X5.7874Y-3.8681
X5.8071Y-3.0512
X5.8071Y-3.1004
X5.8366Y-3.8189
X5.8366Y-3.8681
X5.8563Y-3.0512
X5.8563Y-3.1004
X5.8858Y-3.8189
X5.8858Y-3.8681
X5.9055Y-3.0512
X5.9055Y-3.1004
X5.935Y-3.8189
X5.935Y-3.8681
X5.9547Y-3.0512
X5.9547Y-3.1004
X5.9843Y-3.8189
X5.9843Y-3.8681
X6.0039Y-3.0512
X6.0039Y-3.1004
X6.0335Y-3.8189
X6.0335Y-3.8681
X6.0531Y-3.0512
X6.0531Y-3.1004
X6.0827Y-3.8189
X6.0827Y-3.8681
X6.1024Y-3.0512
X6.1024Y-3.1004
X6.1516Y-3.0512
X6.1516Y-3.1004
X6.2008Y-3.0512
X6.2008Y-3.1004
X6.25Y-3.0512
X6.25Y-3.1004
T3
X4.1681Y-2.8528
X4.1681Y-2.9528
X4.2681Y-2.8528
X4.2681Y-2.9528
X4.3681Y-2.8528
X4.3681Y-2.9528
X4.4681Y-2.8528
X4.4681Y-2.9528
X4.5681Y-2.8528
X4.5681Y-2.9528
X4.6681Y-2.8528
X4.6681Y-2.9528
X4.7681Y-2.8528
X4.7681Y-2.9528
X4.8681Y-2.8528
X4.8681Y-2.9528
X4.9681Y-2.8528
X4.9681Y-2.9528
X5.0681Y-2.8528
X5.0681Y-2.9528
X5.1681Y-2.8528
X5.1681Y-2.9528
X5.2681Y-2.8528
X5.2681Y-2.9528
X5.3681Y-2.8528
X5.3681Y-2.9528
X5.4681Y-2.8528
X5.4681Y-2.9528
X5.5681Y-2.8528
X5.5681Y-2.9528
X5.6681Y-2.8528
X5.6681Y-2.9528
X5.7681Y-2.8528
X5.7681Y-2.9528
X5.8681Y-2.8528
X5.8681Y-2.9528
X5.9681Y-2.8528
X5.9681Y-2.9528
X6.0681Y-2.8528
X6.0681Y-2.9528
X6.1024Y-3.189
X6.1024Y-3.289
X6.1024Y-3.389
X6.1024Y-3.489
X6.1024Y-3.589
T4
X4.1674Y-3.4567
X4.1674Y-3.6299
T5
X4.9606Y-3.7402
X5.2748Y-3.7402
T6
X4.0354Y-2.8543
X4.0354Y-3.8386
X6.2008Y-2.8543
X6.2008Y-3.8386
T0
M30
