G04 #@! TF.FileFunction,Soldermask,Bot*
%FSLAX46Y46*%
G04 Gerber Fmt 4.6, Leading zero omitted, Abs format (unit mm)*
G04 Created by KiCad (PCBNEW 4.0.5) date 12/27/16 09:40:05*
%MOMM*%
%LPD*%
G01*
G04 APERTURE LIST*
%ADD10C,0.100000*%
%ADD11C,3.400000*%
%ADD12R,2.127200X2.127200*%
%ADD13O,2.127200X2.127200*%
%ADD14R,2.432000X2.127200*%
%ADD15O,2.432000X2.127200*%
%ADD16C,1.299160*%
%ADD17R,1.600000X2.600000*%
%ADD18R,2.000000X1.800000*%
%ADD19R,1.600000X1.800000*%
%ADD20R,1.100000X2.000000*%
G04 APERTURE END LIST*
D10*
D11*
X102500000Y-72500000D03*
D12*
X105870000Y-75000000D03*
D13*
X105870000Y-72460000D03*
X108410000Y-75000000D03*
X108410000Y-72460000D03*
X110950000Y-75000000D03*
X110950000Y-72460000D03*
X113490000Y-75000000D03*
X113490000Y-72460000D03*
X116030000Y-75000000D03*
X116030000Y-72460000D03*
X118570000Y-75000000D03*
X118570000Y-72460000D03*
X121110000Y-75000000D03*
X121110000Y-72460000D03*
X123650000Y-75000000D03*
X123650000Y-72460000D03*
X126190000Y-75000000D03*
X126190000Y-72460000D03*
X128730000Y-75000000D03*
X128730000Y-72460000D03*
X131270000Y-75000000D03*
X131270000Y-72460000D03*
X133810000Y-75000000D03*
X133810000Y-72460000D03*
X136350000Y-75000000D03*
X136350000Y-72460000D03*
X138890000Y-75000000D03*
X138890000Y-72460000D03*
X141430000Y-75000000D03*
X141430000Y-72460000D03*
X143970000Y-75000000D03*
X143970000Y-72460000D03*
X146510000Y-75000000D03*
X146510000Y-72460000D03*
X149050000Y-75000000D03*
X149050000Y-72460000D03*
X151590000Y-75000000D03*
X151590000Y-72460000D03*
X154130000Y-75000000D03*
X154130000Y-72460000D03*
D14*
X155000000Y-81000000D03*
D15*
X155000000Y-83540000D03*
X155000000Y-86080000D03*
X155000000Y-88620000D03*
X155000000Y-91160000D03*
D16*
X105850900Y-87800360D03*
X105850900Y-92199640D03*
D17*
X121300000Y-94600000D03*
X136800000Y-94600000D03*
D18*
X122200000Y-85000000D03*
D19*
X136800000Y-85000000D03*
D20*
X135650000Y-84500000D03*
X133450000Y-84500000D03*
X134550000Y-84500000D03*
X132350000Y-84500000D03*
X131250000Y-84500000D03*
X130150000Y-84500000D03*
X126850000Y-84500000D03*
X127950000Y-84500000D03*
X129050000Y-84500000D03*
D11*
X157500000Y-72500000D03*
X157500000Y-97500000D03*
X102500000Y-97500000D03*
M02*
